<svg width="22" height="20" viewBox="0 0 22 20" fill="none" xmlns="http://www.w3.org/2000/svg">
<path d="M0 15.9468C0.0624815 15.6088 0.106046 15.2662 0.190884 14.9345C0.514182 13.6633 1.18084 12.6043 2.17367 11.7529C2.20634 11.7247 2.23959 11.6976 2.27054 11.6676C2.27971 11.6589 2.28258 11.6433 2.30379 11.5972C2.12265 11.5972 1.95527 11.5989 1.78846 11.5972C1.32702 11.5903 1.07594 11.3359 1.0748 10.871C1.07308 10.3311 1.09199 9.79127 1.07078 9.25197C1.01747 7.89883 2.1324 6.81735 3.52361 7.01057C4.98132 7.21302 6.44075 7.4051 7.89904 7.60524C8.36163 7.66869 8.75544 7.87806 9.07587 8.21664C9.17274 8.31873 9.21459 8.31008 9.3 8.2051C10.2647 7.02441 11.5081 6.46493 13.0265 6.53703C13.5155 6.5601 13.9804 6.69737 14.4263 6.8906C14.4785 6.81908 14.4281 6.76832 14.4114 6.71987C14.1575 5.97235 13.8955 5.22714 13.6456 4.47846C13.5992 4.33888 13.535 4.29159 13.3871 4.29389C12.8511 4.3037 12.3146 4.29966 11.778 4.29678C11.3739 4.29447 11.0867 4.03088 11.0799 3.66289C11.073 3.30124 11.3648 3.00823 11.7591 3.00477C12.5026 2.99785 13.2467 2.999 13.9901 3.00477C14.3381 3.00708 14.5502 3.16512 14.666 3.49792C14.8786 4.10759 15.0901 4.71841 15.2931 5.33154C15.3395 5.4717 15.379 5.49477 15.5069 5.4094C15.8193 5.20118 16.1718 5.11755 16.5444 5.11639C16.9451 5.11466 17.3452 5.11351 17.7459 5.11639C18.1758 5.11985 18.4458 5.38575 18.4481 5.81489C18.4515 6.6495 18.4515 7.48411 18.4481 8.31873C18.4464 8.73979 18.1833 8.99992 17.7614 9.00569C17.418 9.0103 17.0746 9.01145 16.7319 9.00453C16.5983 9.00165 16.5725 9.04202 16.6149 9.16488C17.0357 10.379 17.4564 11.5926 17.8691 12.8096C17.9224 12.9671 18.0251 12.9215 18.1248 12.9152C19.6341 12.8223 20.8023 13.425 21.5263 14.7494C22.2474 16.069 22.1425 17.4026 21.23 18.5965C20.318 19.7893 19.0677 20.2398 17.6123 19.8787C16.142 19.5142 15.2283 18.5285 14.9789 17.0242C14.7307 15.5274 15.2959 14.3335 16.5341 13.4718C16.6654 13.3806 16.6957 13.3126 16.6384 13.1649C16.5163 12.8511 16.4137 12.5293 16.3025 12.2086C16.2114 12.2322 16.1747 12.3067 16.1248 12.362C14.7903 13.8351 13.4553 15.3071 12.1271 16.786C11.9345 17.0006 11.7173 17.1015 11.4324 17.0969C10.8746 17.0882 10.3169 17.0986 9.75915 17.0917C9.62158 17.09 9.56196 17.1292 9.527 17.2705C9.12345 18.8999 7.67777 20.0304 6.05325 19.9958C4.38058 19.9601 2.99166 18.7932 2.64486 17.1315C2.22297 15.111 3.70475 13.1003 5.75116 12.9175C7.53447 12.7577 9.10338 13.8761 9.52642 15.6163C9.55967 15.7518 9.60782 15.8066 9.75113 15.802C10.0653 15.7916 10.3805 15.791 10.6947 15.802C10.8523 15.8072 10.8701 15.7437 10.8483 15.6099C10.5422 13.7221 9.00995 12.1105 7.14181 11.716C4.39606 11.1358 1.8068 12.914 1.34593 15.7011C1.30982 15.9202 1.2995 16.1446 1.29147 16.3672C1.27772 16.7479 1.0983 17.0052 0.784744 17.0732C0.452274 17.1453 0.191457 16.9908 0.0292341 16.6274C0.0235019 16.6153 0.0108912 16.606 0.0017196 16.5957C0.0017196 16.3799 0.0017196 16.1636 0.0017196 15.9479L0 15.9468ZM7.08162 15.7985C7.4032 15.7985 7.72535 15.7887 8.04636 15.8026C8.24068 15.8112 8.23724 15.7443 8.17648 15.5949C7.80102 14.6698 6.85405 14.0993 5.86065 14.2089C4.78012 14.3277 3.92716 15.2206 3.8664 16.2969C3.80277 17.4205 4.53707 18.3975 5.63365 18.6479C6.66947 18.8844 7.75401 18.3081 8.16903 17.3086C8.23437 17.1517 8.23781 17.0871 8.03489 17.0905C7.39918 17.1009 6.76291 17.1009 6.1272 17.0905C5.73626 17.0842 5.45939 16.8079 5.45595 16.4503C5.45251 16.0852 5.73913 15.8078 6.13866 15.8008C6.45279 15.7951 6.76749 15.7991 7.08162 15.7985ZM16.2068 16.3136C16.2131 17.7048 17.2432 18.7321 18.4768 18.6992C19.6937 18.6669 20.667 17.6841 20.6808 16.4751C20.6951 15.2587 19.7579 14.2631 18.5375 14.1916C18.3885 14.1829 18.3484 14.2077 18.404 14.3641C18.6166 14.9587 18.8167 15.5574 19.0225 16.1544C19.0649 16.2773 19.101 16.4001 19.0781 16.5334C19.0259 16.8391 18.8006 17.0559 18.5025 17.0836C18.1953 17.1125 17.9391 16.9498 17.8273 16.632C17.6123 16.0229 17.4025 15.4121 17.1996 14.799C17.1457 14.6357 17.0918 14.6334 16.9743 14.7419C16.4773 15.1975 16.2142 15.7576 16.2068 16.3136ZM12.6373 10.3017C12.9234 10.3017 13.2094 10.3017 13.4954 10.3017C14.1386 10.3017 14.7823 10.3029 15.4255 10.3C15.4903 10.3 15.6112 10.3375 15.5585 10.1904C15.3911 9.72436 15.2415 9.24851 14.9107 8.86379C14.1311 7.9565 13.1486 7.63177 11.9999 7.91901C10.8299 8.21202 10.0859 8.97915 9.7345 10.1391C9.67718 10.3271 9.78265 10.3023 9.89214 10.3023C10.807 10.3017 11.7224 10.3017 12.6373 10.3017ZM5.38487 10.3017H7.82853C8.24011 10.3017 8.42984 10.0916 8.39774 9.6713C8.36507 9.24332 8.0819 8.92955 7.66 8.87302C6.20917 8.67749 4.75834 8.48311 3.30693 8.29623C2.76294 8.22644 2.36627 8.59213 2.36111 9.14931C2.35825 9.45154 2.372 9.75378 2.35653 10.0549C2.34678 10.2464 2.39551 10.3098 2.59843 10.3075C3.52705 10.296 4.45568 10.3017 5.38487 10.3017ZM9.85832 11.6082C10.9618 12.5097 11.6663 13.6119 12.0274 14.9639C13.0472 13.8357 14.04 12.7375 15.0609 11.6082H9.85832ZM17.1601 7.07286C17.1601 6.89406 17.1572 6.71468 17.1612 6.53587C17.1635 6.44474 17.1302 6.40725 17.0374 6.40956C16.8454 6.41475 16.6522 6.40033 16.4613 6.4159C16.1111 6.44532 15.8623 6.73429 15.8703 7.08325C15.8778 7.42817 16.1437 7.69464 16.5008 7.70906C16.6717 7.71598 16.8425 7.70676 17.0133 7.7131C17.1205 7.71714 17.1681 7.68368 17.1623 7.56775C17.1543 7.40336 17.1606 7.23783 17.1601 7.07286Z" fill="#E52823"/>
<rect x="1" y="1" width="7" height="6" rx="1" stroke="#E52823"/>
</svg>
