<svg width="100" height="95" viewBox="0 0 100 95" fill="none" xmlns="http://www.w3.org/2000/svg">
<g opacity="0.6" filter="url(#filter0_f_496_4733)">
<path d="M69.0488 49.5C69.0488 60.2696 60.3184 69 49.5488 69C38.7793 69 30.0488 60.2696 30.0488 49.5C30.0488 38.7304 38.7793 30 49.5488 30C60.3184 30 69.0488 38.7304 69.0488 49.5Z" fill="white"/>
</g>
<path d="M72 42.5C72 54.9264 61.9264 65 49.5 65C37.0736 65 27 54.9264 27 42.5C27 30.0736 37.0736 20 49.5 20C61.9264 20 72 30.0736 72 42.5Z" fill="#EB252D"/>
<path d="M50.8432 50.1568C52.5559 51.0188 54.5723 51.6404 56.9375 51.9063C57.5115 51.9709 58 51.511 58 50.9334V48.7808C58 48.3219 57.6877 47.9219 57.2425 47.8106L54.5493 47.1373C54.2085 47.0521 53.848 47.152 53.5996 47.4004L50.8432 50.1568ZM50.8432 50.1568C47.7275 48.5888 45.6171 46.225 44.2412 43.7588M44.2412 43.7588C42.9303 41.4093 42.2862 38.9667 42.0748 37.0308C42.0134 36.4688 42.4685 36 43.0339 36H45.1802C45.6569 36 46.0673 36.3365 46.1608 36.8039L46.895 40.4752C46.9606 40.8031 46.858 41.142 46.6216 41.3784L44.2412 43.7588Z" stroke="white" stroke-width="2"/>
<defs>
<filter id="filter0_f_496_4733" x="0.0488281" y="0" width="99" height="99" filterUnits="userSpaceOnUse" color-interpolation-filters="sRGB">
<feFlood flood-opacity="0" result="BackgroundImageFix"/>
<feBlend mode="normal" in="SourceGraphic" in2="BackgroundImageFix" result="shape"/>
<feGaussianBlur stdDeviation="15" result="effect1_foregroundBlur_496_4733"/>
</filter>
</defs>
</svg>
