<svg width="286" height="283" viewBox="0 0 286 283" fill="none" xmlns="http://www.w3.org/2000/svg">
<path d="M71.5523 45.907C71.5523 45.907 114.609 78.5804 180.067 17.4865C238.2 -36.7706 285.665 48.8348 285.998 89.8295C286.429 142.935 227.865 185.425 256.285 220.305C284.706 255.185 199.923 312.783 154.23 262.936C97.3891 200.928 81.9898 251.309 49.5911 251.309C26.338 251.309 -21.4031 193.531 10.836 150.546C37.9646 114.374 23.1696 102.37 16.0032 89.8295C5.66858 71.7438 30.2135 22.6539 71.5523 45.907Z" fill="#EFEFEF"/>
<path d="M141.216 120.2V241.448L47.0771 200.787L47.5263 79.9768L141.216 120.2Z" fill="#8F1C26"/>
<path d="M141.218 120.272V241.521L234.899 202.264V80.3639L141.218 120.272Z" fill="#E52823"/>
<path d="M141.216 120.2L235.356 80.7695L141.956 39.3679L47.0771 79.7838L141.216 120.2Z" fill="#E52823"/>
<path d="M82.5645 64.6675L176.345 105.487L177.197 135.233L203.435 124.406L202.642 94.4721L106.087 54.6475L82.5645 64.6675Z" fill="#EFEFEF"/>
<path d="M171.004 163.774C172.49 163.774 173.695 161.575 173.695 158.862C173.695 156.149 172.49 153.95 171.004 153.95C169.517 153.95 168.312 156.149 168.312 158.862C168.312 161.575 169.517 163.774 171.004 163.774Z" fill="#32343E"/>
<path d="M214.36 146.109C215.847 146.109 217.052 143.91 217.052 141.197C217.052 138.484 215.847 136.285 214.36 136.285C212.874 136.285 211.669 138.484 211.669 141.197C211.669 143.91 212.874 146.109 214.36 146.109Z" fill="#32343E"/>
<path d="M186.599 189.707L184.852 189.028C188.724 179.06 193.579 173.568 199.283 172.706C204.74 171.881 209.337 175.64 211.005 177.743L209.536 178.908C208.382 177.454 204.344 173.837 199.564 174.56C194.642 175.303 190.159 180.541 186.599 189.707Z" fill="#32343E"/>
</svg>
