<?xml version="1.0" encoding="UTF-8"?><svg id="Layer_2" xmlns="http://www.w3.org/2000/svg" viewBox="0 0 65 65"><defs><style>.cls-1{fill:#e42b26;}.cls-1,.cls-2{stroke-width:0px;}.cls-3{fill:none;stroke:#fff;stroke-width:2.64px;}.cls-2{fill:#fff;}</style></defs><g id="Layer_1-2"><circle class="cls-1" cx="32.5" cy="32.5" r="32.5"/><path class="cls-2" d="M9.58,43.85c.13-.7.22-1.42.4-2.11.67-2.65,2.06-4.85,4.13-6.63.07-.06.14-.12.2-.18.02-.02.03-.05.07-.15-.38,0-.73,0-1.07,0-.96-.01-1.48-.54-1.49-1.51,0-1.12.04-2.25,0-3.37-.11-2.82,2.21-5.07,5.11-4.67,3.04.42,6.08.82,9.12,1.24.96.13,1.78.57,2.45,1.27.2.21.29.19.47-.02,2.01-2.46,4.6-3.63,7.76-3.48,1.02.05,1.99.33,2.92.74.11-.15,0-.25-.03-.36-.53-1.56-1.07-3.11-1.6-4.67-.1-.29-.23-.39-.54-.38-1.12.02-2.23.01-3.35,0-.84,0-1.44-.55-1.45-1.32-.01-.75.59-1.36,1.42-1.37,1.55-.01,3.1-.01,4.65,0,.72,0,1.17.33,1.41,1.03.44,1.27.88,2.54,1.31,3.82.1.29.18.34.45.16.65-.43,1.39-.61,2.16-.61.83,0,1.67,0,2.5,0,.9,0,1.46.56,1.46,1.46,0,1.74,0,3.48,0,5.22,0,.88-.55,1.42-1.43,1.43-.72,0-1.43.01-2.14,0-.28,0-.33.08-.24.33.88,2.53,1.75,5.06,2.61,7.59.11.33.32.23.53.22,3.14-.19,5.58,1.06,7.09,3.82,1.5,2.75,1.28,5.53-.62,8.02-1.9,2.49-4.5,3.42-7.54,2.67-3.06-.76-4.97-2.81-5.49-5.95-.52-3.12.66-5.61,3.24-7.4.27-.19.34-.33.22-.64-.25-.65-.47-1.32-.7-1.99-.19.05-.27.2-.37.32-2.78,3.07-5.56,6.14-8.33,9.22-.4.45-.85.66-1.45.65-1.16-.02-2.32,0-3.49-.01-.29,0-.41.08-.48.37-.84,3.39-3.85,5.75-7.24,5.68-3.48-.07-6.38-2.51-7.1-5.97-.88-4.21,2.21-8.4,6.47-8.78,3.72-.33,6.98,2,7.87,5.62.07.28.17.4.47.39.65-.02,1.31-.02,1.97,0,.33.01.37-.12.32-.4-.64-3.93-3.83-7.29-7.72-8.11-5.72-1.21-11.11,2.5-12.08,8.3-.08.46-.1.92-.11,1.39-.03.79-.4,1.33-1.06,1.47-.69.15-1.24-.17-1.57-.93-.01-.03-.04-.04-.06-.07v-1.35h0ZM24.34,43.54c.67,0,1.34-.02,2.01,0,.4.02.4-.12.27-.43-.78-1.93-2.76-3.12-4.82-2.89-2.25.25-4.03,2.11-4.15,4.35-.13,2.34,1.4,4.38,3.68,4.9,2.16.49,4.42-.71,5.28-2.79.14-.33.14-.46-.28-.45-1.32.02-2.65.02-3.97,0-.81-.01-1.39-.59-1.4-1.33,0-.76.59-1.34,1.42-1.35.65-.01,1.31,0,1.96,0ZM43.35,44.61c.01,2.9,2.16,5.04,4.73,4.97,2.54-.07,4.56-2.11,4.59-4.63.03-2.53-1.92-4.61-4.47-4.76-.31-.02-.39.03-.28.36.44,1.24.86,2.49,1.29,3.73.09.26.16.51.12.79-.11.64-.58,1.09-1.2,1.15-.64.06-1.17-.28-1.41-.94-.45-1.27-.88-2.54-1.31-3.82-.11-.34-.22-.34-.47-.12-1.04.95-1.58,2.12-1.6,3.27ZM35.91,32.09h1.79c1.34,0,2.68,0,4.02,0,.13,0,.39.08.28-.23-.35-.97-.66-1.96-1.35-2.76-1.62-1.89-3.67-2.57-6.06-1.97-2.44.61-3.99,2.21-4.72,4.63-.12.39.1.34.33.34,1.91,0,3.81,0,5.72,0ZM20.8,32.09h5.09c.86,0,1.25-.44,1.19-1.31-.07-.89-.66-1.55-1.54-1.66-3.02-.41-6.05-.81-9.07-1.2-1.13-.15-1.96.62-1.97,1.78,0,.63.02,1.26,0,1.89-.02.4.08.53.5.53,1.93-.02,3.87-.01,5.81-.01ZM30.12,34.81c2.3,1.88,3.77,4.17,4.52,6.99,2.12-2.35,4.19-4.64,6.32-6.99h-10.84ZM45.33,25.36c0-.37,0-.75,0-1.12,0-.19-.06-.27-.26-.26-.4.01-.8-.02-1.2.01-.73.06-1.25.66-1.23,1.39.02.72.57,1.27,1.31,1.3.36.01.71,0,1.07,0,.22,0,.32-.06.31-.3-.02-.34,0-.69,0-1.03Z"/><rect class="cls-3" x="11.66" y="12.71" width="14.58" height="12.5" rx="1.32" ry="1.32"/></g></svg>