<svg width="32" height="31" viewBox="0 0 32 31" fill="none" xmlns="http://www.w3.org/2000/svg">
<path d="M15.8789 5.84057C18.1166 5.80727 20.2807 6.61351 21.917 8.09008L26.3243 3.92216C23.4967 1.35974 19.7536 -0.0453416 15.8789 0.00111641C12.9839 0.000469455 10.1457 0.778697 7.6818 2.24877C5.21791 3.71884 3.22545 5.8228 1.92725 8.32535L6.97724 12.1171C7.59473 10.3013 8.78601 8.71881 10.3831 7.59271C11.9802 6.4666 13.9025 5.85375 15.8789 5.84057Z" fill="#EA4335"/>
<path d="M30.8715 15.4401C30.8899 14.4018 30.7789 13.3652 30.5411 12.3526H15.8792V17.9583H24.4865C24.3232 18.9411 23.9561 19.8818 23.4072 20.7238C22.8583 21.5659 22.139 22.2919 21.2925 22.8581L26.2209 26.5497C27.7568 25.1156 28.9647 23.3859 29.7665 21.4723C30.5684 19.5587 30.9463 17.5037 30.876 15.4401H30.8715Z" fill="#4285F4"/>
<path d="M6.99544 18.0914C6.65399 17.1299 6.47796 16.1207 6.47437 15.1041C6.4806 14.0891 6.65032 13.0813 6.97742 12.1169L1.92742 8.32507C0.832122 10.4281 0.261597 12.7501 0.261597 15.1048C0.261597 17.4596 0.832122 19.7816 1.92742 21.8846L6.99544 18.0914Z" fill="#FBBC05"/>
<path d="M15.8793 30.2075C19.6834 30.3116 23.3842 29.0025 26.2211 26.5493L21.2927 22.8577C19.6948 23.8938 17.8024 24.4218 15.8793 24.3681C13.9046 24.3567 11.9837 23.7443 10.3891 22.6177C8.7945 21.491 7.60722 19.9074 6.99567 18.0915L1.94568 21.8847C3.24039 24.3862 5.22958 26.4896 7.6905 27.9596C10.1514 29.4295 12.9869 30.2079 15.8793 30.2075Z" fill="#34A853"/>
</svg>
