<svg width="20" height="19" viewBox="0 0 20 19" fill="none" xmlns="http://www.w3.org/2000/svg">
<path d="M9.99917 0.000615548C11.1758 0.000615548 12.353 -0.00109475 13.5297 0.00118639C14.5106 0.00346753 15.491 0.00574861 16.4719 0.0171543C17.8157 0.032552 18.8304 0.810422 19.1613 2.08615C19.4327 3.13206 19.7473 4.16998 19.9424 5.23242C20.13 6.25152 19.8539 7.17823 19.1962 7.98918C19.1036 8.10324 19.0652 8.21159 19.0652 8.35416C19.0687 10.7374 19.0687 13.1206 19.0675 15.5038C19.0663 17.2848 17.8751 18.6695 16.0868 18.9603C15.8661 18.9963 15.6383 18.9957 15.4135 18.9957C12.8272 18.998 10.2409 18.9974 7.65461 18.9974C6.5869 18.9974 5.51918 19.0043 4.45146 18.9957C2.72203 18.982 1.34442 17.8808 0.996086 16.2441C0.944244 16 0.928517 15.7519 0.928517 15.5021C0.930265 13.1189 0.928517 10.7357 0.932012 8.35245C0.932012 8.20874 0.892403 8.10153 0.800368 7.98747C0.0582663 7.0676 -0.161335 6.02911 0.114768 4.89538C0.343107 3.95612 0.589503 3.02028 0.835317 2.08501C1.17025 0.812133 2.1838 0.0325517 3.52645 0.0177243C4.30409 0.00917001 5.08172 0.0160135 5.85877 0.0160135C7.23871 0.0160135 8.61923 0.0160135 9.99917 0.0160135C9.99917 0.0108809 9.99917 0.00574868 9.99917 0.00118639V0.000615548ZM2.33758 9.09611C2.33292 9.11721 2.32709 9.13089 2.32709 9.14458C2.32709 11.3282 2.31311 13.5124 2.33408 15.696C2.34399 16.7163 3.23404 17.5802 4.27263 17.619C4.96173 17.6447 5.65315 17.6242 6.34283 17.635C6.50418 17.6373 6.51175 17.5637 6.51175 17.4422C6.50884 16.4037 6.51059 15.3653 6.50942 14.3262C6.50942 14.1198 6.52224 13.915 6.54962 13.7097C6.79601 11.8734 8.68796 10.5173 10.5496 10.8463C12.3018 11.1554 13.4831 12.5355 13.486 14.28C13.4877 15.3117 13.4947 16.3433 13.4796 17.3744C13.4761 17.6025 13.5501 17.6413 13.7586 17.6361C14.3248 17.623 14.8921 17.6344 15.4589 17.6299C15.6325 17.6287 15.8096 17.6253 15.9791 17.5917C16.9891 17.3921 17.6689 16.5743 17.6712 15.55C17.6753 13.4514 17.673 11.3527 17.6712 9.25465C17.6712 9.20218 17.691 9.14344 17.6409 9.08755C16.8872 9.34532 16.1224 9.37726 15.3552 9.14743C14.591 8.91875 13.9794 8.47107 13.4947 7.83862C13.4318 7.91048 13.3846 7.96409 13.338 8.01712C12.7672 8.66497 12.0531 9.075 11.1962 9.2364C10.5991 9.34874 9.99334 9.29171 9.39104 9.29342C8.81437 9.29514 8.27264 9.14515 7.76121 8.88624C7.26318 8.63417 6.85077 8.28174 6.5036 7.85231C5.39569 9.17594 4.01401 9.58256 2.33758 9.09496V9.09611ZM9.99567 1.38185C9.13183 1.38185 8.2674 1.38641 7.40356 1.37843C7.22531 1.37672 7.15541 1.40409 7.15658 1.6054C7.16765 2.97009 7.16124 4.33479 7.16299 5.70005C7.16415 6.6895 7.86315 7.58028 8.83883 7.84376C9.41725 8.00002 10.0085 7.93386 10.5939 7.92474C11.8154 7.90535 12.8237 6.89309 12.8301 5.69549C12.8377 4.32338 12.8295 2.95185 12.8365 1.57974C12.8371 1.41949 12.7934 1.37672 12.6309 1.37843C11.7525 1.38641 10.8741 1.38185 9.99509 1.38185H9.99567ZM5.75334 3.7742C5.75334 3.7742 5.74927 3.7742 5.74752 3.7742C5.74752 3.04138 5.74461 2.30856 5.75043 1.57632C5.7516 1.43374 5.71606 1.37729 5.55762 1.379C4.87494 1.38698 4.19167 1.37729 3.50898 1.38413C2.8327 1.39097 2.3568 1.76394 2.18962 2.41007C1.95313 3.32595 1.7213 4.2424 1.48713 5.15885C1.26811 6.01656 1.45393 6.75565 2.12613 7.37213C2.73484 7.93044 3.66917 8.09525 4.45787 7.75936C5.24075 7.42574 5.75975 6.653 5.75451 5.84434C5.74985 5.15429 5.75334 4.46424 5.75334 3.7742ZM14.2386 3.74454C14.2386 3.74454 14.2351 3.74454 14.2333 3.74454C14.2333 4.41292 14.2333 5.08072 14.2333 5.7491C14.2333 5.99945 14.266 6.24468 14.3475 6.48249C14.718 7.56375 15.8777 8.16426 16.9944 7.85231C18.1547 7.52839 18.8211 6.39922 18.5304 5.23413C18.2963 4.29658 18.0528 3.36131 17.8099 2.42547C17.6351 1.75311 17.1645 1.38812 16.4614 1.38299C15.7933 1.37786 15.1251 1.38641 14.4576 1.37843C14.2916 1.37672 14.2322 1.41664 14.2345 1.59C14.2444 2.30799 14.2386 3.02598 14.2386 3.74397V3.74454ZM9.99218 17.6321C10.6312 17.6321 11.2702 17.6287 11.9092 17.635C12.049 17.6361 12.095 17.6008 12.0944 17.4576C12.0886 16.3701 12.0997 15.282 12.088 14.1945C12.0758 13.0647 11.1345 12.1648 9.99334 12.1699C8.84699 12.1756 7.91849 13.0733 7.908 14.2042C7.8981 15.2848 7.908 16.365 7.90217 17.4457C7.90101 17.5962 7.94703 17.6367 8.09731 17.635C8.72874 17.6276 9.36075 17.6316 9.99218 17.6316V17.6321Z" fill="#32343E"/>
</svg>
