<svg width="287" height="296" viewBox="0 0 287 296" fill="none" xmlns="http://www.w3.org/2000/svg">
<path d="M30.1495 129.132C30.1495 129.132 80.57 127.116 91.4659 44.3685C101.142 -29.1192 186.164 4.32973 210.741 33.6237C242.578 71.5715 225.606 136.85 266.791 145.096C307.976 153.343 281.082 245.03 218.565 236.254C140.797 225.337 159.612 270.707 136.267 289.911C119.512 303.693 50.8118 290.426 48.5222 240.395C46.5954 198.294 28.8079 198.427 16.2 193.654C-1.98349 186.769 -13.4411 136.906 30.1495 129.132Z" fill="#F0F5FA"/>
<path d="M208.891 233.089L157.011 180.223L146.738 190.944L198.618 243.81L208.891 233.089Z" fill="#EB252D"/>
<path d="M228.71 247.294L188.347 206.164C188.122 205.935 187.76 205.937 187.538 206.169L172.261 222.112C172.039 222.344 172.041 222.718 172.265 222.947L212.629 264.076C212.853 264.305 213.215 264.303 213.438 264.071L228.715 248.128C228.937 247.896 228.935 247.523 228.71 247.294Z" fill="#E52823"/>
<path d="M111.029 206.81C146.721 206.81 175.656 176.972 175.656 140.165C175.656 103.359 146.721 73.5206 111.029 73.5206C75.3371 73.5206 46.4029 103.359 46.4029 140.165C46.4029 176.972 75.3371 206.81 111.029 206.81Z" fill="#E52823"/>
<path d="M111.029 195.936C140.898 195.936 165.111 170.967 165.111 140.166C165.111 109.365 140.898 84.3953 111.029 84.3953C81.161 84.3953 56.9479 109.365 56.9479 140.166C56.9479 170.967 81.161 195.936 111.029 195.936Z" fill="white"/>
<circle cx="108.698" cy="131.01" r="9.19239" stroke="#EB2830" stroke-width="5" stroke-linecap="round" stroke-linejoin="round"/>
<path d="M130.147 130.244C130.147 147.479 108.698 164.715 108.698 164.715C108.698 164.715 87.2491 147.479 87.2491 130.244C87.2491 118.821 96.8521 109.561 108.698 109.561C120.544 109.561 130.147 118.821 130.147 130.244Z" stroke="#EB2830" stroke-width="5" stroke-linecap="round" stroke-linejoin="round"/>
<path d="M210.059 14.6224C195.585 9.93827 179.943 17.8605 175.232 32.371C170.541 46.822 178.475 62.4391 193.009 67.1421C207.543 71.8452 223.145 63.8453 227.837 49.3936C232.53 34.9418 224.534 19.3064 210.059 14.6224ZM205.692 28.0755C207.312 28.5998 208.74 29.5927 209.794 30.9283C210.848 32.2638 211.481 33.8819 211.613 35.5772C211.745 37.2725 211.369 38.9687 210.534 40.4506C209.699 41.9325 208.442 43.1334 206.922 43.901C205.402 44.6686 203.688 44.9682 201.998 44.762C200.307 44.5557 198.716 43.8528 197.426 42.7425C196.136 41.6321 195.206 40.1643 194.753 38.5252C194.3 36.8861 194.344 35.1495 194.881 33.5358C196.33 29.0711 201.219 26.6284 205.692 28.0755ZM194.764 61.7374C189.955 60.1892 185.835 57.02 183.109 52.7725C188.21 49.8789 193.543 49.0729 198.369 50.6343C203.194 52.1958 207.117 55.9321 209.47 61.3028C204.767 63.1464 199.568 63.3 194.764 61.7374Z" fill="#E52823"/>
<path d="M111.674 224.903C107.98 226.786 104.928 229.72 102.905 233.335C100.881 236.95 99.9761 241.082 100.304 245.211C100.633 249.339 102.18 253.277 104.75 256.528C107.319 259.778 110.797 262.194 114.742 263.471C118.687 264.748 122.923 264.828 126.913 263.701C130.904 262.574 134.47 260.291 137.161 257.14C139.852 253.989 141.547 250.111 142.032 245.999C142.516 241.886 141.768 237.722 139.883 234.033C137.35 229.091 132.958 225.355 127.669 223.643C122.381 221.931 116.628 222.385 111.674 224.903ZM116.558 234.457C117.708 233.871 119.007 233.639 120.29 233.791C121.573 233.942 122.781 234.471 123.763 235.31C124.744 236.149 125.454 237.26 125.802 238.502C126.15 239.744 126.121 241.061 125.718 242.287C125.315 243.512 124.557 244.591 123.539 245.385C122.522 246.18 121.291 246.655 120.003 246.75C118.715 246.845 117.427 246.556 116.304 245.919C115.181 245.282 114.272 244.327 113.693 243.174C112.926 241.637 112.797 239.86 113.333 238.228C113.869 236.596 115.028 235.241 116.558 234.457V234.457ZM128.778 258.364C125.368 260.109 121.456 260.615 117.713 259.797C118.894 255.513 121.321 252.225 124.748 250.479C128.175 248.732 132.285 248.635 136.431 250.256C134.899 253.763 132.193 256.629 128.778 258.363V258.364Z" fill="#E52823"/>
</svg>
