<svg width="160" height="166" viewBox="0 0 160 166" fill="none" xmlns="http://www.w3.org/2000/svg">
<path d="M16.838 72.7792C16.838 72.7792 44.997 71.6534 51.0822 25.4402C56.4861 -15.6015 103.97 3.07922 117.695 19.4394C135.476 40.6327 125.998 77.0896 148.999 81.6951C172 86.3007 156.98 137.506 122.065 132.605C78.6328 126.508 89.1409 151.847 76.1028 162.572C66.7456 170.269 28.3776 162.86 27.0989 134.918C26.0228 111.405 16.0887 111.48 9.04743 108.814C-1.10775 104.968 -7.50663 77.1211 16.838 72.7792Z" fill="#D0D9E1"/>
<path d="M116.662 130.837L87.688 101.312L81.9506 107.3L110.925 136.825L116.662 130.837Z" fill="#EB252D"/>
<path d="M127.731 138.771L105.189 115.8C105.063 115.673 104.861 115.674 104.737 115.803L96.2048 124.707C96.0808 124.837 96.082 125.045 96.2075 125.173L118.75 148.144C118.875 148.272 119.077 148.27 119.201 148.141L127.734 139.237C127.858 139.107 127.856 138.899 127.731 138.771Z" fill="#E52823"/>
<path d="M62.0083 116.161C81.9418 116.161 98.1011 99.4974 98.1011 78.9413C98.1011 58.3852 81.9418 41.7212 62.0083 41.7212C42.0748 41.7212 25.9155 58.3852 25.9155 78.9413C25.9155 99.4974 42.0748 116.161 62.0083 116.161Z" fill="#E52823"/>
<path d="M62.0083 110.088C78.6892 110.088 92.2118 96.1433 92.2118 78.9414C92.2118 61.7394 78.6892 47.7944 62.0083 47.7944C45.3273 47.7944 31.8047 61.7394 31.8047 78.9414C31.8047 96.1433 45.3273 110.088 62.0083 110.088Z" fill="#D0D9E1"/>
<circle cx="61.5" cy="74.75" r="5.625" stroke="#EB2830" stroke-width="3" stroke-linecap="round" stroke-linejoin="round"/>
<path d="M74.625 74.2812C74.625 84.8281 61.5 95.375 61.5 95.375C61.5 95.375 48.375 84.8281 48.375 74.2812C48.375 67.2914 54.2513 61.625 61.5 61.625C68.7487 61.625 74.625 67.2914 74.625 74.2812Z" stroke="#EB2830" stroke-width="3" stroke-linecap="round" stroke-linejoin="round"/>
<path d="M117.315 8.82759C109.231 6.21158 100.495 10.636 97.8642 18.7399C95.244 26.8105 99.6755 35.5324 107.792 38.159C115.909 40.7856 124.623 36.3178 127.243 28.2467C129.864 20.1757 125.399 11.4435 117.315 8.82759ZM114.875 16.3409C115.78 16.6337 116.578 17.1883 117.166 17.9342C117.755 18.6801 118.109 19.5837 118.182 20.5305C118.256 21.4773 118.046 22.4246 117.58 23.2522C117.113 24.0799 116.411 24.7505 115.562 25.1792C114.714 25.6079 113.757 25.7752 112.812 25.6601C111.868 25.5449 110.98 25.1523 110.259 24.5322C109.539 23.9121 109.019 23.0923 108.766 22.1769C108.513 21.2615 108.538 20.2917 108.838 19.3904C109.647 16.8969 112.378 15.5327 114.875 16.3409ZM108.772 35.1406C106.087 34.2759 103.786 32.506 102.263 30.1338C105.112 28.5178 108.091 28.0676 110.785 28.9397C113.48 29.8117 115.671 31.8984 116.986 34.8979C114.359 35.9274 111.455 36.0133 108.772 35.1406Z" fill="#E52823"/>
<path d="M62.3684 126.266C60.3055 127.318 58.6012 128.956 57.4709 130.975C56.3407 132.994 55.8353 135.302 56.0187 137.607C56.2021 139.913 57.066 142.112 58.5012 143.928C59.9364 145.743 61.8785 147.092 64.0817 147.806C66.285 148.519 68.6506 148.563 70.8793 147.934C73.108 147.304 75.0997 146.029 76.6026 144.269C78.1055 142.51 79.0521 140.344 79.3226 138.047C79.5932 135.75 79.1756 133.425 78.1226 131.365C76.7081 128.605 74.2549 126.518 71.3014 125.562C68.3479 124.606 65.1353 124.859 62.3684 126.266ZM65.096 131.602C65.7385 131.274 66.4639 131.145 67.1803 131.23C67.8967 131.314 68.5717 131.61 69.1197 132.078C69.6678 132.546 70.0641 133.167 70.2586 133.861C70.453 134.554 70.4367 135.29 70.2117 135.974C69.9868 136.659 69.5634 137.261 68.9951 137.705C68.4269 138.149 67.7394 138.414 67.02 138.467C66.3006 138.52 65.5816 138.359 64.9542 138.003C64.3269 137.648 63.8194 137.114 63.4962 136.47C63.0678 135.611 62.9955 134.619 63.295 133.708C63.5944 132.796 64.2415 132.04 65.096 131.601V131.602ZM71.9206 144.953C70.0161 145.928 67.8315 146.211 65.7411 145.753C66.4006 143.361 67.7562 141.525 69.67 140.549C71.5839 139.574 73.8793 139.52 76.195 140.425C75.3392 142.384 73.8282 143.984 71.9206 144.953V144.953Z" fill="#E52823"/>
</svg>
