<svg width="174" height="236" viewBox="0 0 174 236" fill="none" xmlns="http://www.w3.org/2000/svg">
<path d="M156.443 107.648C152.755 105.153 148.521 104.861 148.521 104.861C148.521 104.861 146.782 94.699 136.335 91.3767C127.304 88.5043 121.194 92.9025 121.194 92.9025C121.194 92.9025 118.061 89.6055 111.888 88.841C103.867 87.8468 98.5298 93.0473 98.5298 93.0473L93.6666 90.7192C93.6666 90.7192 92.4165 81.2841 82.9208 78.9843C76.6922 77.4773 72.6956 80.5101 72.6956 80.5101C72.6956 80.5101 67.4926 76.0679 60.8961 77.3735C57.0679 78.1317 54.1063 80.183 52.2296 83.392C50.5555 86.2549 50.5368 89.9452 50.5368 89.9452C50.5368 89.9452 36.1 90.8859 22.695 103.508C6.53725 118.726 7.01422 139.965 7.21997 143.186C7.63459 148.126 11.3288 149.692 11.3288 149.692C11.3288 149.692 13.7479 165.096 21.7098 170.705C22.352 171.158 23.0223 171.551 23.7019 171.888C26.1584 176.547 29.6313 181.348 34.0518 186.184C39.7193 192.378 46.6057 198.085 54.524 203.141C64.2879 209.377 75.6696 214.653 88.3545 218.812C88.9624 219.013 89.5953 219.114 90.2312 219.114C90.9856 219.114 91.7245 218.972 92.4602 218.686C93.0213 218.462 106.14 213.155 120.795 202.77C121.879 205.431 124.473 207.313 127.5 207.313C131.497 207.313 134.745 204.031 134.745 199.998C134.745 199.545 134.698 199.105 134.62 198.674C134.742 198.671 134.864 198.674 134.988 198.667C143.954 198.076 149.428 192.47 150.912 187.184C152.477 181.609 150.413 175.651 150.413 175.651C150.413 175.651 155.554 173.055 157.78 166.398C159.014 162.711 158.463 158.703 158.463 158.703C158.463 158.703 162.372 150.907 164.03 146.348C169.975 129.988 166.739 114.62 156.443 107.648Z" fill="white"/>
<path d="M49.1995 68.1209C54.5677 68.1209 58.6048 65.1322 59.8923 60.0607H53.8382C53.1087 61.6211 51.3037 62.9205 49.1995 62.9205C46.0633 62.9205 43.532 60.0166 43.532 56.5056C43.532 52.9096 46.0664 49.9618 49.1995 49.9618C51.2601 49.9618 53.0214 51.2611 53.7946 52.7775H59.8486C58.5611 47.7501 54.5241 44.7173 49.1995 44.7173C42.5437 44.7173 37.7772 50.0027 37.7772 56.4616C37.7772 62.9205 42.5437 68.1209 49.1995 68.1209ZM63.2778 39.608V58.1982C63.2778 64.3079 66.7132 68.2531 73.1975 67.5578V62.3573C70.3638 62.5304 68.9453 61.36 68.9453 58.2422V50.355H72.9388V45.2836H68.9453V39.608H63.2778ZM119.834 42.515C121.399 42.515 122.668 41.2346 122.668 39.6552C122.668 38.0759 121.399 36.7954 119.834 36.7954C118.269 36.7954 117.001 38.0759 117.001 39.6552C117.001 41.2346 118.269 42.515 119.834 42.515ZM133.47 54.5582C133.47 52.0445 135.275 50.311 137.763 50.311C141.498 50.311 141.928 53.2998 141.928 54.5582V67.6018H147.595V54.6872C147.595 48.8386 143.945 44.7204 137.763 44.7204C131.752 44.7204 127.803 49.0117 127.803 54.6872V67.6018H133.47V54.5582ZM117.029 67.6018H122.696V45.2867H117.029V67.6018ZM101.488 54.6872V67.6018H107.156V54.6872C107.156 51.5254 109.559 49.5748 113.166 50.2229V44.8494C105.825 43.9402 101.488 48.3604 101.488 54.6872ZM43.4447 20.8102H36.711V31.1514H31.2586V2.21378H43.3231C49.3148 2.21378 52.7845 5.88525 52.7845 11.5545C52.7845 16.9343 49.1059 20.8102 43.4447 20.8102ZM36.711 7.34188V15.7639H43.2794C45.8014 15.7639 47.329 14.4709 47.329 11.5513C47.329 8.63177 45.8014 7.34188 43.2794 7.34188H36.711ZM75.6759 20.4359C75.6759 26.857 70.8407 31.6516 64.9332 31.6516C59.0256 31.6516 54.231 26.857 54.231 20.4359C54.231 14.0147 59.0256 9.13515 64.9332 9.13515C70.8438 9.13515 75.6759 14.0147 75.6759 20.4359ZM70.183 20.4768C70.183 16.7644 67.8262 14.1815 64.9363 14.1815C62.0433 14.1815 59.6896 16.7675 59.6896 20.4768C59.6896 24.1042 62.0433 26.6053 64.9363 26.6053C67.8262 26.6085 70.183 24.1042 70.183 20.4768ZM84.9783 31.1514H79.5259V0.12793H84.9783V31.1514ZM95.8021 31.1514H90.3497V0.12793H95.8021V31.1514ZM121.05 20.4359C121.05 26.857 116.215 31.6516 110.308 31.6516C104.4 31.6516 99.6054 26.857 99.6054 20.4359C99.6054 14.0147 104.4 9.13515 110.308 9.13515C116.215 9.13515 121.05 14.0147 121.05 20.4359ZM115.554 20.4768C115.554 16.7644 113.197 14.1815 110.308 14.1815C107.415 14.1815 105.061 16.7675 105.061 20.4768C105.061 24.1042 107.415 26.6053 110.308 26.6053C113.197 26.6085 115.554 24.1042 115.554 20.4768ZM133.405 31.6516C127.993 31.6516 123.984 28.773 123.323 24.1451H128.859C129.605 25.9792 131.793 26.6462 133.405 26.6462C135.596 26.6462 137.248 25.9792 137.248 24.7271C137.248 23.519 136.503 23.0188 132.787 22.4336C128.987 21.8484 123.903 20.8071 123.903 16.0125C123.903 12.6336 126.836 9.132 132.993 9.132C137.869 9.132 141.504 11.7999 142.208 15.8457H136.547C136.217 14.8453 135.016 14.0525 132.993 14.0525C130.471 14.0525 129.439 14.9711 129.439 15.7608C129.439 16.8871 131.01 17.2615 133.654 17.6799C138.944 18.5545 142.745 19.7217 142.745 24.3936C142.745 28.6503 138.86 31.6516 133.405 31.6516ZM75.5138 56.4647C75.5138 63.1375 80.4954 68.1209 86.6337 68.1209C92.775 68.1209 97.7972 63.1375 97.7972 56.4647C97.7972 49.7919 92.775 44.7204 86.6337 44.7204C80.4954 44.7204 75.5138 49.7919 75.5138 56.4647ZM86.6368 49.9649C89.642 49.9649 92.0892 52.6517 92.0892 56.5088C92.0892 60.2778 89.642 62.8796 86.6368 62.8796C83.6316 62.8796 81.1844 60.2809 81.1844 56.5088C81.1813 52.6517 83.6285 49.9649 86.6368 49.9649ZM86.244 228.341C84.2364 228.341 82.5873 230.046 82.5873 232.129C82.5873 234.212 84.2333 235.889 86.244 235.889C88.0178 235.889 89.2773 234.898 89.6919 233.428H87.7404C87.4349 234.001 86.8394 234.268 86.2315 234.268C85.3711 234.268 84.6791 233.724 84.4453 232.843H89.8322C90.094 229.99 88.3514 228.341 86.244 228.341ZM84.4733 231.333C84.7352 230.496 85.3992 229.965 86.2315 229.965C87.1044 229.965 87.7965 230.496 88.0178 231.333H84.4733ZM104.475 225.897C102.523 225.897 101.111 227.294 101.111 229.222C101.111 231.151 102.551 232.478 104.338 232.478C105.086 232.478 105.846 232.17 106.236 231.695C106.168 233.274 105.653 234.196 104.45 234.196C103.826 234.196 103.44 233.888 103.3 233.51H101.332C101.666 234.935 102.829 235.885 104.434 235.885C106.928 235.885 108.051 233.872 108.022 230.433C107.979 227.098 106.277 225.897 104.475 225.897ZM104.475 230.899C103.549 230.899 102.925 230.144 102.925 229.222C102.925 228.285 103.549 227.517 104.475 227.517C105.404 227.517 106.027 228.288 106.027 229.222C106.027 230.144 105.404 230.899 104.475 230.899ZM96.5939 227.756V228.958H98.0903V235.722H99.9171V226.023H98.4488C98.3521 227.224 97.4512 227.74 96.5939 227.756ZM114.388 230.493C115.012 230.018 115.386 229.32 115.386 228.508C115.386 227.014 114.083 225.893 112.353 225.893C110.622 225.893 109.335 227.014 109.335 228.508C109.335 229.32 109.709 230.018 110.332 230.509C109.472 231.025 108.933 231.906 108.933 232.925C108.933 234.618 110.414 235.889 112.353 235.889C114.304 235.889 115.788 234.618 115.788 232.925C115.788 231.877 115.261 231.012 114.388 230.493ZM112.353 227.489C112.976 227.489 113.656 227.838 113.656 228.621C113.656 229.376 113.004 229.782 112.353 229.782C111.717 229.782 111.065 229.376 111.065 228.621C111.065 227.838 111.729 227.489 112.353 227.489ZM112.353 234.281C111.564 234.281 110.707 233.834 110.707 232.84C110.707 231.846 111.536 231.415 112.353 231.415C113.185 231.415 114.014 231.849 114.014 232.84C114.014 233.831 113.157 234.281 112.353 234.281ZM162.665 44.7204C155.969 44.7204 151.286 50.0058 151.286 56.4647C151.286 62.8796 156.053 68.08 161.892 68.08C163.697 68.08 165.377 67.6301 166.799 66.7681V61.0863C165.757 62.1371 164.367 62.7946 162.827 62.7946C159.604 62.7946 156.997 60.0638 156.997 56.5119C156.997 52.8279 159.604 50.0971 162.827 50.0971C165.901 50.0971 168.385 52.7083 168.613 56.0306L168.635 56.0337V56.2822C168.638 56.3609 168.657 56.4333 168.657 56.5088C168.657 56.5843 168.638 56.6566 168.635 56.7321V67.6018H174.003V56.4647C174 50.009 169.321 44.7204 162.665 44.7204ZM120.636 232.352C122.285 231.443 123.516 230.732 123.516 228.901C123.516 227.489 122.519 225.978 120.302 225.978C118.101 225.978 116.951 227.643 116.951 229.417H118.793C118.793 228.423 119.361 227.684 120.318 227.684C121.287 227.684 121.689 228.244 121.689 228.885C121.689 229.458 121.509 229.905 119.722 230.871C118.254 231.667 116.826 232.714 116.826 234.894V235.719H123.488V234.001H118.862C118.918 233.416 119.666 232.884 120.636 232.352ZM30.9468 42.4332C32.49 42.4332 33.7401 41.1716 33.7401 39.6143C33.7401 38.057 32.49 36.7954 30.9468 36.7954C29.4037 36.7954 28.1536 38.057 28.1536 39.6143C28.1536 41.1716 29.4037 42.4332 30.9468 42.4332ZM25.6347 37.5285H19.6212L12.8376 60.7119L6.01043 37.5285H0L9.78877 67.6018H15.8865L25.6347 37.5285ZM54.0003 226.023H50.4402V235.722H54.0003C56.6314 235.722 58.3336 233.834 58.3336 230.871C58.3336 227.879 56.672 226.023 54.0003 226.023ZM54.0003 234.001H52.2701V227.74H54.0003C56.0641 227.74 56.5067 229.433 56.5067 230.858C56.5067 232.032 56.1732 234.001 54.0003 234.001ZM33.7868 45.2836H28.1193V67.5987H33.7868V45.2836ZM70.6973 231.207C69.812 231.066 69.2851 230.943 69.2851 230.562C69.2851 230.298 69.6312 229.99 70.476 229.99C71.1556 229.99 71.5578 230.254 71.6669 230.591H73.5654C73.3316 229.235 72.1127 228.341 70.476 228.341C68.4123 228.341 67.4303 229.515 67.4303 230.647C67.4303 232.255 69.1324 232.604 70.4074 232.799C71.6544 232.994 71.9038 233.161 71.9038 233.567C71.9038 233.985 71.3489 234.209 70.6163 234.209C70.077 234.209 69.3412 233.985 69.0919 233.372H67.237C67.4583 234.923 68.8019 235.889 70.6163 235.889C72.4431 235.889 73.7462 234.882 73.7462 233.457C73.7431 231.893 72.468 231.5 70.6973 231.207ZM62.8601 228.341C60.8525 228.341 59.2033 230.046 59.2033 232.129C59.2033 234.212 60.8525 235.889 62.8601 235.889C64.6339 235.889 65.8934 234.898 66.308 233.428H64.3565C64.0509 234.001 63.4555 234.268 62.8476 234.268C61.9903 234.268 61.2951 233.724 61.0613 232.843H66.4483C66.7101 229.99 64.9644 228.341 62.8601 228.341ZM61.0863 231.333C61.3481 230.496 62.0153 229.965 62.8445 229.965C63.7174 229.965 64.4095 230.496 64.6308 231.333H61.0863ZM79.8626 229.209C79.3077 228.678 78.5876 228.369 77.7583 228.369C75.9035 228.369 74.3666 229.99 74.3666 232.129C74.3666 234.253 75.9035 235.876 77.7583 235.876C78.6312 235.876 79.3794 235.539 79.9468 234.954V235.725H81.6926V225.324H79.8657V229.209H79.8626ZM78.0358 234.171C77.0257 234.171 76.209 233.29 76.209 232.145C76.209 230.971 77.0257 230.078 78.0358 230.078C79.0458 230.078 79.8626 231 79.8626 232.145C79.8626 233.262 79.0458 234.171 78.0358 234.171ZM153.459 111.782C149.609 109.136 145.703 110.071 144.665 110.275C143.985 110.414 143.932 110.2 143.929 109.998C143.711 102.964 140.154 97.7664 134.798 96.206C129.792 94.7493 125.851 95.5641 120.826 99.0154C120.386 98.9588 120.074 99.3678 119.675 98.8707C117.771 96.5803 115.548 94.334 111.202 93.837C105.634 93.1983 101.336 96.2185 98.3771 101.07C98.1028 100.419 97.7536 99.8051 97.3265 99.2325C95.057 96.1808 92.7096 95.5421 91.1415 95.5421C90.3341 95.5421 89.6046 95.7057 88.9842 95.9291C89.0902 91.4176 87.7154 85.2199 81.7954 83.9205C81.0036 83.7475 80.2367 83.6594 79.5103 83.6594C75.7632 83.6594 73.5124 85.9938 72.3122 88.3596C72.0659 87.8846 71.7822 87.3843 71.4518 86.8873C69.0388 83.2347 65.6284 81.6365 61.7285 82.3475C59.3467 82.7816 57.5854 83.9834 56.4912 85.9183C55.1694 88.259 55.5809 92.0154 55.9051 94.2994C55.955 94.6549 55.6806 94.9664 55.3252 94.9475C54.4835 94.9003 52.903 94.872 50.7769 95.1143C50.8455 95.4289 50.8642 95.7592 50.7987 96.099C50.5618 97.3543 49.4302 98.166 48.2673 97.908C47.4849 97.7349 46.9113 97.1183 46.6868 96.3475C46.6057 96.0707 46.3065 95.9197 46.029 95.992C44.6262 96.3507 43.1049 96.832 41.5025 97.4486C41.6521 97.8545 41.7363 98.2949 41.649 98.7574C41.4121 100.013 40.2805 100.824 39.1208 100.566C38.3975 100.406 37.8707 99.8522 37.6057 99.1664C34.8 100.573 31.8166 102.451 28.7553 104.917C28.5215 105.106 28.4435 105.477 28.6368 105.707C29.0826 106.236 29.3008 106.975 29.1574 107.73C28.9205 108.985 27.7889 109.797 26.6292 109.539C25.9091 109.382 25.3853 108.831 25.1172 108.152C21.8907 111.307 19.4466 114.746 17.6198 118.219C17.9409 118.719 18.0843 119.352 17.9627 119.997C17.7819 120.95 17.0805 121.614 16.245 121.771C16.0424 121.809 15.8615 121.931 15.7836 122.123C15.21 123.539 14.7424 124.933 14.3309 126.298C15.1819 126.754 15.7026 127.749 15.503 128.806C15.316 129.803 14.5585 130.492 13.6731 130.608C13.4112 130.643 13.1774 130.813 13.1275 131.074C12.7784 132.851 12.5539 134.494 12.4043 135.975C12.4635 135.982 12.5165 135.963 12.5758 135.975C13.7354 136.23 14.4867 137.457 14.2498 138.713C14.0441 139.807 13.1462 140.518 12.1518 140.525C12.1393 142.12 12.2173 143.082 12.2173 143.082C12.1331 143.982 12.6288 144.873 13.4985 145.036C14.3776 145.2 15.104 144.829 15.6246 144.3C15.6277 144.297 15.6277 144.294 15.6309 144.294C15.7057 145.046 15.793 145.791 15.9083 146.534C17.1116 154.238 20.0639 163.39 24.5405 166.521C25.3573 167.093 26.2644 167.568 27.2932 167.88C28.827 171.111 31.7854 176.239 37.6867 182.692C43.0519 188.559 49.5954 193.977 57.1365 198.793C66.5356 204.796 77.5245 209.883 89.7979 213.91C89.9101 213.948 90.0255 213.967 90.1408 213.967C90.278 213.967 90.4152 213.942 90.5461 213.888C90.6801 213.835 104.116 208.43 118.7 197.925C121.222 196.106 123.635 194.244 125.932 192.337C126.082 192.212 126.297 192.183 126.481 192.246C128.336 192.885 129.04 192.97 131.151 193.294C132.363 193.479 133.479 193.63 134.499 193.564C141.622 193.099 145.104 188.817 145.962 185.731C147.056 181.782 145.475 176.365 143.848 173.467C143.558 172.948 143.823 172.47 144.403 172.347C148.895 171.394 151.692 168.452 152.879 164.778C153.821 161.868 153.278 158.63 153.113 157.803C153.085 157.661 153.113 157.536 153.188 157.416C155.573 153.572 157.633 149.091 159.145 144.681C164.479 129.092 160.925 116.91 153.459 111.782ZM95.1817 129.432C95.8769 127.248 96.2978 124.926 96.4006 122.517C96.4193 122.076 96.8838 121.818 97.2548 122.051C99.4433 123.442 101.579 124.813 103.262 125.914C103.642 126.163 103.593 126.726 103.178 126.909C101.148 127.808 98.5704 128.957 95.9361 130.13C95.4841 130.331 95.0321 129.904 95.1817 129.432ZM48.8971 120.327C50.0568 120.582 50.8081 121.809 50.5711 123.064C50.3342 124.319 49.2026 125.131 48.0429 124.873C46.8832 124.618 46.1319 123.391 46.3688 122.136C46.6026 120.884 47.7374 120.072 48.8971 120.327ZM47.0515 131.7C46.8146 132.955 45.683 133.767 44.5233 133.509C43.3636 133.254 42.6123 132.027 42.8492 130.772C43.0862 129.517 44.2178 128.705 45.3806 128.963C46.5403 129.221 47.2885 130.448 47.0515 131.7ZM43.0893 105.399C43.3262 104.143 44.4578 103.335 45.6175 103.59C46.7772 103.845 47.5285 105.072 47.2916 106.327C47.0547 107.582 45.923 108.394 44.7602 108.136C43.6036 107.878 42.8523 106.654 43.0893 105.399ZM40.8665 114.736C41.1035 113.481 42.2351 112.669 43.3948 112.927C44.5545 113.182 45.3058 114.409 45.0689 115.664C44.8319 116.92 43.7003 117.731 42.5375 117.473C41.3778 117.215 40.6296 115.992 40.8665 114.736ZM40.561 121.573C41.7207 121.828 42.472 123.055 42.2351 124.31C41.9982 125.565 40.8665 126.377 39.7068 126.119C38.5472 125.864 37.7959 124.637 38.0328 123.382C38.2666 122.126 39.4013 121.318 40.561 121.573ZM38.6532 133.531C38.4162 134.786 37.2846 135.598 36.1249 135.34C34.9652 135.085 34.2139 133.858 34.4508 132.603C34.6878 131.348 35.8194 130.536 36.9791 130.794C38.1419 131.052 38.8901 132.276 38.6532 133.531ZM33.8149 106.078C34.083 105.065 34.9933 104.351 35.9659 104.405C37.375 104.48 38.3165 105.934 37.9361 107.368C37.668 108.381 36.7578 109.092 35.7851 109.042C34.376 108.966 33.4346 107.513 33.8149 106.078ZM32.0099 115.274C32.2468 114.019 33.3784 113.207 34.5381 113.465C35.6978 113.72 36.4491 114.947 36.2122 116.202C35.9753 117.458 34.8436 118.269 33.684 118.011C32.5211 117.757 31.773 116.53 32.0099 115.274ZM28.2752 125.628C28.5121 124.373 29.6437 123.561 30.8034 123.819C31.9631 124.077 32.7144 125.301 32.4775 126.556C32.2406 127.811 31.1089 128.623 29.9461 128.365C28.7865 128.107 28.0383 126.883 28.2752 125.628ZM30.4044 135.56C30.1675 136.816 29.0358 137.627 27.8762 137.369C26.7165 137.114 25.9652 135.887 26.2021 134.632C26.439 133.377 27.5707 132.565 28.7303 132.823C29.89 133.081 30.6413 134.305 30.4044 135.56ZM22.9225 116.385C23.1595 115.13 24.2911 114.318 25.4539 114.576C26.6136 114.831 27.3649 116.058 27.128 117.313C26.891 118.568 25.7594 119.38 24.5997 119.122C23.4338 118.864 22.6856 117.64 22.9225 116.385ZM19.6835 125.172C19.9205 123.917 21.0521 123.105 22.2118 123.363C23.3715 123.618 24.1228 124.845 23.8858 126.1C23.6489 127.355 22.5173 128.167 21.3576 127.909C20.1979 127.654 19.4466 126.427 19.6835 125.172ZM17.5325 134.635C17.7694 133.38 18.901 132.568 20.0607 132.826C21.2204 133.081 21.9717 134.308 21.7348 135.563C21.4979 136.819 20.3662 137.63 19.2066 137.372C18.0469 137.114 17.2956 135.891 17.5325 134.635ZM150.441 152.48C150.46 152.505 150.479 152.53 150.441 152.48C146.626 147.138 138.704 146.383 137.439 147.887C136.806 148.638 144.584 150.234 148.047 155.1C151.059 159.332 150.145 164.614 145.687 167.619C142.536 169.745 139.1 168.861 138.608 170.375C138.124 171.853 144.309 179.303 142.464 184.545C141.476 187.354 139.197 190.799 131.621 189.644C112.056 186.649 96.9025 162.856 95.5714 164.02C94.8419 164.658 98.9507 172.558 102.364 176.963C107.156 183.145 111.76 188.056 116.533 191.233C116.87 191.457 116.864 191.944 116.533 192.171C104.422 200.483 93.2832 205.661 90.4869 206.913C90.3653 206.967 90.2686 206.973 90.1377 206.938C85.6766 205.652 60.8275 197.922 42.7994 180.779C39.2611 177.353 35.9129 173.398 33.3504 169.613C33.1602 169.333 33.2756 168.968 33.5686 168.799C34.9746 167.987 35.9379 166.713 36.6767 164.872C36.7952 164.576 37.1131 164.425 37.4031 164.545C38.4287 164.96 39.7224 165.316 41.1409 165.316C42.9739 165.316 44.6636 164.734 46.16 163.592C49.2057 161.261 50.4651 158.888 50.9733 157.152C51.815 157.347 52.6661 157.447 53.5265 157.447C56.2168 157.447 59.3156 155.201 59.3623 154.087C59.4028 153.137 56.3976 153.04 56.0017 153.04C52.4011 153.04 49.5112 150.054 49.4863 150.029C48.9875 149.5 48.2424 149.356 47.6064 149.661C46.9674 149.966 46.5683 150.665 46.5964 151.42C46.5995 151.479 46.7772 157.303 43.1547 158.813C42.6996 159.002 42.2538 159.096 41.7955 159.096C39.4201 159.096 37.2503 156.409 36.6206 155.381C36.2496 154.767 35.5762 154.449 34.906 154.575C34.2357 154.701 33.7027 155.245 33.5437 155.959C33.5312 156.016 32.1533 161.843 28.5651 163.526C28.5558 163.529 28.5495 163.535 28.5402 163.538C28.5308 163.541 28.5246 163.545 28.5152 163.551C27.7515 163.941 27.075 163.894 26.3206 163.387C23.5928 161.563 20.3444 154.758 19.4684 148.019L19.4778 147.971C19.4778 147.971 21.5976 142.607 30.1457 140.179C36.075 138.492 42.8399 138.731 48.2798 139.427C47.8153 138.895 47.5597 138.165 47.7062 137.394C47.9431 136.139 49.0748 135.327 50.2344 135.585C51.3941 135.843 52.1454 137.067 51.9085 138.322C51.7869 138.967 51.4253 139.487 50.9483 139.814C52.5756 140.081 54.0034 140.371 55.1756 140.635C55.132 140.361 55.1226 140.078 55.1756 139.789C55.4125 138.533 56.5442 137.722 57.7038 137.98C58.8635 138.238 59.6148 139.461 59.3779 140.717C59.3343 140.949 59.2314 141.148 59.1316 141.343C61.5321 141.019 60.8182 138.131 59.0724 135.447C58.2057 134.119 57.4077 132.716 56.6751 131.222C56.2979 132.005 55.5372 132.537 54.7049 132.493C53.2958 132.417 52.3543 130.964 52.7346 129.529C53.0027 128.516 53.913 127.802 54.8857 127.855C55.0291 127.862 55.1444 127.94 55.2785 127.975C54.3962 125.615 53.6823 123.004 53.2085 119.99C52.9778 118.521 52.8344 117.156 52.7409 115.856C52.3013 116.133 51.7776 116.265 51.2383 116.146C50.0786 115.891 49.3273 114.664 49.5642 113.409C49.8011 112.153 50.9328 111.342 52.0956 111.6C52.2951 111.644 52.4634 111.751 52.6349 111.848C52.691 109.57 52.9342 107.595 53.2895 105.912C53.062 105.943 52.8313 105.962 52.5975 105.908C51.4378 105.654 50.6865 104.427 50.9234 103.171C51.1603 101.916 52.292 101.104 53.4548 101.362C53.8476 101.447 54.1655 101.671 54.4399 101.941C54.9013 100.705 55.372 99.717 55.7367 98.9399C56.435 98.4994 57.1926 98.0181 57.8909 97.5776C73.2287 97.6217 80.3333 102.259 83.0549 104.062C88.5385 108.067 91.8367 114.607 91.8367 121.633C91.8367 133.27 83.0829 142.74 72.3215 142.74C70.3513 142.74 68.4185 142.422 66.5698 141.808V141.811C66.3485 141.727 62.751 140.544 62.9318 142.063C63.0877 143.385 64.1445 144.561 65.2917 145.47C67.0624 146.874 69.1417 147.72 71.2928 148.179C72.8515 148.513 74.3977 148.679 75.9222 148.679C77.777 148.679 79.4012 148.491 81.1408 148.003C81.3559 147.943 81.5117 147.751 81.5491 147.528C81.864 145.565 83.0611 143.954 83.6846 143.145C83.987 142.752 84.2021 142.535 84.2021 142.535C84.2021 142.535 83.3448 145.451 83.6971 148.459C83.9402 150.3 84.4795 152.014 85.315 153.505C86.4747 155.576 88.0895 156.96 89.7511 157.303C90.2749 157.413 90.7924 157.463 91.3036 157.463C92.9496 157.463 94.4928 156.909 95.6836 155.862C97.5666 154.207 98.5486 151.508 98.6078 147.836C98.6857 143.06 97.1925 137.876 96.039 134.61C96.2105 134.214 96.3071 133.99 96.4786 133.594C101.498 131.36 106.735 129.029 107.159 128.856C107.773 128.617 108.213 128.013 108.281 127.308C108.393 126.15 107.623 125.597 107.003 125.153C106.663 124.911 106.189 124.584 105.553 124.159C104.515 123.467 103.069 122.523 101.254 121.356C100.011 120.557 98.7605 119.757 97.71 119.091C97.5666 118.999 97.4824 118.845 97.4637 118.672C97.2268 116.486 96.862 114.667 96.5565 113.399C96.9088 112.748 97.261 112.043 97.5821 111.298C98.4737 109.234 98.9663 107.293 99.0629 105.509C99.0785 105.493 99.1035 105.481 99.1128 105.459C101.56 100.982 105.504 96.8572 110.934 97.4864C116.153 98.0905 117.989 103.735 118.999 104.298C120.258 105.002 126.001 95.7215 134.362 100.481C140.774 104.134 137.994 114.563 139.082 115.532C140.696 116.97 145.079 112.197 150.22 115.661C160.093 122.29 156.96 140.185 150.441 152.48ZM127.351 195.515C124.835 195.515 122.784 197.582 122.784 200.121C122.784 202.66 124.835 204.73 127.351 204.73C129.866 204.73 131.915 202.66 131.915 200.121C131.915 197.582 129.866 195.515 127.351 195.515ZM127.351 204.022C125.215 204.022 123.485 202.276 123.485 200.121C123.485 197.966 125.215 196.22 127.351 196.22C129.486 196.22 131.216 197.966 131.216 200.121C131.216 202.279 129.486 204.022 127.351 204.022ZM129.374 198.995C129.374 198.041 128.76 197.447 127.569 197.447H125.689V202.76H126.341V200.605H127.298L128.869 202.76H129.617L128.046 200.605C128.763 200.483 129.374 199.973 129.374 198.995ZM127.201 200.011H126.341V198.041H127.531C128.096 198.041 128.71 198.315 128.71 198.995C128.713 199.875 127.927 200.011 127.201 200.011ZM79.7722 125.631C81.705 125.543 83.2045 123.778 83.1235 121.686C83.0424 119.594 81.4089 117.971 79.4761 118.059C78.4348 118.106 79.2952 121.626 79.2952 121.626C79.2952 121.626 76.0843 121.038 76.1217 122.004C76.2058 124.099 77.8394 125.722 79.7722 125.631Z" fill="#E52823"/>
</svg>
