<svg width="176" height="238" viewBox="0 0 176 238" fill="none" xmlns="http://www.w3.org/2000/svg">
<path d="M158.254 108.258C155.852 106.706 153.123 105.745 150.286 105.452C150.286 105.452 148.535 95.2194 138.03 91.8746C128.944 88.9812 122.799 93.4106 122.799 93.4106C122.799 93.4106 119.645 90.0894 113.437 89.3181C105.372 88.3076 100 93.5554 100 93.5554L95.1092 91.1976C95.1092 91.1976 93.8522 81.6955 84.2999 79.3815C78.0384 77.8624 74.0175 80.9174 74.0175 80.9174C74.0175 80.9174 68.7829 76.4443 62.1479 77.7579C58.297 78.5226 55.3196 80.5873 53.4292 83.8209C51.7454 86.7009 51.7254 90.4195 51.7254 90.4195C51.7254 90.4195 37.2053 91.3626 23.7187 104.075C7.46479 119.401 7.94824 140.79 8.15496 144.03C8.57172 149.002 12.2893 150.581 12.2893 150.581C12.2893 150.581 14.7199 166.076 22.7285 171.738C23.3642 172.185 24.033 172.583 24.7289 172.927C27.2062 177.646 30.7004 182.476 35.1414 187.343C40.8428 193.581 47.7712 199.328 55.7364 204.421C65.5554 210.699 77.0049 216.011 89.7646 220.198C90.3737 220.4 91.0106 220.504 91.6517 220.504C92.4199 220.502 93.1809 220.355 93.8956 220.07C94.4591 219.844 107.656 214.505 122.396 204.043C123.034 205.624 124.196 206.93 125.683 207.74C127.17 208.55 128.89 208.813 130.547 208.484C132.205 208.154 133.698 207.253 134.77 205.934C135.842 204.615 136.428 202.961 136.426 201.254C136.425 200.802 136.383 200.351 136.299 199.907C136.423 199.907 136.546 199.907 136.669 199.907C145.688 199.314 151.196 193.666 152.673 188.344C154.247 182.729 152.17 176.73 152.17 176.73C152.17 176.73 157.341 174.116 159.581 167.413C160.822 163.708 160.268 159.666 160.268 159.666C160.268 159.666 164.199 151.817 165.866 147.226C171.848 130.752 168.597 115.278 158.238 108.258" fill="white"/>
<path d="M155.25 112.428C151.379 109.764 147.449 110.704 146.405 110.909C145.721 111.047 145.668 110.832 145.665 110.629C145.448 103.556 141.87 98.3115 136.479 96.7452C131.445 95.2766 127.477 96.0951 122.426 99.5713C121.986 99.5174 121.669 99.9249 121.269 99.4264C119.355 97.1191 117.118 94.859 112.747 94.3739C107.145 93.7306 102.821 96.7722 99.8471 101.656C99.5709 100.999 99.216 100.377 98.7901 99.807C96.5063 96.7351 94.1457 96.1019 92.5686 96.1019C91.8293 96.1048 91.0961 96.237 90.4015 96.4926C90.5081 91.9487 89.1245 85.7139 83.1697 84.4003C82.4155 84.23 81.6453 84.1419 80.8725 84.1376C77.1016 84.1376 74.841 86.4954 73.6341 88.8701C73.3724 88.3592 73.083 87.8633 72.7672 87.3846C70.34 83.7064 66.9091 82.0963 62.9849 82.8138C60.591 83.2517 58.8172 84.4609 57.7169 86.4112C56.3833 88.769 56.8 92.5483 57.1268 94.8489C57.1398 94.9322 57.1343 95.0174 57.1105 95.0983C57.0867 95.1792 57.0454 95.2536 56.9894 95.3163C56.9335 95.3789 56.8644 95.4281 56.7872 95.4603C56.71 95.4925 56.6267 95.5069 56.5433 95.5023C55.0155 95.4283 53.4842 95.4835 51.9655 95.6674C52.0402 95.9924 52.0481 96.3294 51.9889 96.6576C51.9314 97.153 51.7033 97.6122 51.3445 97.9548C50.9858 98.2974 50.5192 98.5017 50.0264 98.5318C49.5336 98.5619 49.046 98.416 48.6489 98.1195C48.2519 97.8231 47.9707 97.395 47.8546 96.9103C47.8101 96.7756 47.716 96.6634 47.5919 96.5969C47.4677 96.5304 47.323 96.5148 47.1877 96.5532C45.6432 96.9536 44.1226 97.4428 42.6333 98.0185C42.8039 98.4347 42.8559 98.8909 42.7833 99.3355C42.7289 99.8151 42.5136 100.261 42.1734 100.6C41.8332 100.939 41.3885 101.151 40.913 101.199C40.4376 101.247 39.96 101.13 39.5597 100.866C39.1594 100.603 38.8604 100.209 38.7124 99.7498C35.5512 101.347 32.5661 103.278 29.8069 105.51C29.6887 105.601 29.6104 105.735 29.5886 105.883C29.5668 106.032 29.6033 106.183 29.6902 106.305C29.9228 106.583 30.0906 106.911 30.1812 107.263C30.2717 107.616 30.2829 107.985 30.2136 108.342C30.1609 108.822 29.9474 109.269 29.6085 109.608C29.2696 109.948 28.8258 110.16 28.3509 110.21C27.8759 110.26 27.3985 110.143 26.998 109.881C26.5975 109.618 26.298 109.225 26.1493 108.767C23.1246 111.726 20.5796 115.147 18.6075 118.905C18.9417 119.436 19.061 120.077 18.9409 120.694C18.8665 121.134 18.6614 121.54 18.3529 121.859C18.0444 122.178 17.6471 122.394 17.2138 122.479C17.1153 122.493 17.0215 122.531 16.9407 122.59C16.8599 122.648 16.7946 122.726 16.7504 122.816C16.1736 124.244 15.7035 125.646 15.2901 127.023C15.727 127.262 16.077 127.636 16.2893 128.089C16.5016 128.543 16.565 129.053 16.4703 129.546C16.3926 130.007 16.1722 130.431 15.8409 130.757C15.5096 131.083 15.0844 131.295 14.6266 131.362C14.4979 131.372 14.3756 131.422 14.2769 131.506C14.1783 131.59 14.1081 131.703 14.0764 131.83C13.743 133.618 13.4996 135.272 13.3529 136.768C13.4095 136.764 13.4663 136.764 13.523 136.768C14.1014 136.919 14.5997 137.29 14.9135 137.803C15.2273 138.317 15.3324 138.933 15.2067 139.523C15.1223 140.029 14.8646 140.488 14.4789 140.821C14.0931 141.154 13.6037 141.34 13.0962 141.345C13.0962 142.949 13.1629 143.919 13.1629 143.919C13.0795 144.825 13.5763 145.724 14.4532 145.886C14.8423 145.953 15.2421 145.921 15.6155 145.791C15.989 145.662 16.3242 145.439 16.5904 145.145C16.667 145.899 16.7537 146.654 16.8704 147.398C18.0807 155.145 21.0514 164.375 25.5392 167.524C26.3838 168.126 27.318 168.587 28.3065 168.892C29.8502 172.145 32.8243 177.312 38.759 183.806C44.157 189.715 50.7386 195.168 58.3237 200.022C67.7793 206.064 78.832 211.188 91.1783 215.243C91.286 215.279 91.3985 215.297 91.5117 215.297C91.6519 215.296 91.7908 215.27 91.9218 215.22C92.0552 215.166 105.572 209.722 120.239 199.142C122.777 197.312 125.202 195.437 127.514 193.517C127.59 193.457 127.681 193.417 127.777 193.401C127.873 193.385 127.972 193.394 128.064 193.426C129.931 194.07 130.641 194.154 132.762 194.481C133.872 194.689 135 194.781 136.129 194.754C143.294 194.282 146.798 189.971 147.659 186.865C148.759 182.887 147.172 177.434 145.535 174.517C145.241 173.991 145.508 173.506 146.092 173.385C150.609 172.425 153.427 169.464 154.617 165.766C155.564 162.835 155.017 159.575 154.854 158.743C154.84 158.676 154.839 158.607 154.851 158.54C154.864 158.473 154.89 158.409 154.927 158.352C157.389 154.314 159.402 150.014 160.928 145.529C166.293 129.849 162.719 117.572 155.207 112.418M96.6329 130.199C97.3486 127.945 97.7613 125.603 97.8599 123.237C97.862 123.137 97.8902 123.039 97.9418 122.954C97.9933 122.869 98.0664 122.799 98.1535 122.751C98.2405 122.703 98.3386 122.68 98.4375 122.683C98.5365 122.686 98.6328 122.716 98.7168 122.769C100.917 124.17 103.068 125.551 104.762 126.659C104.85 126.715 104.921 126.794 104.968 126.887C105.015 126.981 105.035 127.086 105.026 127.19C105.017 127.295 104.98 127.395 104.919 127.48C104.858 127.564 104.774 127.63 104.678 127.67C102.638 128.576 100.04 129.731 97.3931 130.914C97.2931 130.958 97.1824 130.972 97.0745 130.954C96.9667 130.936 96.8664 130.887 96.7858 130.812C96.7053 130.737 96.6479 130.641 96.6208 130.534C96.5936 130.427 96.5979 130.314 96.6329 130.21M50.0784 121.034C50.6566 121.184 51.1549 121.555 51.4687 122.068C51.7826 122.581 51.8878 123.197 51.7622 123.786C51.7189 124.077 51.6178 124.357 51.4649 124.608C51.3121 124.858 51.1107 125.075 50.8728 125.246C50.6349 125.416 50.3654 125.536 50.0805 125.598C49.7956 125.66 49.5012 125.664 49.2149 125.608C48.6393 125.456 48.1445 125.084 47.8339 124.571C47.5232 124.058 47.4207 123.444 47.5478 122.857C47.5911 122.566 47.6921 122.287 47.8448 122.036C47.9974 121.786 48.1985 121.569 48.436 121.399C48.6735 121.228 48.9426 121.108 49.2271 121.046C49.5116 120.983 49.8057 120.979 50.0918 121.034M48.2346 132.487C48.1909 132.777 48.0896 133.056 47.9369 133.306C47.7841 133.557 47.583 133.773 47.3456 133.943C47.1082 134.113 46.8393 134.233 46.555 134.296C46.2706 134.359 45.9767 134.363 45.6907 134.309C45.118 134.15 44.6267 133.777 44.317 133.265C44.0072 132.753 43.9023 132.141 44.0236 131.554C44.067 131.263 44.168 130.984 44.3206 130.733C44.4732 130.483 44.6743 130.266 44.9118 130.096C45.1493 129.925 45.4184 129.805 45.7029 129.743C45.9874 129.68 46.2815 129.676 46.5676 129.731C47.1438 129.884 47.6392 130.256 47.9499 130.77C48.2607 131.284 48.3627 131.899 48.2346 132.487ZM44.237 106.001C44.2803 105.711 44.3813 105.431 44.534 105.181C44.6866 104.93 44.8877 104.714 45.1252 104.543C45.3627 104.373 45.6318 104.253 45.9163 104.191C46.2008 104.128 46.4949 104.124 46.781 104.179C47.3594 104.33 47.8577 104.701 48.1715 105.215C48.4853 105.728 48.5904 106.344 48.4647 106.934C48.4209 107.225 48.3197 107.504 48.1669 107.754C48.0142 108.004 47.8131 108.221 47.5757 108.391C47.3382 108.561 47.0694 108.681 46.785 108.744C46.5007 108.807 46.2068 108.811 45.9208 108.757C45.3449 108.601 44.8497 108.23 44.5367 107.717C44.2236 107.205 44.1164 106.591 44.237 106.001ZM41.9998 115.402C42.0436 115.112 42.1449 114.833 42.2976 114.583C42.4503 114.332 42.6514 114.116 42.8888 113.946C43.1263 113.776 43.3952 113.656 43.6795 113.593C43.9638 113.53 44.2577 113.526 44.5438 113.58C45.1222 113.731 45.6205 114.102 45.9343 114.616C46.2481 115.129 46.3532 115.745 46.2275 116.335C46.1837 116.626 46.0824 116.905 45.9297 117.155C45.777 117.405 45.5759 117.622 45.3385 117.792C45.101 117.962 44.8321 118.082 44.5478 118.145C44.2635 118.208 43.9696 118.212 43.6835 118.158C43.1077 118.002 42.6125 117.631 42.2995 117.118C41.9864 116.606 41.8792 115.992 41.9998 115.402ZM41.6931 122.287C42.2684 122.442 42.7627 122.814 43.0732 123.327C43.3837 123.841 43.4865 124.455 43.3601 125.043C43.3164 125.333 43.2151 125.612 43.0623 125.862C42.9096 126.113 42.7085 126.329 42.4711 126.499C42.2337 126.669 41.9648 126.789 41.6805 126.852C41.3961 126.915 41.1022 126.919 40.8162 126.865C40.2404 126.711 39.7456 126.339 39.4349 125.825C39.1243 125.312 39.0219 124.697 39.1491 124.11C39.1925 123.819 39.2935 123.54 39.4461 123.289C39.5987 123.039 39.7998 122.822 40.0373 122.652C40.2748 122.481 40.5439 122.361 40.8284 122.299C41.1129 122.236 41.407 122.232 41.6931 122.287ZM39.7726 134.329C39.7288 134.62 39.6276 134.899 39.4748 135.149C39.3221 135.399 39.121 135.616 38.8836 135.786C38.6462 135.956 38.3773 136.076 38.0929 136.139C37.8086 136.201 37.5147 136.206 37.2287 136.151C36.6559 135.993 36.1647 135.619 35.855 135.107C35.5452 134.595 35.4403 133.983 35.5616 133.396C35.6053 133.105 35.7067 132.826 35.8597 132.575C36.0126 132.325 36.214 132.108 36.4518 131.938C36.6896 131.768 36.9589 131.648 37.2436 131.585C37.5283 131.523 37.8226 131.519 38.1089 131.574C38.6851 131.727 39.1805 132.099 39.4912 132.613C39.802 133.126 39.904 133.741 39.7759 134.329M34.9081 106.685C35.0277 106.199 35.3066 105.768 35.6995 105.462C36.0924 105.156 36.5761 104.994 37.072 105.001C38.489 105.078 39.4359 106.54 39.0524 107.985C38.9339 108.472 38.6553 108.904 38.2622 109.21C37.8691 109.516 37.3848 109.678 36.8886 109.67C35.4716 109.595 34.5247 108.13 34.9081 106.689M33.091 115.948C33.1348 115.657 33.236 115.379 33.3888 115.128C33.5415 114.878 33.7426 114.661 33.98 114.491C34.2174 114.321 34.4863 114.201 34.7707 114.138C35.055 114.076 35.3489 114.071 35.6349 114.126C36.2138 114.276 36.7126 114.647 37.0266 115.161C37.3406 115.674 37.4452 116.291 37.3187 116.881C37.275 117.172 37.1737 117.45 37.0209 117.701C36.8681 117.951 36.6669 118.167 36.4295 118.337C36.192 118.507 35.923 118.626 35.6387 118.689C35.3544 118.751 35.0605 118.755 34.7747 118.7C34.1963 118.549 33.698 118.178 33.3842 117.665C33.0703 117.151 32.9653 116.535 33.091 115.945M29.3334 126.37C29.3776 126.079 29.4793 125.8 29.6323 125.55C29.7854 125.299 29.9868 125.083 30.2245 124.913C30.4622 124.743 30.7313 124.623 31.0158 124.56C31.3004 124.497 31.5945 124.493 31.8807 124.547C32.457 124.7 32.9523 125.073 33.2631 125.586C33.5738 126.1 33.6758 126.715 33.5478 127.303C33.504 127.593 33.4027 127.872 33.25 128.122C33.0972 128.373 32.8962 128.589 32.6587 128.759C32.4213 128.93 32.1524 129.05 31.8681 129.112C31.5838 129.175 31.2898 129.179 31.0038 129.125C30.4311 128.966 29.9399 128.593 29.6301 128.081C29.3204 127.569 29.2155 126.957 29.3368 126.37M31.4739 136.37C31.4302 136.661 31.3289 136.94 31.1762 137.19C31.0234 137.44 30.8223 137.657 30.5849 137.827C30.3475 137.997 30.0786 138.117 29.7943 138.18C29.5099 138.243 29.216 138.247 28.93 138.193C28.3537 138.04 27.8584 137.667 27.5477 137.154C27.2369 136.64 27.1349 136.025 27.2629 135.437C27.3067 135.147 27.408 134.868 27.5607 134.617C27.7135 134.367 27.9145 134.151 28.152 133.98C28.3894 133.81 28.6583 133.69 28.9426 133.628C29.2269 133.565 29.5209 133.561 29.8069 133.615C30.3796 133.774 30.8709 134.147 31.1806 134.659C31.4903 135.171 31.5952 135.783 31.4739 136.37ZM23.9488 117.06C23.9926 116.769 24.0938 116.49 24.2466 116.24C24.3993 115.99 24.6004 115.773 24.8378 115.603C25.0753 115.433 25.3441 115.313 25.6285 115.25C25.9128 115.187 26.2067 115.183 26.4927 115.237C27.0686 115.393 27.5638 115.765 27.8768 116.277C28.1899 116.789 28.2971 117.403 28.1765 117.993C28.1327 118.284 28.0314 118.563 27.8784 118.813C27.7255 119.064 27.5241 119.281 27.2863 119.451C27.0485 119.621 26.7792 119.741 26.4944 119.803C26.2097 119.866 25.9155 119.87 25.6292 119.815C25.0529 119.662 24.5576 119.29 24.2469 118.776C23.9361 118.263 23.8341 117.647 23.9621 117.06M20.7047 125.912C20.7481 125.622 20.8488 125.344 21.0008 125.094C21.1528 124.844 21.3529 124.628 21.5893 124.458C21.8257 124.288 22.0936 124.168 22.3769 124.104C22.6602 124.041 22.9533 124.036 23.2386 124.089C23.814 124.244 24.3083 124.616 24.6188 125.129C24.9293 125.643 25.032 126.257 24.9057 126.845C24.8619 127.135 24.7607 127.414 24.6079 127.664C24.4552 127.915 24.2541 128.131 24.0167 128.301C23.7792 128.471 23.5104 128.591 23.226 128.654C22.9417 128.717 22.6478 128.721 22.3618 128.667C21.7829 128.517 21.2841 128.146 20.9701 127.632C20.6561 127.118 20.5514 126.502 20.678 125.912M18.5142 135.437C18.5579 135.147 18.6592 134.868 18.812 134.617C18.9647 134.367 19.1658 134.151 19.4032 133.98C19.6406 133.81 19.9095 133.69 20.1938 133.628C20.4782 133.565 20.7721 133.561 21.0581 133.615C21.6339 133.77 22.1291 134.142 22.4422 134.654C22.7552 135.167 22.8625 135.781 22.7418 136.37C22.6985 136.661 22.5975 136.94 22.4449 137.191C22.2923 137.441 22.0912 137.658 21.8537 137.828C21.6161 137.998 21.3471 138.118 21.0625 138.181C20.778 138.244 20.4839 138.247 20.1979 138.193C19.6225 138.038 19.1282 137.666 18.8177 137.152C18.5073 136.639 18.4045 136.025 18.5308 135.437M152.23 153.407C148.392 148.018 140.423 147.267 139.15 148.783C138.516 149.537 146.338 151.14 149.819 156.045C152.85 160.306 151.93 165.624 147.449 168.649C144.278 170.791 140.824 169.902 140.327 171.425C139.83 172.947 146.062 180.415 144.204 185.689C143.204 188.519 140.92 191.988 133.298 190.826C113.627 187.795 98.3767 163.849 97.0364 165.021C96.3029 165.665 100.434 173.621 103.868 178.057C108.689 184.285 113.32 189.226 118.121 192.426C118.199 192.477 118.263 192.547 118.307 192.629C118.352 192.712 118.375 192.804 118.375 192.898C118.375 192.991 118.352 193.084 118.307 193.166C118.263 193.248 118.199 193.318 118.121 193.369C109.82 199.056 101.057 204.022 91.9252 208.213C91.8214 208.265 91.7023 208.274 91.5917 208.24C87.104 206.944 62.1113 199.146 43.977 181.9C40.4438 178.483 37.2593 174.716 34.4713 170.657C34.4282 170.589 34.3996 170.514 34.3874 170.435C34.3752 170.356 34.3796 170.275 34.4003 170.198C34.4211 170.12 34.4578 170.048 34.5079 169.986C34.5581 169.924 34.6206 169.874 34.6914 169.838C36.1051 169.02 37.0753 167.736 37.8155 165.884C37.8414 165.813 37.881 165.747 37.9321 165.692C37.9831 165.637 38.0445 165.592 38.1127 165.561C38.1809 165.529 38.2546 165.512 38.3295 165.51C38.4043 165.507 38.479 165.52 38.549 165.547C39.7425 166.044 41.0188 166.308 42.3099 166.325C44.1373 166.33 45.914 165.718 47.3578 164.587C50.4218 162.229 51.6921 159.851 52.1989 158.103C53.0421 158.299 53.9044 158.398 54.7695 158.399C57.4735 158.399 60.591 156.139 60.641 155.014C60.681 154.054 57.6569 153.956 57.2601 153.956C53.6359 153.956 50.7286 150.952 50.7052 150.925C50.4704 150.668 50.1601 150.493 49.8198 150.427C49.4796 150.361 49.1273 150.407 48.8148 150.558C48.4936 150.721 48.2263 150.975 48.0457 151.289C47.8651 151.603 47.779 151.963 47.7979 152.326C47.7979 152.387 47.9779 158.251 44.337 159.77C43.9048 159.957 43.44 160.054 42.97 160.056C40.5795 160.056 38.3989 157.362 37.7621 156.314C37.5905 156.018 37.3335 155.782 37.0254 155.638C36.7174 155.493 36.373 155.447 36.0384 155.506C35.7005 155.576 35.3907 155.746 35.1476 155.993C34.9045 156.241 34.7389 156.555 34.6714 156.897C34.6714 156.958 33.2744 162.822 29.6702 164.516H29.6435H29.6168C29.2737 164.711 28.8812 164.799 28.4886 164.77C28.096 164.741 27.7206 164.595 27.4096 164.351C24.669 162.515 21.4082 155.661 20.518 148.877V148.83C20.518 148.83 22.6518 143.44 31.2472 140.982C37.2087 139.297 44.017 139.523 49.4883 140.224C49.2432 139.95 49.0638 139.624 48.9637 139.269C48.8637 138.915 48.8458 138.542 48.9115 138.179C48.9548 137.888 49.0558 137.609 49.2084 137.359C49.361 137.108 49.5621 136.891 49.7997 136.721C50.0372 136.551 50.3063 136.431 50.5908 136.368C50.8753 136.306 51.1694 136.302 51.4554 136.357C51.8924 136.478 52.2857 136.723 52.5887 137.063C52.8916 137.404 53.0913 137.825 53.164 138.277C53.2367 138.729 53.1794 139.192 52.9988 139.612C52.8183 140.032 52.5221 140.39 52.1456 140.645C53.7826 140.914 55.2163 141.207 56.3966 141.47C56.3483 141.188 56.3483 140.9 56.3966 140.618C56.4403 140.327 56.5417 140.048 56.6947 139.797C56.8476 139.547 57.049 139.33 57.2868 139.16C57.5246 138.989 57.7939 138.87 58.0786 138.807C58.3634 138.744 58.6576 138.741 58.9439 138.795C59.2855 138.88 59.603 139.044 59.8715 139.273C60.1399 139.503 60.3519 139.793 60.4909 140.119C60.6298 140.445 60.6919 140.8 60.6723 141.155C60.6526 141.51 60.5517 141.855 60.3776 142.164C62.7915 141.827 62.078 138.93 60.3176 136.229C59.4286 134.861 58.6236 133.439 57.907 131.971C57.7374 132.358 57.4587 132.685 57.1059 132.913C56.7531 133.141 56.3417 133.258 55.9232 133.251C54.5061 133.177 53.5593 131.712 53.9427 130.27C54.0623 129.784 54.3412 129.353 54.7341 129.047C55.1269 128.741 55.6106 128.579 56.1065 128.586C56.2416 128.612 56.3735 128.653 56.5 128.707C55.5358 126.106 54.8386 123.412 54.4195 120.667C54.1861 119.188 54.0427 117.814 53.946 116.507C53.4999 116.801 52.9572 116.905 52.4357 116.797C51.8572 116.646 51.3589 116.275 51.0451 115.761C50.7313 115.248 50.6262 114.632 50.7519 114.042C50.7957 113.751 50.897 113.472 51.0497 113.222C51.2025 112.972 51.4035 112.755 51.6409 112.585C51.8784 112.415 52.1473 112.295 52.4316 112.232C52.7159 112.169 53.0099 112.165 53.2959 112.219C53.4894 112.275 53.6737 112.359 53.8427 112.469C53.8811 110.459 54.1044 108.458 54.5095 106.49C54.2789 106.53 54.0432 106.53 53.8127 106.49C53.2368 106.335 52.7416 105.963 52.4286 105.45C52.1155 104.938 52.0083 104.324 52.1289 103.735C52.1722 103.443 52.2733 103.164 52.4261 102.913C52.579 102.662 52.7804 102.445 53.0183 102.275C53.2562 102.105 53.5257 101.985 53.8106 101.923C54.0955 101.86 54.3899 101.857 54.6762 101.912C55.0584 102.005 55.4059 102.207 55.6764 102.495C56.1399 101.249 56.6133 100.255 56.9834 99.4635L59.1473 98.0926C74.5743 98.1363 81.7227 102.808 84.46 104.62C87.2104 106.655 89.4447 109.319 90.9804 112.394C92.5161 115.469 93.3094 118.867 93.2955 122.311C93.2955 134.029 84.49 143.565 73.6641 143.565C71.6986 143.565 69.7457 143.248 67.8794 142.625C67.6526 142.538 64.0351 141.349 64.2118 142.878C64.3685 144.208 65.4321 145.394 66.5857 146.31C68.3642 147.674 70.4288 148.608 72.6205 149.039C74.155 149.369 75.7193 149.537 77.2883 149.54C79.0612 149.563 80.8285 149.336 82.5396 148.867C82.6452 148.834 82.7396 148.772 82.8116 148.687C82.8836 148.603 82.9303 148.499 82.9463 148.388C83.2797 146.411 84.47 144.791 85.0968 143.976C85.2583 143.761 85.4319 143.555 85.617 143.36C85.0879 145.309 84.9106 147.339 85.0935 149.352C85.3094 151.135 85.8617 152.859 86.7206 154.431C87.8875 156.516 89.5146 157.907 91.1816 158.254C91.6962 158.361 92.2201 158.415 92.7453 158.416C94.361 158.435 95.9285 157.86 97.1564 156.799C99.0502 155.135 100.04 152.42 100.1 148.715C100.177 143.909 98.6734 138.688 97.5165 135.397L97.9566 134.386C103.008 132.136 108.276 129.792 108.699 129.617C109.011 129.487 109.282 129.273 109.482 128.998C109.681 128.723 109.801 128.397 109.829 128.057C109.939 126.892 109.163 126.336 108.542 125.888C108.209 125.642 107.726 125.315 107.085 124.878C106.042 124.18 104.585 123.23 102.751 122.058C101.501 121.253 100.244 120.448 99.1869 119.775C99.1163 119.729 99.0571 119.668 99.0137 119.595C98.9704 119.523 98.9441 119.441 98.9368 119.357C98.7469 117.569 98.4429 115.796 98.0266 114.048C98.38 113.392 98.7335 112.684 99.0569 111.93C99.894 110.092 100.399 108.117 100.547 106.099C100.564 106.082 100.587 106.072 100.601 106.049C103.061 101.542 107.029 97.3886 112.49 98.0218C117.741 98.6281 119.588 104.31 120.602 104.88C121.869 105.59 127.647 96.2433 136.052 101.036C142.504 104.715 139.72 115.217 140.8 116.194C142.424 117.642 146.835 112.826 152.003 116.322C161.922 123.011 158.771 141.029 152.216 153.411M128.991 196.741C128.082 196.74 127.193 197.012 126.437 197.522C125.681 198.031 125.091 198.756 124.743 199.605C124.395 200.453 124.304 201.386 124.481 202.287C124.658 203.188 125.096 204.015 125.739 204.665C126.381 205.314 127.2 205.756 128.092 205.935C128.983 206.114 129.907 206.022 130.747 205.67C131.587 205.318 132.304 204.723 132.809 203.959C133.314 203.195 133.583 202.297 133.582 201.379C133.579 200.15 133.095 198.972 132.234 198.102C131.374 197.233 130.208 196.744 128.991 196.741ZM128.991 205.307C128.222 205.307 127.47 205.076 126.831 204.645C126.192 204.213 125.693 203.6 125.399 202.882C125.105 202.164 125.028 201.375 125.178 200.613C125.328 199.851 125.698 199.151 126.242 198.602C126.785 198.053 127.478 197.679 128.232 197.527C128.986 197.376 129.768 197.453 130.478 197.751C131.189 198.048 131.796 198.551 132.223 199.197C132.65 199.843 132.878 200.602 132.878 201.379C132.878 202.421 132.469 203.42 131.74 204.156C131.011 204.893 130.022 205.307 128.991 205.307ZM131.028 200.254C131.028 199.294 130.411 198.695 129.214 198.695H127.324V204.047H127.991V201.878H128.954L130.534 204.047H131.288L129.708 201.878C130.092 201.829 130.444 201.634 130.692 201.332C130.94 201.031 131.065 200.645 131.041 200.254M128.854 201.265H127.991V199.281H129.164C129.734 199.281 130.351 199.557 130.351 200.241C130.351 201.126 129.561 201.251 128.831 201.251M81.1526 126.373C83.0964 126.285 84.6067 124.507 84.5234 122.402C84.44 120.297 82.7996 118.663 80.8558 118.751C79.8056 118.798 80.6724 122.345 80.6724 122.345C80.6724 122.345 77.445 121.752 77.4817 122.725C77.565 124.827 79.2054 126.464 81.1492 126.373" fill="#E52823"/>
<path d="M50.3819 68.4647C55.7832 68.4647 59.8408 65.4534 61.1378 60.3471H55.0463C54.607 61.2154 53.9385 61.9441 53.1146 62.4524C52.2908 62.9607 51.3438 63.2288 50.3785 63.227C47.2278 63.227 44.6771 60.3033 44.6771 56.7699C44.6771 53.1489 47.2278 50.1814 50.3785 50.1814C51.3296 50.1947 52.2599 50.4647 53.073 50.9634C53.8861 51.462 54.5524 52.1713 55.003 53.0176H61.0944C59.7974 47.9651 55.7398 44.9033 50.3819 44.9033C43.6869 44.9033 38.8958 50.2252 38.8958 56.7261C38.8958 63.227 43.6869 68.4647 50.3819 68.4647Z" fill="white"/>
<path d="M64.5452 39.753V58.4708C64.5452 64.6248 67.9993 68.5961 74.5209 67.9022V62.6611C71.6702 62.8362 70.2465 61.6506 70.2465 58.5146V50.5755H74.2475V45.4691H70.2465V39.7429L64.5452 39.753Z" fill="white"/>
<path d="M121.432 42.6835C121.997 42.6842 122.549 42.5156 123.019 42.1992C123.489 41.8828 123.855 41.4327 124.071 40.9059C124.288 40.3792 124.345 39.7993 124.235 39.2398C124.126 38.6803 123.854 38.1662 123.455 37.7626C123.056 37.359 122.547 37.0841 121.994 36.9726C121.44 36.8611 120.866 36.918 120.344 37.1361C119.823 37.3542 119.377 37.7238 119.063 38.198C118.749 38.6722 118.582 39.2298 118.582 39.8002C118.581 40.1787 118.655 40.5536 118.798 40.9034C118.941 41.2532 119.151 41.571 119.415 41.8388C119.68 42.1066 119.995 42.319 120.341 42.464C120.687 42.6089 121.058 42.6835 121.432 42.6835Z" fill="white"/>
<path d="M135.166 54.8062C135.166 52.2765 136.979 50.5317 139.483 50.5317C143.241 50.5317 143.674 53.543 143.674 54.8062V67.9426H149.376V54.9375C149.376 49.0463 145.708 44.9033 139.483 44.9033C133.439 44.9033 129.481 49.2215 129.481 54.9375V67.9393H135.166V54.8062Z" fill="white"/>
<path d="M124.31 45.4691H118.608V67.9393H124.31V45.4691Z" fill="white"/>
<path d="M102.978 54.9375V67.9393H108.679V54.9375C108.679 51.7511 111.096 49.7873 114.724 50.4441V45.0312C107.339 44.1184 102.978 48.568 102.978 54.9375Z" fill="white"/>
<path d="M44.5938 20.8264H37.8089V31.2379H32.3342V2.09851H44.4771C50.5019 2.09851 53.9928 5.80367 53.9928 11.5029C53.9928 16.9225 50.2952 20.8264 44.6005 20.8264M37.8089 7.26553V15.747H44.4171C46.9544 15.747 48.4914 14.4434 48.4914 11.5029C48.4914 8.56234 46.9544 7.26553 44.4171 7.26553H37.8089Z" fill="white"/>
<path d="M77.015 20.4492C77.015 26.913 72.1538 31.7432 66.209 31.7432C60.2643 31.7432 55.4431 26.913 55.4431 20.4492C55.4431 13.9853 60.2643 9.06757 66.209 9.06757C72.1538 9.06757 77.015 13.982 77.015 20.4492ZM71.487 20.4896C71.487 16.7541 69.1164 14.1504 66.209 14.1504C63.3017 14.1504 60.9311 16.7541 60.9311 20.4896C60.9311 24.1442 63.2983 26.6637 66.209 26.6637C69.1197 26.6637 71.4836 24.1442 71.4836 20.4896" fill="white"/>
<path d="M86.3705 0H80.8859V31.2379H86.3705V0Z" fill="white"/>
<path d="M97.2565 0H91.7719V31.2379H97.2565V0Z" fill="white"/>
<path d="M122.653 20.4492C122.653 26.913 117.791 31.7432 111.847 31.7432C105.902 31.7432 101.084 26.913 101.084 20.4492C101.084 13.9853 105.905 9.06757 111.847 9.06757C117.788 9.06757 122.653 13.982 122.653 20.4492ZM117.125 20.4896C117.125 16.7541 114.757 14.1504 111.847 14.1504C108.936 14.1504 106.569 16.7541 106.569 20.4896C106.569 24.1442 108.939 26.6637 111.847 26.6637C114.754 26.6637 117.125 24.1442 117.125 20.4896Z" fill="white"/>
<path d="M135.082 31.7432C129.638 31.7432 125.607 28.8464 124.943 24.1846H130.498C131.245 26.0305 133.448 26.7041 135.069 26.7041C137.273 26.7041 138.933 26.0305 138.933 24.7741C138.933 23.5177 138.186 23.0529 134.445 22.4634C130.621 21.874 125.51 20.8264 125.51 15.9962C125.51 12.5976 128.461 9.06757 134.652 9.06757C139.557 9.06757 143.214 11.7622 143.921 15.8312H138.243C137.91 14.8207 136.703 14.0258 134.665 14.0258C132.132 14.0258 131.091 14.9487 131.091 15.747C131.091 16.8787 132.672 17.2593 135.332 17.677C140.667 18.5595 144.474 19.7351 144.474 24.4373C144.474 28.7184 140.567 31.7432 135.082 31.7432Z" fill="white"/>
<path d="M88.0376 44.8999C81.8628 44.8999 76.8516 50.0062 76.8516 56.7261C76.8516 63.4459 81.8528 68.4647 88.0376 68.4647C94.2224 68.4647 99.2669 63.4594 99.2669 56.7227C99.2669 49.986 94.2157 44.8965 88.0376 44.8965M88.0376 63.1798C85.0135 63.1798 82.5529 60.5626 82.5529 56.78C82.5529 52.8963 85.0135 50.1915 88.0376 50.1915C91.0616 50.1915 93.5222 52.8862 93.5222 56.78C93.5222 60.5761 91.0616 63.1798 88.0376 63.1798Z" fill="white"/>
<path d="M98.0533 229.205V230.414H99.557V237.225H101.397V227.457H99.9205C99.8997 227.937 99.6918 228.39 99.3422 228.717C98.9925 229.044 98.5294 229.218 98.0533 229.201" fill="white"/>
<path d="M164.506 44.9032C157.768 44.9032 153.06 50.2252 153.06 56.7261C153.06 63.2269 157.854 68.4209 163.729 68.4209C165.462 68.4432 167.169 67.9866 168.664 67.1005V61.3744C168.143 61.9142 167.521 62.3441 166.834 62.639C166.147 62.934 165.409 63.088 164.663 63.0922C161.419 63.0922 158.798 60.3436 158.798 56.7665C158.798 53.0613 161.419 50.3094 164.663 50.3094C167.753 50.3094 170.254 52.9367 170.481 56.2848H170.507V56.5374C170.507 56.6149 170.527 56.689 170.527 56.7665C170.527 56.8439 170.511 56.9147 170.507 56.9922V67.9392H175.905V56.7227C175.905 50.2218 171.198 44.8998 164.503 44.8998" fill="white"/>
<path d="M122.236 233.833C123.903 232.92 125.137 232.203 125.137 230.357C125.137 228.935 124.136 227.416 121.902 227.416C119.669 227.416 118.532 229.1 118.532 230.879H120.385C120.385 229.868 120.956 229.134 121.916 229.134C122.876 229.134 123.296 229.697 123.296 230.343C123.296 230.919 123.116 231.354 121.319 232.341C119.842 233.146 118.405 234.2 118.405 236.383V237.211H125.107V235.48H120.455C120.509 234.891 121.262 234.355 122.236 233.819" fill="white"/>
<path d="M32.0241 42.5959C32.5801 42.5959 33.1236 42.4293 33.5859 42.1172C34.0482 41.805 34.4085 41.3613 34.6211 40.8423C34.8337 40.3232 34.8892 39.7521 34.7805 39.2012C34.6718 38.6503 34.4037 38.1444 34.0103 37.7474C33.6169 37.3504 33.1158 37.0803 32.5703 36.9711C32.0249 36.8619 31.4597 36.9186 30.9461 37.134C30.4326 37.3495 29.9939 37.7139 29.6854 38.1813C29.377 38.6487 29.2127 39.1981 29.2134 39.7598C29.2134 40.1325 29.2861 40.5016 29.4274 40.8459C29.5687 41.1902 29.7758 41.503 30.0368 41.7664C30.2979 42.0299 30.6077 42.2387 30.9487 42.381C31.2897 42.5233 31.6551 42.5964 32.0241 42.5959Z" fill="white"/>
<path d="M26.6795 37.658H20.6314L13.8064 61.0039L6.94143 37.658H0.893311L10.7423 67.9393H16.8738L26.6795 37.658Z" fill="white"/>
<path d="M34.8815 45.4691H29.1802V67.9393H34.8815V45.4691Z" fill="white"/>
<path d="M72.0037 232.681C71.1135 232.54 70.5834 232.412 70.5834 232.031C70.5834 231.765 70.9335 231.455 71.7837 231.455C72.4505 231.455 72.8706 231.724 72.9806 232.061H74.8878C74.651 230.714 73.4274 229.794 71.7837 229.794C69.7065 229.794 68.7163 230.977 68.7163 232.118C68.7163 233.735 70.43 234.089 71.717 234.284C73.004 234.48 73.2207 234.651 73.2207 235.059C73.2207 235.467 72.6639 235.706 71.9237 235.706C71.3803 235.706 70.6434 235.48 70.3934 234.86H68.5262C68.7496 236.423 70.1 237.393 71.9237 237.393C73.7475 237.393 75.0745 236.383 75.0745 234.944C75.0745 233.368 73.7908 232.977 72.0071 232.681" fill="white"/>
<path d="M87.6442 229.794C86.6468 229.794 85.6901 230.195 84.9848 230.907C84.2795 231.62 83.8833 232.586 83.8833 233.594C83.8833 234.601 84.2795 235.568 84.9848 236.28C85.6901 236.993 86.6468 237.393 87.6442 237.393C89.428 237.393 90.6949 236.383 91.115 234.918H89.1546C89.0024 235.186 88.7801 235.407 88.5119 235.556C88.2437 235.705 87.94 235.777 87.6342 235.763C87.2176 235.767 86.8123 235.626 86.4854 235.365C86.1586 235.104 85.9298 234.738 85.8371 234.328H91.2551C91.5218 231.455 89.7647 229.794 87.6475 229.794M85.8671 232.806C85.9706 232.412 86.1998 232.063 86.5193 231.814C86.8388 231.565 87.2307 231.429 87.6342 231.428C88.0443 231.416 88.446 231.547 88.7728 231.797C89.0996 232.048 89.3319 232.403 89.4313 232.806H85.8671Z" fill="white"/>
<path d="M105.982 227.332C104.018 227.332 102.598 228.74 102.598 230.68C102.586 231.114 102.662 231.546 102.822 231.949C102.981 232.353 103.22 232.719 103.523 233.026C103.827 233.333 104.19 233.574 104.589 233.735C104.988 233.896 105.416 233.973 105.845 233.961C106.2 233.97 106.552 233.905 106.881 233.769C107.209 233.633 107.506 233.43 107.752 233.173C107.682 234.763 107.166 235.692 105.955 235.692C105.715 235.715 105.474 235.66 105.266 235.536C105.059 235.412 104.895 235.225 104.798 235.002H102.825C103.158 236.437 104.328 237.393 105.945 237.393C108.453 237.393 109.579 235.372 109.553 231.906C109.509 228.538 107.799 227.332 105.985 227.332M105.985 232.385C105.772 232.383 105.561 232.337 105.365 232.25C105.17 232.164 104.994 232.038 104.848 231.88C104.702 231.723 104.589 231.537 104.517 231.334C104.444 231.131 104.413 230.916 104.425 230.7C104.425 229.757 105.052 228.986 105.985 228.986C106.919 228.986 107.546 229.757 107.546 230.7C107.558 230.916 107.527 231.131 107.454 231.334C107.381 231.537 107.268 231.723 107.123 231.88C106.977 232.038 106.801 232.164 106.605 232.25C106.41 232.337 106.199 232.383 105.985 232.385Z" fill="white"/>
<path d="M115.954 231.964C116.266 231.733 116.518 231.432 116.692 231.084C116.866 230.737 116.956 230.352 116.955 229.963C116.955 228.457 115.644 227.332 113.904 227.332C112.163 227.332 110.866 228.457 110.866 229.963C110.865 230.355 110.955 230.742 111.129 231.093C111.303 231.444 111.555 231.749 111.867 231.984C111.441 232.229 111.087 232.583 110.84 233.011C110.593 233.438 110.462 233.924 110.46 234.419C110.46 236.12 111.95 237.4 113.901 237.4C115.851 237.4 117.355 236.12 117.355 234.419C117.36 233.921 117.232 233.43 116.984 232.999C116.736 232.569 116.378 232.213 115.948 231.97M113.901 228.939C114.527 228.939 115.211 229.292 115.211 230.081C115.211 230.869 114.544 231.249 113.901 231.249C113.739 231.262 113.576 231.241 113.423 231.189C113.269 231.136 113.127 231.053 113.006 230.944C112.885 230.834 112.787 230.702 112.718 230.554C112.649 230.405 112.61 230.244 112.604 230.081C112.604 229.292 113.27 228.939 113.901 228.939ZM113.901 235.78C113.107 235.78 112.233 235.329 112.233 234.331C112.233 233.334 113.067 232.893 113.901 232.893C114.734 232.893 115.568 233.331 115.568 234.331C115.568 235.332 114.704 235.78 113.901 235.78Z" fill="white"/>
<path d="M55.2098 227.46H51.6289V237.228H55.2098C57.8571 237.228 59.5708 235.329 59.5708 232.344C59.5708 229.36 57.9037 227.463 55.2098 227.463M55.2098 235.497H53.4793V229.181H55.2198C57.2969 229.181 57.7404 230.882 57.7404 232.317C57.7404 233.499 57.407 235.483 55.2198 235.483" fill="white"/>
<path d="M64.1217 229.794C63.1243 229.794 62.1677 230.195 61.4624 230.907C60.7571 231.62 60.3608 232.586 60.3608 233.594C60.3608 234.601 60.7571 235.568 61.4624 236.28C62.1677 236.993 63.1243 237.393 64.1217 237.393C65.9055 237.393 67.1725 236.383 67.5926 234.918H65.6288C65.4766 235.186 65.2543 235.407 64.9861 235.556C64.7179 235.705 64.4142 235.777 64.1084 235.763C63.6918 235.767 63.2865 235.626 62.9596 235.365C62.6328 235.104 62.404 234.738 62.3113 234.328H67.7293C67.996 231.455 66.2389 229.794 64.1217 229.794ZM62.3413 232.806C62.4448 232.412 62.674 232.063 62.9935 231.814C63.313 231.565 63.7049 231.429 64.1084 231.428C64.5185 231.416 64.9202 231.547 65.247 231.797C65.5738 232.048 65.8061 232.403 65.9055 232.806H62.3413Z" fill="white"/>
<path d="M81.2259 230.667C80.657 230.116 79.8965 229.814 79.1087 229.825C77.2416 229.825 75.6946 231.455 75.6946 233.607C75.6946 235.76 77.2416 237.38 79.1087 237.38C79.5189 237.385 79.9259 237.305 80.3044 237.145C80.6828 236.985 81.0249 236.749 81.3093 236.45V237.225H83.063V226.756H81.2259V230.667ZM79.3855 235.665C79.1316 235.655 78.8822 235.594 78.652 235.485C78.4217 235.377 78.2151 235.223 78.0442 235.033C77.8732 234.843 77.7414 234.621 77.6562 234.379C77.5711 234.137 77.5345 233.88 77.5484 233.624C77.5484 232.442 78.3686 231.539 79.3855 231.539C80.4024 231.539 81.2259 232.469 81.2259 233.624C81.2486 234.141 81.0676 234.646 80.7227 235.029C80.3778 235.411 79.897 235.64 79.3855 235.665Z" fill="white"/>
</svg>
