<svg width="135" height="68" viewBox="0 0 135 68" fill="none" xmlns="http://www.w3.org/2000/svg">
<rect width="134.656" height="32.6127" rx="13.4417" fill="#32343E"/>
<path d="M67.0622 39.538C66.8746 39.8939 66.365 39.8939 66.1775 39.538L62.096 31.7926C61.9206 31.4597 62.162 31.0595 62.5384 31.0595L70.7013 31.0595C71.0777 31.0595 71.3191 31.4597 71.1436 31.7926L67.0622 39.538Z" fill="#32343E"/>
<path d="M32.9354 16.2788H31.4054V11.7088L29.4354 14.6988H29.3954L27.4454 11.7388V16.2788H25.9354V9.27881H27.5954L29.4354 12.2388L31.2754 9.27881H32.9354V16.2788ZM39.997 13.6088C39.997 15.1488 38.757 16.3988 37.087 16.3988C35.427 16.3988 34.197 15.1688 34.197 13.6288V13.6088C34.197 12.0688 35.437 10.8188 37.107 10.8188C38.767 10.8188 39.997 12.0488 39.997 13.5888V13.6088ZM38.497 13.6288V13.6088C38.497 12.8188 37.927 12.1288 37.087 12.1288C36.217 12.1288 35.697 12.7988 35.697 13.5888V13.6088C35.697 14.3988 36.267 15.0888 37.107 15.0888C37.977 15.0888 38.497 14.4188 38.497 13.6288ZM45.9149 10.9188L43.8049 16.3188H42.4249L40.3149 10.9188H41.9249L43.1249 14.5088L44.3349 10.9188H45.9149ZM51.4882 13.7488C51.4882 13.8988 51.4782 13.9888 51.4682 14.1288H47.7382C47.8882 14.8188 48.3682 15.1788 49.0482 15.1788C49.5582 15.1788 49.9282 15.0188 50.3482 14.6288L51.2182 15.3988C50.7182 16.0188 49.9982 16.3988 49.0282 16.3988C47.4182 16.3988 46.2282 15.2688 46.2282 13.6288V13.6088C46.2282 12.0788 47.3182 10.8188 48.8782 10.8188C50.6682 10.8188 51.4882 12.2088 51.4882 13.7288V13.7488ZM50.0082 13.1788C49.9182 12.4988 49.5182 12.0388 48.8782 12.0388C48.2482 12.0388 47.8382 12.4888 47.7182 13.1788H50.0082ZM55.8511 12.4088H55.7711C54.7611 12.4088 54.1411 13.0188 54.1411 14.2988V16.2788H52.6211V10.9188H54.1411V11.9988C54.4511 11.2588 54.9511 10.7788 55.8511 10.8188V12.4088ZM64.6688 16.2788H63.1488V15.5188C62.7988 15.9688 62.3488 16.3788 61.5788 16.3788C60.4288 16.3788 59.7588 15.6188 59.7588 14.3888V10.9188H61.2788V13.9088C61.2788 14.6288 61.6188 14.9988 62.1988 14.9988C62.7788 14.9988 63.1488 14.6288 63.1488 13.9088V10.9188H64.6688V16.2788ZM71.6593 13.6088C71.6593 15.3988 70.4893 16.3788 69.2193 16.3788C68.4093 16.3788 67.9093 16.0088 67.5493 15.5788V16.2788H66.0293V8.97881H67.5493V11.6888C67.9193 11.1888 68.4293 10.8188 69.2193 10.8188C70.4693 10.8188 71.6593 11.7988 71.6593 13.5888V13.6088ZM70.1393 13.6088V13.5888C70.1393 12.6988 69.5393 12.1088 68.8293 12.1088C68.1193 12.1088 67.5293 12.6988 67.5293 13.5888V13.6088C67.5293 14.4988 68.1193 15.0888 68.8293 15.0888C69.5393 15.0888 70.1393 14.5088 70.1393 13.6088ZM74.4073 10.3288H72.8073V8.97881H74.4073V10.3288ZM74.3673 16.2788H72.8473V10.9188H74.3673V16.2788ZM80.5149 15.4188C79.9949 15.9888 79.3949 16.3988 78.3249 16.3988C76.7149 16.3988 75.5349 15.1588 75.5349 13.6288V13.6088C75.5349 12.0788 76.7049 10.8188 78.3449 10.8188C79.3549 10.8188 79.9849 11.1588 80.4849 11.7188L79.5549 12.7188C79.2149 12.3588 78.8749 12.1288 78.3349 12.1288C77.5749 12.1288 77.0349 12.7988 77.0349 13.5888V13.6088C77.0349 14.4288 77.5649 15.0888 78.3949 15.0888C78.9049 15.0888 79.2549 14.8688 79.6249 14.5188L80.5149 15.4188ZM86.1178 16.2788H84.6478V15.6988C84.2778 16.1088 83.7678 16.3788 83.0278 16.3788C82.0178 16.3788 81.1878 15.7988 81.1878 14.7388V14.7188C81.1878 13.5488 82.0778 13.0088 83.3478 13.0088C83.8878 13.0088 84.2778 13.0988 84.6578 13.2288V13.1388C84.6578 12.5088 84.2678 12.1588 83.5078 12.1588C82.9278 12.1588 82.5178 12.2688 82.0278 12.4488L81.6478 11.2888C82.2378 11.0288 82.8178 10.8588 83.7278 10.8588C85.3878 10.8588 86.1178 11.7188 86.1178 13.1688V16.2788ZM84.6778 14.3888V14.1188C84.4178 13.9988 84.0778 13.9188 83.7078 13.9188C83.0578 13.9188 82.6578 14.1788 82.6578 14.6588V14.6788C82.6578 15.0888 82.9978 15.3288 83.4878 15.3288C84.1978 15.3288 84.6778 14.9388 84.6778 14.3888ZM92.1457 15.4188C91.6257 15.9888 91.0257 16.3988 89.9557 16.3988C88.3457 16.3988 87.1657 15.1588 87.1657 13.6288V13.6088C87.1657 12.0788 88.3357 10.8188 89.9757 10.8188C90.9857 10.8188 91.6157 11.1588 92.1157 11.7188L91.1857 12.7188C90.8457 12.3588 90.5057 12.1288 89.9657 12.1288C89.2057 12.1288 88.6657 12.7988 88.6657 13.5888V13.6088C88.6657 14.4288 89.1957 15.0888 90.0257 15.0888C90.5357 15.0888 90.8857 14.8688 91.2557 14.5188L92.1457 15.4188ZM94.7686 10.3288H93.1686V8.97881H94.7686V10.3288ZM94.7286 16.2788H93.2086V10.9188H94.7286V16.2788ZM101.696 13.6088C101.696 15.1488 100.456 16.3988 98.7862 16.3988C97.1262 16.3988 95.8962 15.1688 95.8962 13.6288V13.6088C95.8962 12.0688 97.1362 10.8188 98.8062 10.8188C100.466 10.8188 101.696 12.0488 101.696 13.5888V13.6088ZM100.196 13.6288V13.6088C100.196 12.8188 99.6262 12.1288 98.7862 12.1288C97.9162 12.1288 97.3962 12.7988 97.3962 13.5888V13.6088C97.3962 14.3988 97.9662 15.0888 98.8062 15.0888C99.6762 15.0888 100.196 14.4188 100.196 13.6288ZM99.3762 10.3288H98.2162L99.3462 8.55881L100.656 9.12881L99.3762 10.3288ZM107.707 16.2788H106.187V13.2888C106.187 12.5688 105.847 12.1988 105.267 12.1988C104.687 12.1988 104.317 12.5688 104.317 13.2888V16.2788H102.797V10.9188H104.317V11.6788C104.667 11.2288 105.117 10.8188 105.887 10.8188C107.037 10.8188 107.707 11.5788 107.707 12.8088V16.2788Z" fill="white"/>
<circle cx="66.7215" cy="55.8033" r="12.1311" fill="#E52823"/>
</svg>
