<svg width="22" height="21" viewBox="0 0 22 21" fill="none" xmlns="http://www.w3.org/2000/svg">
<path d="M11.6617 7.87671L14.8413 4.69714C14.4661 4.32551 14.2534 3.82034 14.2498 3.29222C14.2682 2.74897 14.4922 2.233 14.8766 1.84864C15.261 1.46429 15.7769 1.24023 16.3202 1.2218C16.8564 1.24096 17.3642 1.46753 17.7366 1.85376C18.109 2.23998 18.317 2.75569 18.3167 3.29222C18.6647 3.2732 19.0119 3.34234 19.3261 3.49326C19.6403 3.64417 19.9113 3.87196 20.114 4.15552C20.3167 4.43908 20.4445 4.76922 20.4856 5.11534C20.5267 5.46146 20.4798 5.81237 20.3492 6.13552C20.2185 6.45867 20.0084 6.74361 19.7383 6.96393C19.4682 7.18424 19.1469 7.3328 18.8041 7.39584C18.4613 7.45887 18.1081 7.43433 17.7773 7.32451C17.4465 7.21468 17.1488 7.02311 16.9117 6.76756L13.7322 10.0211" stroke="#E52823" stroke-width="1.5" stroke-linecap="round" stroke-linejoin="round"/>
<path d="M12.6969 14.3837C12.7474 15.6731 12.3468 16.9397 11.564 17.9655C10.7812 18.9912 9.66515 19.7119 8.40816 20.0034C7.53432 20.2093 6.62389 20.2027 5.75309 19.9844C4.88229 19.7661 4.07646 19.3423 3.40308 18.7486C2.72971 18.1549 2.20837 17.4085 1.88273 16.5719C1.55709 15.7352 1.43662 14.8328 1.53141 13.9401C1.65948 12.5734 2.28985 11.3027 3.30059 10.3739C4.31133 9.44516 5.63061 8.92423 7.00323 8.91191C8.07916 8.85791 9.08971 8.37923 9.81308 7.58093L10.6265 6.84149L14.5455 10.7605L14.0279 11.352C13.6094 11.7386 13.2752 12.2074 13.0462 12.7291C12.8172 13.2507 12.6982 13.814 12.6969 14.3837Z" stroke="#E52823" stroke-width="1.5" stroke-linecap="round" stroke-linejoin="round"/>
</svg>
