<svg width="286" height="291" viewBox="0 0 286 291" fill="none" xmlns="http://www.w3.org/2000/svg">
<path d="M3.91396 246.359C14.871 273.096 32.7367 278.662 45.2977 273.096C69.5902 262.333 132.694 250.308 197.503 278.575C283.34 316.014 301.603 259.528 274.208 202.391C246.814 145.254 237.528 87.4729 269.109 55.6387C300.69 23.8046 259.363 -25.9956 185.971 25.8429C138.543 59.3428 103.736 51.8833 85.0443 42.4131C67.4284 33.4877 47.8374 24.1566 29.4824 31.4423C7.21076 40.2831 -1.56499 59.4504 32.3204 102.27C80.3388 162.95 -20.6478 186.426 3.91396 246.359Z" fill="#EFEFEF"/>
<path d="M48.5273 116.108H219.053V247.253C219.053 247.52 218.947 247.776 218.758 247.965C218.569 248.154 218.313 248.26 218.046 248.26H49.5344C49.2673 248.26 49.0112 248.154 48.8223 247.965C48.6334 247.776 48.5273 247.52 48.5273 247.253V116.108Z" fill="#E52823"/>
<path d="M176.274 64.7159H96.9829L48.5273 116.108H219.053L176.274 64.7159Z" fill="#D0D9E1"/>
<path d="M64.679 44.1591L96.9827 64.7161L48.5272 116.108L11.8184 88.2096L64.679 44.1591Z" fill="#8F1C26"/>
<path d="M208.577 44.1591L176.273 64.7161L219.053 116.108L261.438 88.2096L208.577 44.1591Z" fill="#8F1C26"/>
<path d="M117.815 45.2099C118.726 44.7777 119.435 44.0098 119.794 43.0669C120.153 42.124 120.133 41.0789 119.739 40.1501L105.207 5.88341C105.001 5.39804 104.7 4.9593 104.32 4.59358C103.94 4.22786 103.49 3.94271 102.998 3.75527C102.505 3.56784 101.979 3.48199 101.452 3.50289C100.926 3.52379 100.408 3.65101 99.9321 3.87689L97.1324 5.20443C96.6561 5.43031 96.2303 5.75017 95.8807 6.14481C95.5311 6.53944 95.265 7.00069 95.0982 7.50082C94.9315 8.00096 94.8676 8.52964 94.9104 9.0551C94.9532 9.58056 95.1018 10.0919 95.3473 10.5585L112.679 43.4974C113.149 44.3903 113.945 45.067 114.902 45.3861C115.86 45.7053 116.903 45.6421 117.815 45.2099Z" fill="#E52823"/>
<path d="M136.033 41.8881C136.693 41.8411 137.309 41.541 137.753 41.0504C138.197 40.5599 138.434 39.9169 138.414 39.2558L137.696 14.8609C137.686 14.5154 137.606 14.1754 137.461 13.8616C137.317 13.5477 137.11 13.2664 136.853 13.0345C136.597 12.8027 136.296 12.625 135.969 12.5123C135.643 12.3996 135.296 12.3541 134.952 12.3786L132.925 12.5231C132.58 12.5476 132.244 12.6416 131.936 12.7993C131.629 12.9571 131.357 13.1754 131.136 13.4411C130.915 13.7068 130.75 14.0144 130.651 14.3455C130.552 14.6766 130.52 15.0243 130.559 15.3677L133.304 39.6183C133.378 40.2758 133.704 40.879 134.212 41.302C134.721 41.7251 135.373 41.935 136.033 41.8881Z" fill="#E52823"/>
<path d="M150.099 50.906C151.914 51.9552 154.462 50.9924 155.875 48.7231L180.964 8.42903C182.463 6.0219 182.108 3.08805 180.183 1.97522L177.5 0.424318C175.575 -0.688711 172.856 0.467016 171.517 2.9668L149.11 44.8116C147.848 47.1683 148.285 49.8567 150.099 50.906Z" fill="#E52823"/>
</svg>
