<svg width="287" height="288" viewBox="0 0 287 288" fill="none" xmlns="http://www.w3.org/2000/svg">
<path d="M73.9312 11.2131C76.4043 13.6069 79.0099 15.8599 81.908 17.7434C96.6908 27.3532 140.674 50.4756 210.434 41.0257C297.595 29.2185 284.808 114.869 272.266 137.697C259.724 160.524 213.598 202.37 209.723 223.337C205.849 244.303 222.427 301.569 183.584 284.385C144.74 267.201 122.3 226.953 71.3145 231.631C20.329 236.309 -15.6987 214.227 6.87065 174.776C29.44 135.324 56.4235 109.866 21.9823 65.9219C-11.5027 23.2 44.8994 -16.8876 73.9312 11.2131Z" fill="#EFEFEF"/>
<path d="M162.373 55.4731C161.727 54.837 161.357 53.9814 161.341 53.0851C161.325 52.1888 161.664 51.3211 162.288 50.6635L185.286 26.403C185.611 26.0594 186.005 25.7837 186.443 25.5925C186.88 25.4013 187.353 25.2986 187.832 25.2904C188.311 25.2823 188.787 25.369 189.231 25.5453C189.675 25.7215 190.078 25.9837 190.416 26.3161L192.401 28.2701C192.739 28.6025 193.005 28.9982 193.182 29.4335C193.359 29.8688 193.444 30.3346 193.433 30.8029C193.421 31.2712 193.313 31.7324 193.114 32.1587C192.915 32.5851 192.63 32.9677 192.277 33.2837L167.294 55.5902C166.616 56.1949 165.726 56.5205 164.809 56.4986C163.892 56.4768 163.019 56.1094 162.373 55.4731Z" fill="#8F1C26"/>
<path d="M147.816 47.2036C147.266 46.9654 146.832 46.5287 146.604 45.9849C146.376 45.441 146.372 44.832 146.592 44.2852L154.731 24.1111C154.846 23.8253 155.02 23.5653 155.24 23.3467C155.461 23.128 155.725 22.9553 156.016 22.8388C156.307 22.7223 156.618 22.6645 156.933 22.6688C157.247 22.6731 157.557 22.7395 157.844 22.864L159.533 23.5957C159.821 23.7202 160.079 23.9001 160.294 24.1248C160.508 24.3494 160.674 24.6141 160.781 24.903C160.888 25.1918 160.934 25.4988 160.916 25.8054C160.899 26.1121 160.818 26.4122 160.679 26.6876L150.851 46.13C150.585 46.6571 150.12 47.0632 149.555 47.2633C148.989 47.4634 148.366 47.442 147.816 47.2036Z" fill="#8F1C26"/>
<path d="M133.006 50.5009C131.13 50.8309 129.248 49.258 128.739 46.9352L119.712 5.6912C119.174 3.2264 120.381 0.88218 122.371 0.531668L125.144 0.0438602C127.134 -0.306258 129.103 1.47974 129.477 3.97286L135.731 45.7044C136.084 48.0556 134.881 50.1708 133.006 50.5009Z" fill="#8F1C26"/>
<path d="M278.907 89.3157L239.096 84.2999C238.425 84.23 237.749 84.3615 237.157 84.6768C236.565 84.9921 236.086 85.4764 235.783 86.0649L225.197 106.494L180.884 193.111C180.413 194.025 179.624 194.746 178.658 195.144C177.693 195.542 176.613 195.59 175.615 195.281L55.3355 157.758C55.0037 157.655 54.6516 157.63 54.308 157.685C53.9644 157.741 53.6392 157.875 53.3591 158.077C53.0791 158.28 52.8522 158.544 52.6971 158.849C52.542 159.153 52.4631 159.49 52.467 159.83L52.5221 164.712C52.5288 165.39 52.7545 166.05 53.167 166.596C53.5795 167.142 54.1578 167.547 54.8194 167.753L182.078 207.452C183.496 207.894 184.77 208.695 185.77 209.774C186.77 210.853 187.46 212.17 187.771 213.594L187.813 213.788C188.92 219.731 182.929 224.609 177.024 222.858L37.4803 179.27C36.7645 179.047 36.1479 178.593 35.7326 177.981C35.3172 177.369 35.128 176.637 35.1963 175.906L46.1172 59.3506C46.1721 58.7497 46.3557 58.1667 46.6561 57.6396C46.9564 57.1125 47.3669 56.6531 47.8607 56.291C48.3546 55.929 48.9208 55.6726 49.5227 55.5383C50.1245 55.404 50.7486 55.395 51.3542 55.5117L218.524 87.4734L229.291 66.5599C229.602 65.9689 230.091 65.4853 230.692 65.1744C231.293 64.8636 231.978 64.7404 232.652 64.8215L281.403 70.923C281.836 70.9762 282.253 71.1126 282.631 71.3244C283.01 71.5362 283.341 71.8192 283.606 72.1571C283.872 72.4949 284.066 72.8808 284.178 73.2926C284.29 73.7043 284.317 74.1336 284.258 74.5556L282.596 86.5399C282.48 87.3849 282.028 88.151 281.337 88.6711C280.646 89.1911 279.772 89.4228 278.907 89.3157Z" fill="#E52823"/>
<path d="M52.8584 137.802L66.4801 142.052L79.5466 77.2942L58.6346 74.1559L52.8584 137.802Z" fill="#EFEFEF"/>
<path d="M159.736 171.143L173.358 175.393L208.586 102.879L193.582 99.3267L159.736 171.143Z" fill="#EFEFEF"/>
<path d="M107.345 154.8L119.919 158.722L146.852 90.3917L126.275 86.2294L107.345 154.8Z" fill="#EFEFEF"/>
<path d="M91.4069 79.8657L111.984 84.028L93.7231 150.55L80.1016 146.301L91.4069 79.8657Z" fill="#EFEFEF"/>
<path d="M180.673 96.4282L160.095 92.2657L134.588 163.298L147.162 167.221L180.673 96.4282Z" fill="#EFEFEF"/>
<path d="M55.4868 221.351C64.295 221.351 71.4354 214.372 71.4354 205.763C71.4354 197.155 64.295 190.176 55.4868 190.176C46.6786 190.176 39.5381 197.155 39.5381 205.763C39.5381 214.372 46.6786 221.351 55.4868 221.351Z" fill="#8F1C26"/>
<path d="M155.03 252.404C163.838 252.404 170.979 245.425 170.979 236.816C170.979 228.208 163.838 221.229 155.03 221.229C146.222 221.229 139.082 228.208 139.082 236.816C139.082 245.425 146.222 252.404 155.03 252.404Z" fill="#8F1C26"/>
<path d="M286.069 70.2783L244.053 65.1373C243.82 65.1088 243.608 65.2702 243.579 65.4979L241.032 85.3789C241.003 85.6066 241.168 85.8142 241.401 85.8427L283.416 90.9837C283.649 91.0122 283.862 90.8508 283.891 90.6231L286.438 70.7421C286.467 70.5144 286.302 70.3068 286.069 70.2783Z" fill="#8F1C26"/>
</svg>
