<svg width="287" height="298" viewBox="0 0 287 298" fill="none" xmlns="http://www.w3.org/2000/svg">
<path d="M74.6792 9.68624C77.2114 12.1752 79.8783 14.5168 82.8423 16.4719C97.9595 26.4446 142.921 50.4078 214.045 40.2734C302.912 27.611 290.208 117.059 277.505 140.934C264.801 164.809 217.914 208.665 214.045 230.564C210.176 252.463 227.315 312.169 187.622 294.384C147.929 276.599 124.878 234.678 72.8859 239.759C20.894 244.841 -15.9462 221.932 6.92011 180.668C29.7864 139.404 57.2105 112.726 21.9029 66.9929C-12.4247 22.5297 44.9522 -19.5312 74.6792 9.68624Z" fill="#D0D9E1"/>
<path d="M27.5095 122.869L210.128 87.3011L203.102 51.2275C202.864 50.0074 202.389 48.8462 201.702 47.81C201.016 46.7737 200.132 45.8829 199.101 45.1882C198.071 44.4936 196.913 44.0087 195.695 43.7614C194.477 43.5141 193.222 43.5091 192.002 43.7468L24 104.85L27.5095 122.869Z" fill="#8F1C26"/>
<path d="M24.1104 105.423L223.82 66.527C226.691 65.9678 229.667 66.5721 232.092 68.2068C234.518 69.8416 236.194 72.3729 236.754 75.2439L259.722 193.174C260.281 196.045 259.677 199.02 258.042 201.446C256.407 203.871 253.876 205.548 251.005 206.107L62.1203 242.894C59.2493 243.453 56.2737 242.849 53.8482 241.215C51.4227 239.58 49.7459 237.048 49.1868 234.177L24.1104 105.423Z" fill="#E52823"/>
<path d="M172.57 123.896L242.381 110.299C245.252 109.74 248.227 110.344 250.653 111.979C253.078 113.614 254.755 116.145 255.314 119.016L260.499 145.637C261.058 148.508 260.454 151.484 258.819 153.91C257.185 156.335 254.653 158.012 251.782 158.571L181.972 172.167C181.422 172.274 180.853 172.159 180.389 171.846C179.925 171.533 179.604 171.049 179.497 170.499L170.902 126.37C170.795 125.821 170.911 125.252 171.224 124.787C171.537 124.323 172.021 124.003 172.57 123.896Z" fill="#8F1C26"/>
<path d="M200.186 154.823C206.404 154.823 211.444 149.783 211.444 143.566C211.444 137.348 206.404 132.308 200.186 132.308C193.969 132.308 188.929 137.348 188.929 143.566C188.929 149.783 193.969 154.823 200.186 154.823Z" fill="#D0D9E1"/>
</svg>
