<svg width="27" height="25" viewBox="0 0 27 25" fill="none" xmlns="http://www.w3.org/2000/svg">
<path d="M5.625 9.10327C5.625 7.9987 6.52043 7.10327 7.625 7.10327H19.375C20.4796 7.10327 21.375 7.9987 21.375 9.10327V18.3097C21.375 19.9666 20.0319 21.3097 18.375 21.3097H8.625C6.96815 21.3097 5.625 19.9666 5.625 18.3097V9.10327Z" stroke="#E52823" stroke-width="2" stroke-linecap="round" stroke-linejoin="round"/>
<path d="M16.875 7.10317V6.04419C16.875 4.38734 15.5319 3.04419 13.875 3.04419H13.125C11.4681 3.04419 10.125 4.38734 10.125 6.04419V7.10317" stroke="#E52823" stroke-width="2" stroke-linecap="round" stroke-linejoin="round"/>
<path d="M10.125 11.1622L10.125 12.2212C10.125 13.878 11.4681 15.2212 13.125 15.2212L13.875 15.2212C15.5319 15.2212 16.875 13.878 16.875 12.2212L16.875 11.1622" stroke="#E52823" stroke-width="2" stroke-linecap="round" stroke-linejoin="round"/>
</svg>
