<svg width="22" height="21" viewBox="0 0 22 21" fill="none" xmlns="http://www.w3.org/2000/svg">
<path d="M11.6617 7.87683L14.8413 4.69726C14.4661 4.32563 14.2534 3.82046 14.2498 3.29234C14.2682 2.74909 14.4922 2.23312 14.8766 1.84877C15.261 1.46441 15.7769 1.24035 16.3202 1.22192C16.8564 1.24109 17.3642 1.46766 17.7366 1.85388C18.109 2.2401 18.317 2.75581 18.3167 3.29234C18.6647 3.27332 19.0119 3.34247 19.3261 3.49338C19.6403 3.64429 19.9113 3.87208 20.114 4.15564C20.3167 4.4392 20.4445 4.76934 20.4856 5.11546C20.5267 5.46159 20.4798 5.81249 20.3492 6.13564C20.2185 6.45879 20.0084 6.74373 19.7383 6.96405C19.4682 7.18436 19.1469 7.33293 18.8041 7.39596C18.4613 7.45899 18.1081 7.43446 17.7773 7.32463C17.4465 7.2148 17.1488 7.02323 16.9117 6.76768L13.7322 10.0212" stroke="#ADADAF" stroke-width="1.5" stroke-linecap="round" stroke-linejoin="round"/>
<path d="M12.6969 14.3838C12.7474 15.6731 12.3468 16.9398 11.564 17.9655C10.7812 18.9913 9.66515 19.712 8.40816 20.0035C7.53432 20.2093 6.62389 20.2028 5.75309 19.9845C4.88229 19.7662 4.07646 19.3424 3.40308 18.7487C2.72971 18.1549 2.20837 17.4085 1.88273 16.5719C1.55709 15.7353 1.43662 14.8328 1.53141 13.9401C1.65948 12.5734 2.28985 11.3028 3.30059 10.374C4.31133 9.44522 5.63061 8.92429 7.00323 8.91197C8.07916 8.85798 9.08971 8.37929 9.81308 7.58099L10.6265 6.84155L14.5455 10.7606L14.0279 11.3521C13.6094 11.7387 13.2752 12.2075 13.0462 12.7291C12.8172 13.2508 12.6982 13.8141 12.6969 14.3838Z" stroke="#ADADAF" stroke-width="1.5" stroke-linecap="round" stroke-linejoin="round"/>
</svg>
