<svg width="34" height="34" viewBox="0 0 34 34" fill="none" xmlns="http://www.w3.org/2000/svg">
<path d="M8.24097 8.67125L7.74097 9.53728L7.74097 9.53728L8.24097 8.67125ZM6.87495 9.03728L6.00892 8.53728L6.00892 8.53728L6.87495 9.03728ZM5.04161 12.2127L4.17559 11.7127H4.17559L5.04161 12.2127ZM5.40764 13.5787L5.90764 12.7127L5.90764 12.7127L5.40764 13.5787ZM5.40764 20.4213L5.90764 21.2873H5.90764L5.40764 20.4213ZM5.04161 21.7873L5.90764 21.2873L5.04161 21.7873ZM6.87495 24.9627L7.74097 24.4627L6.87495 24.9627ZM8.24097 25.3287L8.74097 26.1948H8.74097L8.24097 25.3287ZM25.7592 25.3287L25.2592 26.1948H25.2592L25.7592 25.3287ZM27.1253 24.9627L26.2592 24.4627L27.1253 24.9627ZM28.9586 21.7873L29.8246 22.2873L28.9586 21.7873ZM28.5926 20.4213L28.0926 21.2873L28.5926 20.4213ZM28.5926 13.5787L29.0926 14.4448H29.0926L28.5926 13.5787ZM28.9586 12.2127L29.8246 11.7127V11.7127L28.9586 12.2127ZM27.1253 9.03728L26.2592 9.53728L27.1253 9.03728ZM25.7592 8.67125L26.2592 9.53728V9.53728L25.7592 8.67125ZM23.1365 10.1855L23.6365 11.0515L23.1365 10.1855ZM21.9679 10.102L21.3828 10.913L21.9679 10.102ZM25.97 15.0928L26.47 15.9589L25.97 15.0928ZM23.1365 23.8145L22.6365 24.6805L23.1365 23.8145ZM25.4576 17.8549L24.4626 17.7555L25.4576 17.8549ZM13.5107 24.753L13.9216 23.8414L13.5107 24.753ZM10.8637 23.8145L11.3637 24.6805L10.8637 23.8145ZM20.4896 24.753L20.0786 23.8414L20.4896 24.753ZM8.54256 17.8549L7.54751 17.9543L8.54256 17.8549ZM8.03016 18.9071L7.53016 18.0411L8.03016 18.9071ZM8.03016 15.0928L8.53016 14.2268L8.03016 15.0928ZM13.5107 9.24697L13.0997 8.33532L13.5107 9.24697ZM15.1668 5.25V5.25V3.25C14.0622 3.25 13.1668 4.14543 13.1668 5.25H15.1668ZM15.1668 8.27649V5.25H13.1668V8.27649H15.1668ZM12.6174 10.913C13.0238 10.6198 13.4604 10.3665 13.9216 10.1586L13.0997 8.33532C12.5148 8.59899 11.9616 8.92 11.4473 9.29105L12.6174 10.913ZM7.74097 9.53728L10.3637 11.0515L11.3637 9.31948L8.74097 7.80523L7.74097 9.53728ZM7.74097 9.53728H7.74097L8.74097 7.80523C7.78439 7.25294 6.56121 7.58069 6.00892 8.53728L7.74097 9.53728ZM5.90764 12.7127L7.74097 9.53728L6.00892 8.53728L4.17559 11.7127L5.90764 12.7127ZM5.90764 12.7127H5.90764L4.17559 11.7127C3.6233 12.6693 3.95105 13.8925 4.90764 14.4448L5.90764 12.7127ZM8.53016 14.2268L5.90764 12.7127L4.90764 14.4448L7.53016 15.9589L8.53016 14.2268ZM9.50011 17C9.50011 16.7447 9.51283 16.4926 9.53761 16.2445L7.54752 16.0457C7.51614 16.3598 7.50011 16.6782 7.50011 17H9.50011ZM9.53761 17.7555C9.51283 17.5073 9.50011 17.2553 9.50011 17H7.50011C7.50011 17.3218 7.51614 17.6402 7.54751 17.9543L9.53761 17.7555ZM5.90764 21.2873L8.53016 19.7732L7.53016 18.0411L4.90764 19.5552L5.90764 21.2873ZM5.90764 21.2873H5.90764L4.90764 19.5552C3.95105 20.1075 3.6233 21.3307 4.17559 22.2873L5.90764 21.2873ZM7.74097 24.4627L5.90764 21.2873L4.17559 22.2873L6.00892 25.4627L7.74097 24.4627ZM7.74097 24.4627H7.74097L6.00892 25.4627C6.5612 26.4193 7.78438 26.747 8.74097 26.1948L7.74097 24.4627ZM10.3637 22.9485L7.74097 24.4627L8.74097 26.1948L11.3637 24.6805L10.3637 22.9485ZM13.9216 23.8414C13.4604 23.6335 13.0238 23.3802 12.6174 23.087L11.4473 24.7089C11.9616 25.08 12.5148 25.401 13.0997 25.6647L13.9216 23.8414ZM15.1668 28.75V25.7235H13.1668V28.75H15.1668ZM15.1668 28.75H15.1668H13.1668C13.1668 29.8546 14.0622 30.75 15.1668 30.75V28.75ZM18.8334 28.75H15.1668V30.75H18.8334V28.75ZM18.8334 28.75H18.8334V30.75C19.938 30.75 20.8334 29.8546 20.8334 28.75H18.8334ZM18.8334 25.7235V28.75H20.8334V25.7235H18.8334ZM21.3828 23.087C20.9764 23.3802 20.5398 23.6335 20.0786 23.8414L20.9005 25.6647C21.4854 25.401 22.0386 25.08 22.5529 24.7089L21.3828 23.087ZM26.2592 24.4627L23.6365 22.9485L22.6365 24.6805L25.2592 26.1948L26.2592 24.4627ZM26.2592 24.4627L26.2592 24.4627L25.2592 26.1948C26.2158 26.747 27.439 26.4193 27.9913 25.4627L26.2592 24.4627ZM28.0926 21.2873L26.2592 24.4627L27.9913 25.4627L29.8246 22.2873L28.0926 21.2873ZM28.0926 21.2873L29.8246 22.2873C30.3769 21.3307 30.0492 20.1075 29.0926 19.5552L28.0926 21.2873ZM25.4701 19.7732L28.0926 21.2873L29.0926 19.5552L26.4701 18.0411L25.4701 19.7732ZM24.5001 17C24.5001 17.2553 24.4874 17.5073 24.4626 17.7555L26.4527 17.9543C26.4841 17.6402 26.5001 17.3218 26.5001 17H24.5001ZM24.4626 16.2445C24.4874 16.4926 24.5001 16.7447 24.5001 17H26.5001C26.5001 16.6782 26.4841 16.3598 26.4527 16.0457L24.4626 16.2445ZM28.0926 12.7127L25.47 14.2268L26.47 15.9589L29.0926 14.4448L28.0926 12.7127ZM28.0926 12.7127V12.7127L29.0926 14.4448C30.0492 13.8925 30.3769 12.6693 29.8246 11.7127L28.0926 12.7127ZM26.2592 9.53728L28.0926 12.7127L29.8246 11.7127L27.9913 8.53728L26.2592 9.53728ZM26.2592 9.53728V9.53728L27.9913 8.53728C27.439 7.5807 26.2158 7.25294 25.2592 7.80523L26.2592 9.53728ZM23.6365 11.0515L26.2592 9.53728L25.2592 7.80523L22.6365 9.31948L23.6365 11.0515ZM20.0786 10.1586C20.5398 10.3665 20.9764 10.6198 21.3828 10.913L22.5529 9.29104C22.0386 8.92 21.4854 8.59899 20.9005 8.33532L20.0786 10.1586ZM18.8334 5.25V8.27649H20.8334V5.25H18.8334ZM18.8334 5.25H18.8334H20.8334C20.8334 4.14543 19.938 3.25 18.8334 3.25V5.25ZM15.1668 5.25H18.8334V3.25H15.1668V5.25ZM20.9005 8.33532C20.8698 8.32148 20.8498 8.30213 20.8399 8.28776C20.8313 8.27529 20.8334 8.27213 20.8334 8.27649H18.8334C18.8334 9.13999 19.378 9.84282 20.0786 10.1586L20.9005 8.33532ZM22.6365 9.31948C22.6402 9.31732 22.6386 9.3207 22.6236 9.3195C22.6064 9.31811 22.58 9.31054 22.5529 9.29104L21.3828 10.913C22.0069 11.3633 22.8885 11.4834 23.6365 11.0515L22.6365 9.31948ZM26.4527 16.0457C26.4494 16.0125 26.4561 15.9857 26.4635 15.9701C26.47 15.9565 26.4738 15.9567 26.47 15.9589L25.47 14.2268C24.7231 14.6581 24.3862 15.48 24.4626 16.2445L26.4527 16.0457ZM22.5529 24.7089C22.58 24.6895 22.6064 24.6819 22.6237 24.6805C22.6386 24.6793 22.6402 24.6827 22.6365 24.6805L23.6365 22.9485C22.8885 22.5166 22.0069 22.6367 21.3828 23.087L22.5529 24.7089ZM26.4701 18.0411C26.4738 18.0433 26.47 18.0435 26.4635 18.0299C26.4561 18.0143 26.4494 17.9875 26.4527 17.9543L24.4626 17.7555C24.3862 18.52 24.7231 19.3419 25.4701 19.7732L26.4701 18.0411ZM13.0997 25.6647C13.1304 25.6785 13.1504 25.6979 13.1603 25.7122C13.1689 25.7247 13.1668 25.7279 13.1668 25.7235H15.1668C15.1668 24.86 14.6222 24.1572 13.9216 23.8414L13.0997 25.6647ZM11.3637 24.6805C11.36 24.6827 11.3616 24.6793 11.3766 24.6805C11.3938 24.6819 11.4202 24.6894 11.4473 24.7089L12.6174 23.087C11.9933 22.6367 11.1117 22.5166 10.3637 22.9485L11.3637 24.6805ZM20.8334 25.7235C20.8334 25.7279 20.8313 25.7247 20.8399 25.7122C20.8498 25.6979 20.8698 25.6785 20.9005 25.6647L20.0786 23.8414C19.378 24.1572 18.8334 24.86 18.8334 25.7235H20.8334ZM7.54751 17.9543C7.55083 17.9875 7.54411 18.0143 7.53666 18.0299C7.53021 18.0435 7.52643 18.0433 7.53016 18.0411L8.53016 19.7732C9.27708 19.3419 9.61396 18.52 9.53761 17.7555L7.54751 17.9543ZM7.53016 15.9589C7.52643 15.9567 7.53021 15.9565 7.53667 15.9701C7.54411 15.9857 7.55083 16.0125 7.54752 16.0457L9.53761 16.2445C9.61397 15.48 9.27708 14.6581 8.53016 14.2268L7.53016 15.9589ZM11.4473 9.29105C11.4202 9.31054 11.3938 9.31811 11.3766 9.3195C11.3616 9.3207 11.36 9.31732 11.3637 9.31948L10.3637 11.0515C11.1117 11.4834 11.9933 11.3633 12.6174 10.913L11.4473 9.29105ZM13.1668 8.27649C13.1668 8.27213 13.1689 8.27529 13.1603 8.28776C13.1504 8.30213 13.1304 8.32148 13.0997 8.33532L13.9216 10.1586C14.6222 9.84282 15.1668 9.13999 15.1668 8.27649H13.1668Z" fill="white"/>
<circle cx="17" cy="17" r="4.25" stroke="white" stroke-width="2" stroke-linecap="round" stroke-linejoin="round"/>
</svg>
