<svg width="34" height="34" viewBox="0 0 34 34" fill="none" xmlns="http://www.w3.org/2000/svg">
<path fill-rule="evenodd" clip-rule="evenodd" d="M15.1665 4.25C14.6142 4.25 14.1665 4.69772 14.1665 5.25V8.27649C14.1665 8.70031 13.8968 9.07281 13.5104 9.24697C12.9874 9.48276 12.4924 9.76992 12.0321 10.102C11.6883 10.3501 11.2306 10.3975 10.8635 10.1855L8.24073 8.67125C7.76243 8.39511 7.15084 8.55899 6.8747 9.03728L5.04137 12.2127C4.76523 12.691 4.9291 13.3026 5.40739 13.5787L8.02992 15.0928C8.39658 15.3045 8.5844 15.7238 8.54232 16.1451C8.51424 16.4262 8.49986 16.7114 8.49986 17C8.49986 17.2886 8.51424 17.5738 8.54232 17.8549C8.58439 18.2762 8.39658 18.6954 8.02991 18.9071L5.40739 20.4213C4.9291 20.6974 4.76523 21.309 5.04137 21.7873L6.8747 24.9627C7.15084 25.441 7.76243 25.6049 8.24073 25.3287L10.8635 23.8145C11.2306 23.6025 11.6883 23.6499 12.0321 23.898C12.4924 24.2301 12.9873 24.5172 13.5104 24.753C13.8968 24.9272 14.1665 25.2997 14.1665 25.7235V28.75C14.1665 29.3023 14.6142 29.75 15.1665 29.75H18.8332C19.3855 29.75 19.8332 29.3023 19.8332 28.75V25.7235C19.8332 25.2997 20.1029 24.9272 20.4893 24.753C21.0124 24.5172 21.5073 24.2301 21.9676 23.898C22.3115 23.6499 22.7691 23.6025 23.1362 23.8145L25.759 25.3287C26.2373 25.6049 26.8489 25.441 27.125 24.9627L28.9583 21.7873C29.2345 21.309 29.0706 20.6974 28.5923 20.4213L25.9698 18.9071C25.6031 18.6955 25.4153 18.2762 25.4574 17.8549C25.4855 17.5738 25.4999 17.2886 25.4999 17C25.4999 16.7114 25.4855 16.4262 25.4574 16.1451C25.4153 15.7238 25.6031 15.3045 25.9698 15.0928L28.5923 13.5787C29.0706 13.3026 29.2345 12.691 28.9584 12.2127L27.125 9.03728C26.8489 8.55899 26.2373 8.39511 25.759 8.67125L23.1362 10.1855C22.7691 10.3975 22.3114 10.3501 21.9676 10.102C21.5073 9.76992 21.0124 9.48276 20.4893 9.24697C20.1029 9.0728 19.8332 8.70031 19.8332 8.27649V5.25C19.8332 4.69772 19.3855 4.25 18.8332 4.25H15.1665Z" fill="white"/>
<path d="M8.24073 8.67125L7.74073 9.53728L7.74073 9.53728L8.24073 8.67125ZM6.8747 9.03728L6.00868 8.53728L6.00868 8.53728L6.8747 9.03728ZM5.04137 12.2127L4.17534 11.7127H4.17534L5.04137 12.2127ZM5.40739 13.5787L5.90739 12.7127L5.90739 12.7127L5.40739 13.5787ZM5.40739 20.4213L5.90739 21.2873H5.90739L5.40739 20.4213ZM5.04137 21.7873L5.90739 21.2873L5.04137 21.7873ZM6.8747 24.9627L7.74073 24.4627L6.8747 24.9627ZM8.24073 25.3287L8.74073 26.1948H8.74073L8.24073 25.3287ZM25.759 25.3287L25.259 26.1948H25.259L25.759 25.3287ZM27.125 24.9627L26.259 24.4627L27.125 24.9627ZM28.9583 21.7873L29.8244 22.2873L28.9583 21.7873ZM28.5923 20.4213L28.0923 21.2873L28.5923 20.4213ZM28.5923 13.5787L29.0923 14.4448H29.0923L28.5923 13.5787ZM28.9584 12.2127L29.8244 11.7127V11.7127L28.9584 12.2127ZM27.125 9.03728L26.259 9.53728L27.125 9.03728ZM25.759 8.67125L26.259 9.53728V9.53728L25.759 8.67125ZM23.1362 10.1855L23.6362 11.0515L23.1362 10.1855ZM21.9676 10.102L21.3825 10.913L21.9676 10.102ZM25.9698 15.0928L26.4698 15.9589L25.9698 15.0928ZM23.1362 23.8145L22.6362 24.6805L23.1362 23.8145ZM25.4574 17.8549L24.4624 17.7555L25.4574 17.8549ZM13.5104 24.753L13.9214 23.8414L13.5104 24.753ZM10.8635 23.8145L11.3635 24.6805L10.8635 23.8145ZM20.4893 24.753L20.0784 23.8414L20.4893 24.753ZM8.54232 17.8549L7.54727 17.9543L8.54232 17.8549ZM8.02991 18.9071L7.52991 18.0411L8.02991 18.9071ZM8.02992 15.0928L8.52992 14.2268L8.02992 15.0928ZM13.5104 9.24697L13.0995 8.33532L13.5104 9.24697ZM15.1665 5.25V5.25V3.25C14.062 3.25 13.1665 4.14543 13.1665 5.25H15.1665ZM15.1665 8.27649V5.25H13.1665V8.27649H15.1665ZM12.6172 10.913C13.0235 10.6198 13.4602 10.3665 13.9214 10.1586L13.0995 8.33532C12.5145 8.59899 11.9613 8.92 11.447 9.29105L12.6172 10.913ZM7.74073 9.53728L10.3635 11.0515L11.3635 9.31948L8.74073 7.80523L7.74073 9.53728ZM7.74073 9.53728H7.74073L8.74073 7.80523C7.78414 7.25294 6.56096 7.58069 6.00868 8.53728L7.74073 9.53728ZM5.90739 12.7127L7.74073 9.53728L6.00868 8.53728L4.17534 11.7127L5.90739 12.7127ZM5.90739 12.7127H5.90739L4.17534 11.7127C3.62306 12.6693 3.95081 13.8925 4.90739 14.4448L5.90739 12.7127ZM8.52992 14.2268L5.90739 12.7127L4.90739 14.4448L7.52992 15.9589L8.52992 14.2268ZM9.49986 17C9.49986 16.7447 9.51258 16.4926 9.53737 16.2445L7.54727 16.0457C7.5159 16.3598 7.49986 16.6782 7.49986 17H9.49986ZM9.53737 17.7555C9.51258 17.5073 9.49986 17.2553 9.49986 17H7.49986C7.49986 17.3218 7.5159 17.6402 7.54727 17.9543L9.53737 17.7555ZM5.90739 21.2873L8.52991 19.7732L7.52991 18.0411L4.90739 19.5552L5.90739 21.2873ZM5.90739 21.2873H5.90739L4.90739 19.5552C3.95081 20.1075 3.62306 21.3307 4.17534 22.2873L5.90739 21.2873ZM7.74073 24.4627L5.90739 21.2873L4.17534 22.2873L6.00868 25.4627L7.74073 24.4627ZM7.74073 24.4627H7.74073L6.00868 25.4627C6.56096 26.4193 7.78414 26.747 8.74073 26.1948L7.74073 24.4627ZM10.3635 22.9485L7.74073 24.4627L8.74073 26.1948L11.3635 24.6805L10.3635 22.9485ZM13.9214 23.8414C13.4602 23.6335 13.0235 23.3802 12.6172 23.087L11.447 24.7089C11.9613 25.08 12.5145 25.401 13.0995 25.6647L13.9214 23.8414ZM15.1665 28.75V25.7235H13.1665V28.75H15.1665ZM15.1665 28.75H15.1665H13.1665C13.1665 29.8546 14.062 30.75 15.1665 30.75V28.75ZM18.8332 28.75H15.1665V30.75H18.8332V28.75ZM18.8332 28.75H18.8332V30.75C19.9378 30.75 20.8332 29.8546 20.8332 28.75H18.8332ZM18.8332 25.7235V28.75H20.8332V25.7235H18.8332ZM21.3826 23.087C20.9762 23.3802 20.5395 23.6335 20.0784 23.8414L20.9003 25.6647C21.4852 25.401 22.0384 25.08 22.5527 24.7089L21.3826 23.087ZM26.259 24.4627L23.6362 22.9485L22.6362 24.6805L25.259 26.1948L26.259 24.4627ZM26.259 24.4627L26.259 24.4627L25.259 26.1948C26.2156 26.747 27.4388 26.4193 27.991 25.4627L26.259 24.4627ZM28.0923 21.2873L26.259 24.4627L27.991 25.4627L29.8244 22.2873L28.0923 21.2873ZM28.0923 21.2873L29.8244 22.2873C30.3767 21.3307 30.0489 20.1075 29.0923 19.5552L28.0923 21.2873ZM25.4698 19.7732L28.0923 21.2873L29.0923 19.5552L26.4698 18.0411L25.4698 19.7732ZM24.4999 17C24.4999 17.2553 24.4871 17.5073 24.4624 17.7555L26.4525 17.9543C26.4838 17.6402 26.4999 17.3218 26.4999 17H24.4999ZM24.4624 16.2445C24.4871 16.4926 24.4999 16.7447 24.4999 17H26.4999C26.4999 16.6782 26.4838 16.3598 26.4525 16.0457L24.4624 16.2445ZM28.0923 12.7127L25.4698 14.2268L26.4698 15.9589L29.0923 14.4448L28.0923 12.7127ZM28.0923 12.7127V12.7127L29.0923 14.4448C30.0489 13.8925 30.3767 12.6693 29.8244 11.7127L28.0923 12.7127ZM26.259 9.53728L28.0923 12.7127L29.8244 11.7127L27.991 8.53728L26.259 9.53728ZM26.259 9.53728V9.53728L27.991 8.53728C27.4388 7.5807 26.2156 7.25294 25.259 7.80523L26.259 9.53728ZM23.6362 11.0515L26.259 9.53728L25.259 7.80523L22.6362 9.31948L23.6362 11.0515ZM20.0784 10.1586C20.5395 10.3665 20.9762 10.6198 21.3825 10.913L22.5527 9.29104C22.0384 8.92 21.4852 8.59899 20.9003 8.33532L20.0784 10.1586ZM18.8332 5.25V8.27649H20.8332V5.25H18.8332ZM18.8332 5.25H18.8332H20.8332C20.8332 4.14543 19.9378 3.25 18.8332 3.25V5.25ZM15.1665 5.25H18.8332V3.25H15.1665V5.25ZM20.9003 8.33532C20.8696 8.32148 20.8496 8.30213 20.8397 8.28776C20.8311 8.27529 20.8332 8.27213 20.8332 8.27649H18.8332C18.8332 9.13999 19.3778 9.84282 20.0784 10.1586L20.9003 8.33532ZM22.6362 9.31948C22.64 9.31732 22.6383 9.3207 22.6234 9.3195C22.6062 9.31811 22.5797 9.31054 22.5527 9.29104L21.3825 10.913C22.0067 11.3633 22.8883 11.4834 23.6362 11.0515L22.6362 9.31948ZM26.4525 16.0457C26.4491 16.0125 26.4559 15.9857 26.4633 15.9701C26.4698 15.9565 26.4735 15.9567 26.4698 15.9589L25.4698 14.2268C24.7229 14.6581 24.386 15.48 24.4624 16.2445L26.4525 16.0457ZM22.5527 24.7089C22.5797 24.6895 22.6062 24.6819 22.6234 24.6805C22.6383 24.6793 22.64 24.6827 22.6362 24.6805L23.6362 22.9485C22.8883 22.5166 22.0067 22.6367 21.3826 23.087L22.5527 24.7089ZM26.4698 18.0411C26.4735 18.0433 26.4698 18.0435 26.4633 18.0299C26.4559 18.0143 26.4491 17.9875 26.4525 17.9543L24.4624 17.7555C24.386 18.52 24.7229 19.3419 25.4698 19.7732L26.4698 18.0411ZM13.0995 25.6647C13.1302 25.6785 13.1501 25.6979 13.16 25.7122C13.1686 25.7247 13.1665 25.7279 13.1665 25.7235H15.1665C15.1665 24.86 14.622 24.1572 13.9214 23.8414L13.0995 25.6647ZM11.3635 24.6805C11.3597 24.6827 11.3614 24.6793 11.3763 24.6805C11.3935 24.6819 11.42 24.6894 11.447 24.7089L12.6172 23.087C11.9931 22.6367 11.1114 22.5166 10.3635 22.9485L11.3635 24.6805ZM20.8332 25.7235C20.8332 25.7279 20.8311 25.7247 20.8397 25.7122C20.8496 25.6979 20.8696 25.6785 20.9003 25.6647L20.0784 23.8414C19.3778 24.1572 18.8332 24.86 18.8332 25.7235H20.8332ZM7.54727 17.9543C7.55059 17.9875 7.54386 18.0143 7.53642 18.0299C7.52996 18.0435 7.52618 18.0433 7.52991 18.0411L8.52991 19.7732C9.27684 19.3419 9.61372 18.52 9.53737 17.7555L7.54727 17.9543ZM7.52992 15.9589C7.52618 15.9567 7.52996 15.9565 7.53642 15.9701C7.54386 15.9857 7.55059 16.0125 7.54727 16.0457L9.53737 16.2445C9.61372 15.48 9.27684 14.6581 8.52992 14.2268L7.52992 15.9589ZM11.447 9.29105C11.42 9.31054 11.3935 9.31811 11.3763 9.3195C11.3614 9.3207 11.3597 9.31732 11.3635 9.31948L10.3635 11.0515C11.1114 11.4834 11.9931 11.3633 12.6172 10.913L11.447 9.29105ZM13.1665 8.27649C13.1665 8.27213 13.1686 8.27529 13.16 8.28776C13.1501 8.30213 13.1301 8.32148 13.0995 8.33532L13.9214 10.1586C14.622 9.84282 15.1665 9.13999 15.1665 8.27649H13.1665Z" fill="white"/>
<circle cx="17" cy="17" r="4.25" fill="#E52823" stroke="#E52823" stroke-width="2" stroke-linecap="round" stroke-linejoin="round"/>
</svg>
