<svg width="34" height="32" viewBox="0 0 34 32" fill="none" xmlns="http://www.w3.org/2000/svg">
<path d="M8.26175 8.67634L8.72364 7.7894L8.72364 7.7894L8.26175 8.67634ZM6.83571 9.05669L7.67795 9.59579L7.67795 9.59579L6.83571 9.05669ZM5.08058 11.7987L5.92282 12.3378L5.92282 12.3378L5.08058 11.7987ZM5.42842 13.1029L5.89031 12.2159L5.89031 12.2159L5.42842 13.1029ZM5.42842 19.253L4.96653 18.3661L4.96653 18.3661L5.42842 19.253ZM5.08058 20.5571L5.92282 20.018L5.92282 20.018L5.08058 20.5571ZM6.83571 23.2992L7.67795 22.7601L6.83571 23.2992ZM8.26175 23.6795L8.72364 24.5665L8.72364 24.5665L8.26175 23.6795ZM25.7382 23.6795L25.2763 24.5665L25.2763 24.5665L25.7382 23.6795ZM27.1642 23.2992L28.0065 23.8383L28.0065 23.8383L27.1642 23.2992ZM28.9194 20.5571L28.0771 20.018L28.0771 20.018L28.9194 20.5571ZM28.5715 19.253L29.0334 18.3661L29.0334 18.3661L28.5715 19.253ZM28.5715 13.1029L29.0334 13.9898L29.0334 13.9898L28.5715 13.1029ZM28.9194 11.7987L28.0771 12.3378L28.0771 12.3378L28.9194 11.7987ZM27.1642 9.05669L28.0065 8.51759L28.0065 8.51758L27.1642 9.05669ZM25.7382 8.67634L26.2001 9.56327L26.2001 9.56327L25.7382 8.67634ZM23.0906 10.0551L22.6287 9.16818L23.0906 10.0551ZM22.0034 9.97931L21.4538 10.8148L22.0034 9.97931ZM25.4693 15.5221L24.4737 15.6156L25.4693 15.5221ZM26.0274 14.4278L25.5655 13.5408L25.5655 13.5408L26.0274 14.4278ZM22.0034 22.3766L22.553 23.212L22.0034 22.3766ZM23.0906 22.3008L23.5525 21.4138L23.0906 22.3008ZM26.0274 17.9281L25.5655 18.8151L26.0274 17.9281ZM25.4693 16.8338L24.4737 16.7403L25.4693 16.8338ZM13.4801 23.1587L13.1001 24.0837L13.4801 23.1587ZM10.9093 22.3008L10.4474 21.4138L10.9093 22.3008ZM11.9966 22.3766L12.5462 21.5411L11.9966 22.3766ZM20.5198 23.1587L20.1398 22.2338L20.5198 23.1587ZM8.53064 16.8338L7.53502 16.9273L8.53064 16.8338ZM7.97254 14.4278L8.43443 13.5408L7.97254 14.4278ZM11.9966 9.97932L11.447 9.14388L11.9966 9.97932ZM10.9093 10.0551L10.4475 10.9421L10.4475 10.9421L10.9093 10.0551ZM13.4801 9.19717L13.1001 8.27221L13.4801 9.19717ZM15.1666 5.67749V5.67749V3.67749C14.0621 3.67749 13.1666 4.57292 13.1666 5.67749H15.1666ZM15.1666 8.21646V5.67749H13.1666V8.21646H15.1666ZM12.5462 10.8148C12.9538 10.5466 13.3936 10.3138 13.8602 10.1221L13.1001 8.27221C12.5159 8.51223 11.9624 8.80481 11.447 9.14388L12.5462 10.8148ZM7.79986 9.56327L10.4475 10.9421L11.3712 9.16818L8.72364 7.7894L7.79986 9.56327ZM7.67795 9.59579C7.68063 9.59161 7.69619 9.57283 7.7344 9.56264C7.77262 9.55245 7.79547 9.56098 7.79986 9.56327L8.72364 7.7894C7.77459 7.29516 6.57033 7.61636 5.99347 8.51759L7.67795 9.59579ZM5.92282 12.3378L7.67795 9.59579L5.99347 8.51759L4.23834 11.2596L5.92282 12.3378ZM5.89031 12.2159C5.8883 12.2149 5.89522 12.2183 5.90436 12.2296C5.91316 12.2406 5.92089 12.255 5.92538 12.2719C5.92987 12.2887 5.93037 12.3051 5.92818 12.3189C5.92591 12.3333 5.9216 12.3397 5.92282 12.3378L4.23834 11.2596C3.6239 12.2196 3.95564 13.4634 4.96653 13.9898L5.89031 12.2159ZM8.43443 13.5408L5.89031 12.2159L4.96653 13.9898L7.51066 15.3147L8.43443 13.5408ZM9.49997 16.1779C9.49997 15.9883 9.50887 15.8008 9.52626 15.6156L7.53502 15.4286C7.5118 15.6758 7.49997 15.9257 7.49997 16.1779H9.49997ZM9.52626 16.7403C9.50887 16.5551 9.49997 16.3676 9.49997 16.1779H7.49997C7.49997 16.4301 7.5118 16.6801 7.53502 16.9273L9.52626 16.7403ZM5.89031 20.1399L8.43443 18.8151L7.51065 17.0412L4.96653 18.3661L5.89031 20.1399ZM5.92282 20.018C5.9216 20.0161 5.92591 20.0225 5.92818 20.0369C5.93037 20.0508 5.92987 20.0672 5.92538 20.084C5.92089 20.1009 5.91316 20.1153 5.90436 20.1262C5.89522 20.1376 5.8883 20.141 5.89031 20.1399L4.96653 18.3661C3.95564 18.8925 3.6239 20.1363 4.23834 21.0962L5.92282 20.018ZM7.67795 22.7601L5.92282 20.018L4.23834 21.0962L5.99347 23.8383L7.67795 22.7601ZM7.79987 22.7926C7.79547 22.7949 7.77262 22.8034 7.7344 22.7932C7.69619 22.783 7.68062 22.7643 7.67795 22.7601L5.99347 23.8383C6.57033 24.7395 7.77459 25.0607 8.72364 24.5665L7.79987 22.7926ZM10.4474 21.4138L7.79986 22.7926L8.72364 24.5665L11.3712 23.1877L10.4474 21.4138ZM13.8602 22.2338C13.3936 22.0421 12.9537 21.8093 12.5462 21.5411L11.447 23.212C11.9624 23.5511 12.5159 23.8437 13.1001 24.0837L13.8602 22.2338ZM15.1666 26.6784V24.1394H13.1666V26.6784H15.1666ZM15.1666 26.6784H15.1666H13.1666C13.1666 27.783 14.0621 28.6784 15.1666 28.6784V26.6784ZM18.8333 26.6784H15.1666V28.6784H18.8333V26.6784ZM18.8333 26.6784V28.6784C19.9379 28.6784 20.8333 27.783 20.8333 26.6784H18.8333ZM18.8333 24.1394V26.6784H20.8333V24.1394H18.8333ZM21.4538 21.5411C21.0462 21.8093 20.6063 22.0421 20.1398 22.2338L20.8999 24.0837C21.484 23.8437 22.0375 23.5511 22.553 23.212L21.4538 21.5411ZM26.2001 22.7926L23.5525 21.4138L22.6287 23.1877L25.2763 24.5665L26.2001 22.7926ZM26.322 22.7601C26.3193 22.7643 26.3038 22.783 26.2655 22.7932C26.2273 22.8034 26.2045 22.7949 26.2001 22.7926L25.2763 24.5665C26.2254 25.0607 27.4296 24.7395 28.0065 23.8383L26.322 22.7601ZM28.0771 20.018L26.322 22.7601L28.0065 23.8383L29.7616 21.0962L28.0771 20.018ZM28.1096 20.1399C28.1116 20.141 28.1047 20.1376 28.0956 20.1262C28.0868 20.1153 28.0791 20.1009 28.0746 20.084C28.0701 20.0672 28.0696 20.0508 28.0718 20.0369C28.074 20.0225 28.0783 20.0161 28.0771 20.018L29.7616 21.0962C30.376 20.1363 30.0443 18.8925 29.0334 18.3661L28.1096 20.1399ZM25.5655 18.8151L28.1096 20.14L29.0334 18.3661L26.4893 17.0412L25.5655 18.8151ZM24.5 16.1779C24.5 16.3676 24.4911 16.5551 24.4737 16.7403L26.4649 16.9273C26.4881 16.6801 26.5 16.4301 26.5 16.1779H24.5ZM24.4737 15.6156C24.4911 15.8008 24.5 15.9883 24.5 16.1779H26.5C26.5 15.9257 26.4881 15.6758 26.4649 15.4286L24.4737 15.6156ZM28.1096 12.2159L25.5655 13.5408L26.4893 15.3147L29.0334 13.9898L28.1096 12.2159ZM28.0771 12.3378C28.0783 12.3397 28.074 12.3333 28.0718 12.319C28.0696 12.3051 28.0701 12.2887 28.0746 12.2719C28.0791 12.255 28.0868 12.2406 28.0956 12.2296C28.1047 12.2183 28.1116 12.2149 28.1096 12.2159L29.0334 13.9898C30.0443 13.4634 30.376 12.2196 29.7616 11.2596L28.0771 12.3378ZM26.322 9.59579L28.0771 12.3378L29.7616 11.2596L28.0065 8.51759L26.322 9.59579ZM26.2001 9.56327C26.2045 9.56099 26.2273 9.55245 26.2655 9.56264C26.3038 9.57283 26.3193 9.59162 26.322 9.59579L28.0065 8.51758C27.4296 7.61636 26.2254 7.29516 25.2763 7.7894L26.2001 9.56327ZM23.5525 10.9421L26.2001 9.56327L25.2763 7.7894L22.6287 9.16818L23.5525 10.9421ZM20.1398 10.1221C20.6063 10.3138 21.0462 10.5466 21.4538 10.8148L22.553 9.14388C22.0375 8.80481 21.484 8.51223 20.8999 8.27221L20.1398 10.1221ZM18.8333 5.67749V8.21646H20.8333V5.67749H18.8333ZM18.8333 5.67749H18.8333H20.8333C20.8333 4.57292 19.9379 3.67749 18.8333 3.67749V5.67749ZM15.1666 5.67749H18.8333V3.67749H15.1666V5.67749ZM20.8999 8.27221C20.8697 8.2598 20.8497 8.24135 20.8398 8.22736C20.8352 8.22094 20.8336 8.21684 20.8333 8.21583C20.8331 8.21531 20.8332 8.21528 20.8332 8.21566C20.8333 8.21583 20.8333 8.21601 20.8333 8.21619C20.8333 8.21637 20.8333 8.21647 20.8333 8.21646H18.8333C18.8333 9.10283 19.4062 9.8207 20.1398 10.1221L20.8999 8.27221ZM22.6287 9.16818C22.6324 9.16627 22.6306 9.16912 22.6173 9.16808C22.6022 9.1669 22.5784 9.16064 22.553 9.14388L21.4538 10.8148C22.0465 11.2047 22.849 11.3084 23.5525 10.9421L22.6287 9.16818ZM26.4649 15.4286C26.4609 15.3854 26.47 15.3502 26.4802 15.3295C26.4891 15.3116 26.4942 15.3122 26.4893 15.3147L25.5655 13.5408C24.7554 13.9627 24.3999 14.8295 24.4737 15.6156L26.4649 15.4286ZM22.553 23.212C22.5785 23.1952 22.6022 23.189 22.6174 23.1878C22.6307 23.1868 22.6324 23.1896 22.6287 23.1877L23.5525 21.4138C22.849 21.0475 22.0465 21.1512 21.4538 21.5411L22.553 23.212ZM26.4893 17.0412C26.4942 17.0437 26.4891 17.0443 26.4802 17.0264C26.47 17.0057 26.4609 16.9704 26.4649 16.9273L24.4737 16.7403C24.3999 17.5264 24.7554 18.3932 25.5655 18.8151L26.4893 17.0412ZM13.1001 24.0837C13.1302 24.0961 13.1502 24.1145 13.1602 24.1285C13.1648 24.1349 13.1663 24.139 13.1666 24.1401C13.1668 24.1406 13.1668 24.1406 13.1667 24.1402C13.1667 24.1401 13.1667 24.1399 13.1667 24.1397C13.1666 24.1395 13.1666 24.1394 13.1666 24.1394H15.1666C15.1666 23.2531 14.5938 22.5352 13.8602 22.2338L13.1001 24.0837ZM11.3712 23.1877C11.3676 23.1896 11.3693 23.1868 11.3826 23.1878C11.3977 23.189 11.4215 23.1952 11.447 23.212L12.5462 21.5411C11.9535 21.1512 11.151 21.0475 10.4474 21.4138L11.3712 23.1877ZM20.8333 24.1394C20.8333 24.1394 20.8333 24.1395 20.8333 24.1397C20.8333 24.1399 20.8333 24.1401 20.8332 24.1402C20.8332 24.1406 20.8331 24.1406 20.8333 24.1401C20.8336 24.139 20.8352 24.1349 20.8398 24.1285C20.8497 24.1145 20.8697 24.0961 20.8999 24.0837L20.1398 22.2338C19.4062 22.5352 18.8333 23.2531 18.8333 24.1394H20.8333ZM7.53502 16.9273C7.53907 16.9704 7.52997 17.0057 7.51971 17.0264C7.51085 17.0443 7.50577 17.0437 7.51065 17.0412L8.43443 18.8151C9.24457 18.3932 9.60009 17.5264 9.52626 16.7403L7.53502 16.9273ZM7.51066 15.3147C7.50577 15.3122 7.51085 15.3116 7.51971 15.3295C7.52997 15.3502 7.53907 15.3855 7.53502 15.4286L9.52626 15.6156C9.60009 14.8295 9.24458 13.9627 8.43443 13.5408L7.51066 15.3147ZM11.447 9.14388C11.4215 9.16064 11.3977 9.1669 11.3826 9.16808C11.3693 9.16912 11.3676 9.16627 11.3712 9.16818L10.4475 10.9421C11.151 11.3084 11.9535 11.2047 12.5462 10.8148L11.447 9.14388ZM13.1666 8.21646C13.1666 8.21647 13.1666 8.21637 13.1667 8.21619C13.1667 8.21602 13.1667 8.21583 13.1667 8.21566C13.1668 8.21528 13.1668 8.21531 13.1666 8.21583C13.1663 8.21685 13.1648 8.22094 13.1602 8.22737C13.1502 8.24135 13.1302 8.25981 13.1001 8.27221L13.8602 10.1221C14.5938 9.8207 15.1666 9.10283 15.1666 8.21646H13.1666Z" fill="#E52823"/>
<ellipse cx="17" cy="16.178" rx="4.25" ry="3.83348" stroke="#E52823" stroke-width="2" stroke-linecap="round" stroke-linejoin="round"/>
</svg>
