<svg width="30" height="29" viewBox="0 0 30 29" fill="none" xmlns="http://www.w3.org/2000/svg">
<path d="M7.3804 7.45694L6.89306 8.33015L6.89306 8.33015L7.3804 7.45694ZM5.99443 7.82813L5.1359 7.31536L5.99443 7.82813ZM4.51995 10.2969L5.37848 10.8096L5.37848 10.8096L4.51995 10.2969ZM4.8804 11.6427L4.39306 12.5159L4.39306 12.5159L4.8804 11.6427ZM4.8804 17.3573L4.39306 16.484L4.39306 16.484L4.8804 17.3573ZM4.51996 18.7031L3.66143 19.2159L3.66143 19.2159L4.51996 18.7031ZM5.99443 21.1719L6.85296 20.6591L6.85296 20.6591L5.99443 21.1719ZM7.3804 21.543L7.86775 22.4163L7.86775 22.4163L7.3804 21.543ZM22.6196 21.543L22.1322 22.4163L22.1322 22.4163L22.6196 21.543ZM24.0055 21.1719L24.8641 21.6846L24.8641 21.6846L24.0055 21.1719ZM25.48 18.7031L26.3385 19.2159L26.3385 19.2159L25.48 18.7031ZM25.1196 17.3573L24.6322 18.2305L24.6322 18.2305L25.1196 17.3573ZM25.1196 11.6427L24.6322 10.7695L24.6322 10.7695L25.1196 11.6427ZM25.48 10.2969L26.3385 9.7841L26.3385 9.7841L25.48 10.2969ZM24.0055 7.82813L23.147 8.34089L23.147 8.34089L24.0055 7.82813ZM22.6196 7.45694L22.1322 6.58373L22.1322 6.58373L22.6196 7.45694ZM18.1648 7.9252L17.754 8.83692L18.1648 7.9252ZM20.4713 8.65587L20.9587 9.52908L20.4713 8.65587ZM22.4738 13.8893L23.4701 13.8034L22.4738 13.8893ZM23.0053 12.8227L23.4927 13.6959L23.0053 12.8227ZM19.3274 20.4222L19.892 21.2475L19.3274 20.4222ZM20.4713 20.3441L19.984 21.2173L20.4713 20.3441ZM23.0053 16.1773L22.518 17.0505L23.0053 16.1773ZM22.4738 15.1107L23.4701 15.1966L22.4738 15.1107ZM11.8351 21.0748L12.2459 20.1631L11.8351 21.0748ZM10.6725 20.4222L10.1079 21.2475L10.6725 20.4222ZM18.1648 21.0748L18.5756 21.9865L18.1648 21.0748ZM7.52621 15.1107L6.52991 15.1966L7.52621 15.1107ZM6.99463 16.1773L7.48198 17.0505L6.99463 16.1773ZM6.99463 12.8227L6.50729 13.6959L6.99463 12.8227ZM10.6725 8.57784L10.1079 7.75248L10.6725 8.57784ZM9.52862 8.65588L10.016 7.78267L9.52862 8.65588ZM11.8351 7.9252L11.4243 7.01347L11.8351 7.9252ZM13.5 4.625V4.625V2.625C12.3954 2.625 11.5 3.52043 11.5 4.625H13.5ZM13.5 6.94745V4.625H11.5V6.94745H13.5ZM11.2371 9.4032C11.5535 9.1868 11.8909 8.99688 12.2459 8.83692L11.4243 7.01347C10.9615 7.222 10.5212 7.46978 10.1079 7.75248L11.2371 9.4032ZM6.89306 8.33015L9.04128 9.52909L10.016 7.78267L7.86774 6.58373L6.89306 8.33015ZM6.85296 8.34089C6.85398 8.33917 6.85503 8.33791 6.85727 8.33624C6.8601 8.33415 6.86492 8.3315 6.87146 8.32975C6.878 8.328 6.8835 8.32789 6.887 8.32828C6.88977 8.3286 6.89131 8.32918 6.89306 8.33015L7.86774 6.58373C6.9132 6.051 5.69642 6.37687 5.1359 7.31536L6.85296 8.34089ZM5.37848 10.8096L6.85296 8.34089L5.1359 7.31536L3.66143 9.78409L5.37848 10.8096ZM5.36774 10.7695C5.36615 10.7686 5.36892 10.77 5.37247 10.7746C5.3756 10.7787 5.37783 10.7833 5.37909 10.788C5.38035 10.7927 5.38072 10.7978 5.38003 10.8028C5.37926 10.8086 5.37755 10.8112 5.37848 10.8096L3.66143 9.78409C3.08915 10.7423 3.41849 11.972 4.39306 12.5159L5.36774 10.7695ZM7.48198 11.9495L5.36774 10.7695L4.39306 12.5159L6.50729 13.6959L7.48198 11.9495ZM8.49998 14.5C8.49998 14.3231 8.5076 14.1481 8.52251 13.9753L6.52991 13.8034C6.51008 14.0333 6.49998 14.2656 6.49998 14.5H8.49998ZM8.52251 15.0247C8.5076 14.8519 8.49998 14.6769 8.49998 14.5H6.49998C6.49998 14.7344 6.51008 14.9667 6.52991 15.1966L8.52251 15.0247ZM5.36775 18.2305L7.48198 17.0505L6.50729 15.3041L4.39306 16.484L5.36775 18.2305ZM5.37849 18.1904C5.37755 18.1888 5.37926 18.1914 5.38004 18.1971C5.38072 18.2022 5.38035 18.2073 5.37909 18.212C5.37783 18.2167 5.3756 18.2213 5.37248 18.2254C5.36892 18.23 5.36615 18.2314 5.36775 18.2305L4.39306 16.484C3.4185 17.028 3.08915 18.2577 3.66143 19.2159L5.37849 18.1904ZM6.85296 20.6591L5.37849 18.1904L3.66143 19.2159L5.1359 21.6846L6.85296 20.6591ZM6.89306 20.6698C6.89131 20.6708 6.88977 20.6714 6.887 20.6717C6.88351 20.6721 6.878 20.672 6.87146 20.6702C6.86493 20.6685 6.8601 20.6658 6.85728 20.6637C6.85503 20.6621 6.85399 20.6608 6.85296 20.6591L5.1359 21.6846C5.69642 22.6231 6.91321 22.949 7.86775 22.4163L6.89306 20.6698ZM9.04127 19.4709L6.89306 20.6698L7.86775 22.4163L10.016 21.2173L9.04127 19.4709ZM12.2459 20.1631C11.8909 20.0031 11.5535 19.8132 11.2371 19.5968L10.1079 21.2475C10.5212 21.5302 10.9615 21.778 11.4243 21.9865L12.2459 20.1631ZM13.5 24.375V22.0526H11.5V24.375H13.5ZM13.5 24.375H11.5C11.5 25.4796 12.3954 26.375 13.5 26.375V24.375ZM16.5 24.375H13.5V26.375H16.5V24.375ZM16.5 24.375V26.375C17.6045 26.375 18.5 25.4796 18.5 24.375H16.5ZM16.5 22.0526V24.375H18.5V22.0526H16.5ZM18.7628 19.5968C18.4465 19.8132 18.109 20.0031 17.754 20.1631L18.5756 21.9865C19.0384 21.778 19.4788 21.5302 19.892 21.2475L18.7628 19.5968ZM23.1069 20.6698L20.9587 19.4709L19.984 21.2173L22.1322 22.4163L23.1069 20.6698ZM23.147 20.6591C23.146 20.6608 23.1449 20.6621 23.1427 20.6637C23.1399 20.6658 23.135 20.6685 23.1285 20.6702C23.122 20.672 23.1165 20.6721 23.113 20.6717C23.1102 20.6714 23.1086 20.6708 23.1069 20.6698L22.1322 22.4163C23.0868 22.949 24.3035 22.6231 24.8641 21.6846L23.147 20.6591ZM24.6215 18.1904L23.147 20.6591L24.8641 21.6846L26.3385 19.2159L24.6215 18.1904ZM24.6322 18.2305C24.6338 18.2314 24.631 18.23 24.6275 18.2254C24.6244 18.2213 24.6221 18.2167 24.6209 18.212C24.6196 18.2073 24.6192 18.2022 24.6199 18.1971C24.6207 18.1914 24.6224 18.1888 24.6215 18.1904L26.3385 19.2159C26.9108 18.2577 26.5815 17.028 25.6069 16.484L24.6322 18.2305ZM22.518 17.0505L24.6322 18.2305L25.6069 16.484L23.4927 15.3041L22.518 17.0505ZM21.5 14.5C21.5 14.6769 21.4924 14.8519 21.4775 15.0247L23.4701 15.1966C23.4899 14.9667 23.5 14.7344 23.5 14.5H21.5ZM21.4775 13.9753C21.4924 14.1481 21.5 14.3231 21.5 14.5H23.5C23.5 14.2656 23.4899 14.0333 23.4701 13.8034L21.4775 13.9753ZM24.6322 10.7695L22.518 11.9495L23.4927 13.6959L25.6069 12.5159L24.6322 10.7695ZM24.6215 10.8096C24.6224 10.8112 24.6207 10.8086 24.6199 10.8028C24.6192 10.7978 24.6196 10.7927 24.6209 10.788C24.6221 10.7833 24.6244 10.7787 24.6275 10.7746C24.631 10.77 24.6338 10.7686 24.6322 10.7695L25.6069 12.5159C26.5815 11.972 26.9108 10.7423 26.3385 9.7841L24.6215 10.8096ZM23.147 8.34089L24.6215 10.8096L26.3385 9.7841L24.8641 7.31536L23.147 8.34089ZM23.1069 8.33015C23.1086 8.32918 23.1102 8.3286 23.113 8.32828C23.1165 8.32789 23.122 8.328 23.1285 8.32975C23.135 8.33151 23.1399 8.33416 23.1427 8.33624C23.1449 8.33791 23.146 8.33917 23.147 8.34089L24.8641 7.31536C24.3035 6.37687 23.0868 6.051 22.1322 6.58373L23.1069 8.33015ZM20.9587 9.52908L23.1069 8.33015L22.1322 6.58373L19.984 7.78266L20.9587 9.52908ZM17.754 8.83692C18.109 8.99688 18.4465 9.1868 18.7628 9.4032L19.892 7.75247C19.4788 7.46978 19.0384 7.222 18.5756 7.01347L17.754 8.83692ZM16.5 4.625V6.94745H18.5V4.625H16.5ZM16.5 4.625H18.5C18.5 3.52043 17.6045 2.625 16.5 2.625V4.625ZM13.5 4.625H16.5V2.625H13.5V4.625ZM18.5756 7.01347C18.5411 6.99793 18.5185 6.97624 18.5073 6.96011C18.4976 6.9461 18.5 6.94252 18.5 6.94745H16.5C16.5 7.82046 17.0554 8.52216 17.754 8.83692L18.5756 7.01347ZM19.984 7.78266C19.9883 7.78029 19.9863 7.78391 19.97 7.78263C19.9513 7.78117 19.9223 7.77321 19.892 7.75247L18.7628 9.4032C19.3731 9.82068 20.2236 9.93932 20.9587 9.52908L19.984 7.78266ZM23.4701 13.8034C23.4665 13.7623 23.4751 13.7292 23.4844 13.7098C23.4926 13.693 23.4973 13.6933 23.4927 13.6959L22.518 11.9495C21.7487 12.3788 21.4117 13.2135 21.4775 13.9753L23.4701 13.8034ZM19.892 21.2475C19.9223 21.2268 19.9513 21.2188 19.97 21.2174C19.9863 21.2161 19.9883 21.2197 19.984 21.2173L20.9587 19.4709C20.2236 19.0607 19.3731 19.1793 18.7628 19.5968L19.892 21.2475ZM23.4927 15.3041C23.4973 15.3067 23.4926 15.307 23.4844 15.2902C23.4751 15.2708 23.4665 15.2377 23.4701 15.1966L21.4775 15.0247C21.4117 15.7865 21.7487 16.6212 22.518 17.0505L23.4927 15.3041ZM11.4243 21.9865C11.4588 22.0021 11.4814 22.0238 11.4926 22.0399C11.5024 22.0539 11.5 22.0575 11.5 22.0526H13.5C13.5 21.1795 12.9445 20.4778 12.2459 20.1631L11.4243 21.9865ZM10.016 21.2173C10.0117 21.2197 10.0137 21.2161 10.03 21.2174C10.0486 21.2188 10.0776 21.2268 10.1079 21.2475L11.2371 19.5968C10.6268 19.1793 9.77633 19.0607 9.04127 19.4709L10.016 21.2173ZM18.5 22.0526C18.5 22.0575 18.4976 22.0539 18.5073 22.0399C18.5185 22.0238 18.5411 22.0021 18.5756 21.9865L17.754 20.1631C17.0554 20.4778 16.5 21.1795 16.5 22.0526H18.5ZM6.52991 15.1966C6.53345 15.2377 6.52491 15.2708 6.51553 15.2902C6.50737 15.307 6.50263 15.3067 6.50729 15.3041L7.48198 17.0505C8.25124 16.6212 8.58823 15.7865 8.52251 15.0247L6.52991 15.1966ZM6.50729 13.6959C6.50263 13.6933 6.50737 13.693 6.51553 13.7098C6.52491 13.7292 6.53345 13.7623 6.52991 13.8034L8.52251 13.9753C8.58823 13.2135 8.25124 12.3788 7.48198 11.9495L6.50729 13.6959ZM10.1079 7.75248C10.0776 7.77322 10.0486 7.78117 10.03 7.78263C10.0137 7.78391 10.0117 7.78029 10.016 7.78267L9.04128 9.52909C9.77633 9.93933 10.6269 9.82068 11.2371 9.4032L10.1079 7.75248ZM11.5 6.94745C11.5 6.94252 11.5024 6.94611 11.4926 6.96011C11.4814 6.97624 11.4588 6.99793 11.4243 7.01347L12.2459 8.83692C12.9445 8.52216 13.5 7.82047 13.5 6.94745H11.5Z" fill="#ADADAF"/>
<ellipse cx="15" cy="14.5" rx="3.75" ry="3.625" stroke="#ADADAF" stroke-width="2" stroke-linecap="round" stroke-linejoin="round"/>
</svg>
