<svg width="24" height="22" viewBox="0 0 24 22" fill="none" xmlns="http://www.w3.org/2000/svg">
<path d="M5 8.57519C5 7.47062 5.89543 6.5752 7 6.5752H17C18.1046 6.5752 19 7.47063 19 8.5752V16.2031C19 17.86 17.6569 19.2031 16 19.2031H8C6.34315 19.2031 5 17.86 5 16.2031V8.57519Z" stroke="#ADADAF" stroke-width="2" stroke-linecap="round" stroke-linejoin="round"/>
<path d="M15 6.57527V5.96728C15 4.31043 13.6569 2.96729 12 2.96729V2.96729C10.3431 2.96729 9 4.31043 9 5.96728V6.57527" stroke="#ADADAF" stroke-width="2" stroke-linecap="round" stroke-linejoin="round"/>
<path d="M9 10.1833L9 10.7913C9 12.4481 10.3431 13.7913 12 13.7913V13.7913C13.6569 13.7913 15 12.4481 15 10.7913L15 10.1833" stroke="#ADADAF" stroke-width="2" stroke-linecap="round" stroke-linejoin="round"/>
</svg>
