<svg width="13" height="12" viewBox="0 0 13 12" fill="none" xmlns="http://www.w3.org/2000/svg">
<path d="M5.29894 0.92705C5.5983 0.00573921 6.9017 0.00573993 7.20106 0.927051L7.93386 3.18237C8.06773 3.5944 8.45168 3.87336 8.88491 3.87336L11.2563 3.87336C12.225 3.87336 12.6278 5.11297 11.8441 5.68237L9.92559 7.07624C9.5751 7.33088 9.42845 7.78225 9.56232 8.19427L10.2951 10.4496C10.5945 11.3709 9.53999 12.137 8.75628 11.5676L6.83778 10.1738C6.4873 9.91912 6.0127 9.91912 5.66221 10.1738L3.74372 11.5676C2.96001 12.137 1.90553 11.3709 2.20488 10.4496L2.93768 8.19427C3.07155 7.78225 2.9249 7.33088 2.57441 7.07624L0.655917 5.68237C-0.127797 5.11297 0.274979 3.87336 1.2437 3.87336L3.61509 3.87336C4.04832 3.87336 4.43227 3.5944 4.56614 3.18237L5.29894 0.92705Z" fill="#E52823"/>
</svg>
