<svg width="16" height="16" viewBox="0 0 16 16" fill="none" xmlns="http://www.w3.org/2000/svg">
<path d="M3.21692 7.61321L2.91981 6.02035C2.61165 6.05049 2.30247 5.97418 2.04372 5.80412C1.79379 5.6136 1.62742 5.33365 1.57955 5.02306C1.53168 4.71247 1.60603 4.39541 1.78699 4.13848C1.96519 3.88506 2.23676 3.71282 2.54196 3.65963C2.84716 3.60645 3.16099 3.67667 3.41441 3.85488C3.59261 3.60146 3.86418 3.42921 4.16938 3.37603C4.47458 3.32284 4.78841 3.39307 5.04183 3.57127C5.29902 3.75184 5.47623 4.02508 5.53624 4.33355C5.59626 4.64202 5.53439 4.96173 5.36364 5.22556C5.17767 5.47312 4.91253 5.64954 4.61234 5.72541L4.94131 7.61321" stroke="#ADADAF" stroke-linecap="round" stroke-linejoin="round"/>
<path d="M12.7366 7.66752C12.7366 7.66752 13.5514 7.60615 14.4651 6.02954L14.6597 5.6841C14.9689 5.12577 15.046 4.46821 14.8743 3.85349C14.7026 3.23878 14.296 2.71628 13.7422 2.39895L12.8787 1.91244L12.0601 1.41335C11.5018 1.10414 10.8442 1.02705 10.2295 1.19872C9.6148 1.37039 9.0923 1.77704 8.77497 2.3308L8.59295 2.72122C7.67627 4.28705 7.24321 5.51386 7.29671 7.32749" stroke="#ADADAF" stroke-width="1.5" stroke-linecap="round" stroke-linejoin="round"/>
<path d="M13.5838 15.1874H2.36974L1.17676 7.73547H14.7768L13.5838 15.1874Z" stroke="#ADADAF" stroke-width="1.5" stroke-linecap="round" stroke-linejoin="round"/>
<path d="M5.35229 15.1874L4.1593 7.73547" stroke="#ADADAF" stroke-width="1.5" stroke-linecap="round" stroke-linejoin="round"/>
<path d="M10.6017 15.1874L11.7947 7.73547" stroke="#ADADAF" stroke-width="1.5" stroke-linecap="round" stroke-linejoin="round"/>
<path d="M7.97705 7.73547V15.1874" stroke="#ADADAF" stroke-width="1.5" stroke-linecap="round" stroke-linejoin="round"/>
</svg>
