<svg width="191" height="168" viewBox="0 0 191 168" fill="none" xmlns="http://www.w3.org/2000/svg">
<path d="M100.372 10.6313C100.372 10.6313 86.7542 46.46 45.1188 40.7572C3.48338 35.0543 -18.1789 92.7828 21.9105 111.146C61.9999 129.508 36.3348 154.617 62.9793 165.218C93.2628 177.266 101.705 130.839 123.689 133.876C172.207 140.58 200.992 122.813 186.652 101.876C161.48 65.1222 144.828 67.4593 150.252 42.5112C155.675 17.5632 115.167 -18.0025 100.372 10.6313Z" fill="#D0D9E1"/>
<path d="M166.42 72.2462L88.9433 53.803C86.0721 53.1195 83.1906 54.8929 82.5071 57.7641L71.1136 105.626C70.4302 108.497 72.2036 111.379 75.0748 112.062L152.552 130.505C155.423 131.189 158.304 129.415 158.988 126.544L170.381 78.6824C171.065 75.8113 169.291 72.9297 166.42 72.2462Z" fill="white"/>
<path d="M169.305 83.2003L81.4307 62.282L79.0465 72.2974L166.921 93.2157L169.305 83.2003Z" fill="#EB272E"/>
<path d="M155.22 120.611L137.747 116.451C137.691 116.438 137.635 116.472 137.622 116.528L136.515 121.178C136.502 121.234 136.536 121.29 136.592 121.303L154.065 125.462C154.12 125.476 154.176 125.441 154.189 125.386L155.296 120.735C155.31 120.68 155.275 120.624 155.22 120.611Z" fill="white"/>
<path d="M121.532 47.1251L31.2942 78.2104C28.5038 79.1717 27.021 82.213 27.9822 85.0035L47.4181 141.424C48.3794 144.214 51.4207 145.697 54.2112 144.736L144.449 113.65C147.239 112.689 148.722 109.648 147.761 106.857L128.325 50.4371C127.363 47.6467 124.322 46.1638 121.532 47.1251Z" fill="#E52823"/>
<path d="M119.657 54.4188L109.131 58.0448C107.457 58.6216 106.567 60.4464 107.144 62.1206L110.77 72.6465C111.347 74.3207 113.171 75.2105 114.846 74.6337L125.372 71.0077C127.046 70.431 127.936 68.6061 127.359 66.9319L123.733 56.406C123.156 54.7318 121.331 53.8421 119.657 54.4188Z" fill="white"/>
<path d="M82.7901 104.863L47.7783 116.924C47.678 116.958 47.6247 117.068 47.6592 117.168L49.4426 122.345C49.4771 122.445 49.5865 122.498 49.6867 122.464L84.6985 110.403C84.7988 110.368 84.8521 110.259 84.8176 110.159L83.0342 104.982C82.9997 104.882 82.8904 104.828 82.7901 104.863Z" fill="white"/>
<path d="M101.431 110.408L51.4628 127.621C51.3625 127.656 51.3093 127.765 51.3438 127.865L53.1272 133.042C53.1617 133.143 53.271 133.196 53.3713 133.161L103.339 115.948C103.439 115.914 103.493 115.804 103.458 115.704L101.675 110.527C101.64 110.427 101.531 110.374 101.431 110.408Z" fill="white"/>
</svg>
