<svg width="16" height="16" viewBox="0 0 16 16" fill="none" xmlns="http://www.w3.org/2000/svg">
<path d="M3.21698 7.61321L2.91987 6.02035C2.61171 6.05049 2.30253 5.97418 2.04378 5.80412C1.79386 5.6136 1.62748 5.33365 1.57961 5.02306C1.53174 4.71247 1.60609 4.39541 1.78705 4.13848C1.96525 3.88506 2.23682 3.71282 2.54202 3.65963C2.84722 3.60645 3.16105 3.67667 3.41447 3.85488C3.59267 3.60146 3.86424 3.42921 4.16944 3.37603C4.47464 3.32284 4.78847 3.39307 5.04189 3.57127C5.29908 3.75184 5.4763 4.02508 5.53631 4.33355C5.59632 4.64202 5.53445 4.96173 5.3637 5.22556C5.17773 5.47312 4.91259 5.64954 4.6124 5.72541L4.94137 7.61321" stroke="#E52823" stroke-linecap="round" stroke-linejoin="round"/>
<path d="M12.7366 7.66746C12.7366 7.66746 13.5514 7.60609 14.4651 6.02947L14.6597 5.68404C14.9689 5.12571 15.046 4.46814 14.8743 3.85343C14.7026 3.23871 14.296 2.71622 13.7422 2.39889L12.8787 1.91237L12.0601 1.41329C11.5018 1.10408 10.8442 1.02698 10.2295 1.19866C9.6148 1.37033 9.0923 1.77698 8.77497 2.33074L8.59295 2.72116C7.67627 4.28699 7.24321 5.5138 7.29671 7.32743" stroke="#E52823" stroke-width="1.5" stroke-linecap="round" stroke-linejoin="round"/>
<path d="M13.5838 15.1876H2.36974L1.17676 7.7356H14.7768L13.5838 15.1876Z" stroke="#E52823" stroke-width="1.5" stroke-linecap="round" stroke-linejoin="round"/>
<path d="M5.35229 15.1876L4.1593 7.7356" stroke="#E52823" stroke-width="1.5" stroke-linecap="round" stroke-linejoin="round"/>
<path d="M10.6017 15.1876L11.7947 7.7356" stroke="#E52823" stroke-width="1.5" stroke-linecap="round" stroke-linejoin="round"/>
<path d="M7.97705 7.7356V15.1876" stroke="#E52823" stroke-width="1.5" stroke-linecap="round" stroke-linejoin="round"/>
</svg>
