<svg width="309" height="248" viewBox="0 0 309 248" fill="none" xmlns="http://www.w3.org/2000/svg">
<path d="M42.1482 31.5753L64.3621 76.859C67.1537 82.5499 73.8901 85.0881 79.743 82.6543L99.5187 74.4312L132.053 61.9001C138.246 59.5147 145.2 62.6094 147.573 68.8073L148.624 71.5522C149.527 73.9108 151.151 75.9242 153.265 77.306L171.37 89.1397C173.271 90.3825 175.486 91.0601 177.757 91.0938L194.081 91.336C198.771 91.4056 202.991 94.2012 204.883 98.4928L220.645 134.235L251.506 211.201L260.345 236.862C262.39 242.8 268.667 246.156 274.74 244.56L294.594 239.344" stroke="#E52823" stroke-width="6" stroke-linecap="round"/>
<circle cx="296.297" cy="237.197" r="6.82884" transform="rotate(90.8501 296.297 237.197)" fill="white" stroke="#E52823" stroke-width="4"/>
<circle cx="34.1494" cy="31.4566" r="31" transform="rotate(90.8501 34.1494 31.4566)" fill="#E52823"/>
<path d="M44.4031 29.2015C44.4031 37.1361 34.2015 43.9371 34.2015 43.9371C34.2015 43.9371 24 37.1361 24 29.2015C24 26.4959 25.0748 23.9011 26.988 21.988C28.9011 20.0748 31.4959 19 34.2015 19C36.9072 19 39.502 20.0748 41.4151 21.988C43.3283 23.9011 44.4031 26.4959 44.4031 29.2015Z" stroke="white" stroke-width="3" stroke-linecap="round" stroke-linejoin="round"/>
<path d="M34.2013 32.6021C36.0793 32.6021 37.6018 31.0796 37.6018 29.2015C37.6018 27.3235 36.0793 25.801 34.2013 25.801C32.3232 25.801 30.8008 27.3235 30.8008 29.2015C30.8008 31.0796 32.3232 32.6021 34.2013 32.6021Z" stroke="white" stroke-width="3" stroke-linecap="round" stroke-linejoin="round"/>
</svg>
