<svg width="27" height="27" viewBox="0 0 27 27" fill="none" xmlns="http://www.w3.org/2000/svg">
<path d="M19.0908 21.9428C18.8164 19.7204 16.9216 18 14.625 18H12.375C10.0784 18 8.18362 19.7204 7.90916 21.9428M19.0908 21.9428C21.8235 20.1296 23.625 17.0252 23.625 13.5C23.625 7.90812 19.0919 3.375 13.5 3.375C7.90812 3.375 3.375 7.90812 3.375 13.5C3.375 17.0252 5.17654 20.1296 7.90916 21.9428M19.0908 21.9428C17.4888 23.0058 15.5667 23.625 13.5 23.625C11.4333 23.625 9.51121 23.0058 7.90916 21.9428M16.875 11.25C16.875 13.114 15.364 14.625 13.5 14.625C11.636 14.625 10.125 13.114 10.125 11.25C10.125 9.38604 11.636 7.875 13.5 7.875C15.364 7.875 16.875 9.38604 16.875 11.25Z" stroke="#E52823" stroke-width="2" stroke-linecap="round" stroke-linejoin="round"/>
</svg>
