<svg width="24" height="23" viewBox="0 0 24 23" fill="none" xmlns="http://www.w3.org/2000/svg">
<path d="M16.9696 17.9887C16.7257 16.2069 15.0414 14.8275 13 14.8275H11C8.95858 14.8275 7.27433 16.2069 7.03036 17.9887M16.9696 17.9887C19.3986 16.535 21 14.0459 21 11.2195C21 6.7361 16.9706 3.10156 12 3.10156C7.02944 3.10156 3 6.7361 3 11.2195C3 14.0459 4.60137 16.535 7.03036 17.9887M16.9696 17.9887C15.5456 18.841 13.8371 19.3375 12 19.3375C10.1629 19.3375 8.45441 18.841 7.03036 17.9887M15 9.41554C15 10.91 13.6569 12.1215 12 12.1215C10.3431 12.1215 9 10.91 9 9.41554C9 7.92106 10.3431 6.70955 12 6.70955C13.6569 6.70955 15 7.92106 15 9.41554Z" stroke="#ADADAF" stroke-width="2" stroke-linecap="round" stroke-linejoin="round"/>
</svg>
